<svg width="479" height="153" viewBox="0 0 479 153" fill="none" xmlns="http://www.w3.org/2000/svg">
<path d="M221.12 64.6634C219.646 66.7 218.804 69.1573 217.156 71.0981C213.023 76.0544 208.28 80.3125 203.036 84.0404C193.341 90.9418 182.828 96.3251 171.787 100.592C135.993 114.48 98.9378 120.062 60.6832 117.197C50.6073 116.443 40.713 114.437 31.201 111.101C22.106 107.952 14.0399 102.719 6.29019 96.9523C5.26915 96.2036 4.30669 95.2449 2.81355 95.347C1.05837 96.4287 1.31994 97.6956 2.667 98.8788C4.22569 100.225 5.91558 101.462 7.60547 102.699C9.54096 104.097 11.5089 105.46 13.3717 106.758C10.0451 115.237 6.84023 123.4 3.63696 131.598C3.2082 132.654 2.88446 133.775 4.13898 135.169C8.90973 133.778 13.4158 131.052 18.3517 129.55C21.8494 133.124 24.5614 137.39 28.0079 140.587C29.9888 139.979 30.3695 138.613 30.7241 137.422C31.7047 134.268 32.5818 131.083 33.4928 127.897C34.5226 124.325 35.5864 120.752 36.6732 116.936C39.0452 117.45 41.1748 117.872 43.2025 118.299C43.6569 119.315 43.1786 120.028 43.0431 120.794C41.8558 127.657 40.5667 134.523 39.4149 141.418C39.1701 142.777 38.632 144.426 40.9564 145.392C44.9466 142.55 48.9908 139.395 53.4383 136.878C57.3557 139.95 61.1001 142.96 64.6654 145.771C66.8778 145.014 66.8708 143.355 67.0106 141.932C67.3844 138.908 67.5188 135.861 67.7891 132.808C68.1239 128.922 68.4263 125.072 68.7888 121.046C71.5868 121.196 74.0421 121.293 76.4649 121.425C76.5578 121.974 76.6706 122.21 76.6476 122.453C75.802 130.095 75.9462 137.795 75.3739 145.459C75.2957 146.741 75.1204 148.132 77.0387 149.151C81.0598 146.238 84.4488 142.145 88.7354 139.083C92.9676 141.587 97.1998 144.091 101.223 146.501C103.161 144.927 102.914 143.245 102.846 141.727C102.603 135.621 102.293 129.518 102.017 123.414C101.975 122.482 101.624 121.496 102.33 120.565C103.783 120.327 105.263 119.914 106.944 120.218C107.039 120.802 107.129 121.281 107.152 121.799C107.54 128.866 107.894 135.935 108.316 143.001C108.378 144.38 108.308 145.835 109.723 147.015C112.845 146.805 113.342 143.499 115.207 141.825C117.235 140.005 119.009 137.851 120.894 135.865C125.481 137.938 129.895 139.951 134.065 141.835C135.873 140.406 135.498 138.902 135.337 137.596C134.73 133.2 133.986 128.81 133.343 124.381C132.948 121.668 132.586 118.92 132.226 116.24C134.612 115.545 136.699 115.036 138.97 114.829C141.237 123.54 143.332 132.223 146.137 140.805C149.938 139.804 149.787 136.458 151.262 134.456C152.898 132.24 154.217 129.795 155.741 127.376C159.733 128.336 163.586 129.233 167.409 130.201C168.51 130.462 169.588 130.966 170.801 129.183C169.661 122.046 165.579 115.353 163.707 107.835C166.008 106.763 168.319 105.933 170.539 105.348C171.31 105.832 171.407 106.484 171.636 107.027C174.127 113.169 176.617 119.312 179.108 125.455C179.607 126.711 179.946 128.182 182.341 128.453C184.484 123.898 186.021 118.748 188.608 114.242C191.24 114.469 193.601 114.742 196.02 114.805C198.44 114.869 200.816 116.213 203.148 115.105C203.984 113.27 203.209 111.923 202.572 110.638C200.997 107.426 199.257 104.325 197.615 101.151C196.459 98.9223 195.371 96.6906 194.175 94.3256C196.367 93.1204 198.106 91.6939 200.115 90.9464C200.949 91.3233 201.218 92.0024 201.584 92.5733C204.979 97.6383 208.34 102.705 211.735 107.77C212.429 108.81 213.032 110.096 215.246 110.134C216.934 105.323 216.994 99.8594 218.839 94.7647C222.703 94.3825 226.566 94.0003 230.395 93.6197C231.581 93.4969 232.88 93.6109 233.569 91.5407C230.254 85.228 224.384 80.3787 220.496 74.1956C222.197 70.4207 229.287 62.1476 229.5 57.8179C227.081 57.0288 222.113 63.3051 221.12 64.6634ZM28.0381 135.989C25.6697 133.297 23.6257 131.004 21.648 128.675C19.5978 126.245 19.0109 126.064 16.1363 127.231C13.2956 128.396 10.4194 129.528 7.54477 130.695C7.36867 130.565 7.19258 130.435 7.01648 130.304C9.99012 123.05 12.0618 115.423 15.7102 108.034C21.1598 111.866 27.2755 113.87 33.6201 116.417C31.832 122.788 30.0067 129.091 28.0381 135.989ZM64.1243 141.337C61.2342 139.152 58.7689 137.328 56.3683 135.433C53.8612 133.438 53.3486 133.392 50.7058 135.17C48.1279 136.877 45.55 138.583 42.3762 140.662C43.5569 132.902 44.6297 125.768 45.7612 118.425C52.4447 119.436 58.7823 120.324 65.7158 120.84C65.2373 127.566 64.7154 134.087 64.1243 141.337ZM99.657 141.975C96.5818 140.214 93.8619 138.782 91.2669 137.102C89.2681 135.81 87.7071 135.915 85.9784 137.583C83.6957 139.795 81.1982 141.774 78.2501 144.327C78.4362 136.404 78.6505 129.102 78.8245 121.664C85.5506 121.359 91.9711 121.069 98.6632 120.766C99.0109 127.697 99.3199 134.526 99.657 141.975ZM123.38 133.644C121.15 132.501 119.529 132.782 117.986 134.787C116.123 137.256 114.121 139.662 112.189 142.1C111.806 141.91 111.457 141.718 111.074 141.528C110.476 134.332 109.846 127.172 109.243 119.872C115.869 118.847 122.156 117.871 129.087 116.832C130.14 123.558 131.228 130.283 132.377 137.626C128.973 136.122 126.099 135.042 123.38 133.644ZM167.186 126.789C163.613 126.052 160.597 125.601 157.667 124.801C155.289 124.148 153.783 124.734 152.591 126.966C151.084 129.764 149.331 132.401 147.333 135.636C145.158 128.201 143.183 121.413 141.126 114.317C147.848 112.423 154.067 110.69 160.655 108.837C162.793 114.719 164.892 120.465 167.186 126.789ZM199.879 112.073C196.088 111.795 192.951 111.661 189.8 111.251C187.643 110.968 186.385 111.751 185.589 113.722C184.331 116.751 182.935 119.752 181.295 123.386C178.406 116.708 175.748 110.642 173.012 104.338C179.356 101.597 185.398 98.9736 191.482 95.7607C194.28 101.164 196.932 106.366 199.879 112.073ZM229.361 90.3142C225.877 90.8174 222.972 91.2945 220.059 91.6336C216.605 92.0318 216.343 92.2511 215.585 95.8105C214.936 98.7774 214.252 101.711 213.425 105.239C209.566 99.7116 206.037 94.6873 202.253 89.2944C207.964 85.3726 213.157 81.2669 217.963 76.1419C221.714 80.8106 225.322 85.3129 229.361 90.3142Z" fill="white"/>
<path d="M245.293 61.2188C247.297 62.7373 248.818 64.8424 250.961 66.2184C256.359 69.7546 262.137 72.445 268.24 74.4822C279.526 78.2573 291.152 80.3419 302.957 81.2046C341.245 84.0547 378.318 78.5915 414.076 64.6982C423.494 61.0398 432.374 56.2364 440.5 50.2717C448.282 44.6088 454.472 37.251 460.204 29.4757C460.962 28.4619 461.604 27.2643 463.062 26.9267C465.056 27.4496 465.175 28.7378 464.231 30.2623C463.133 32.0046 461.877 33.6804 460.621 35.3561C459.177 37.2581 457.692 39.1351 456.289 40.9199C461.943 48.0612 467.388 54.9353 472.842 61.8428C473.56 62.7281 474.197 63.7057 473.403 65.4056C468.434 65.4659 463.329 64.1712 458.169 64.1733C455.866 68.612 454.515 73.4837 452.15 77.546C450.078 77.5418 449.316 76.3471 448.63 75.3111C446.772 72.5792 445.005 69.7886 443.204 67.0064C441.178 63.89 439.119 60.7821 436.966 57.4485C434.848 58.6324 432.933 59.6569 431.118 60.6562C430.98 61.7608 431.645 62.3032 431.998 62.9968C435.134 69.2147 438.369 75.4073 441.481 81.667C442.112 82.8955 443.107 84.3157 441.165 85.9175C436.52 84.3626 431.732 82.5235 426.744 81.4126C423.892 85.4926 421.187 89.4636 418.597 93.1917C416.26 93.1128 415.783 91.5242 415.234 90.2035C413.995 87.4202 412.978 84.5444 411.829 81.7023C410.376 78.0828 408.965 74.4883 407.444 70.7435C404.812 71.7026 402.491 72.5104 400.212 73.3433C400.283 73.8953 400.244 74.1547 400.337 74.3804C403.374 81.4434 405.481 88.8514 408.262 96.0153C408.711 97.2191 409.284 98.4979 407.746 100.032C403.051 98.4186 398.616 95.4912 393.622 93.8114C390.304 97.4406 386.986 101.07 383.839 104.548C381.528 103.607 381.273 101.926 380.896 100.455C379.348 94.5432 377.865 88.6148 376.35 82.6948C376.119 81.7918 376.167 80.7459 375.219 80.0619C373.76 80.2572 372.225 80.2938 370.705 81.075C370.785 81.6604 370.839 82.1455 370.967 82.6472C372.656 89.5206 374.379 96.3855 376.035 103.267C376.377 104.605 376.869 105.976 375.859 107.518C372.811 108.226 371.372 105.209 369.1 104.151C366.63 103.002 364.304 101.459 361.923 100.109C358.139 103.429 354.504 106.641 351.064 109.66C348.918 108.819 348.838 107.271 348.612 105.975C347.911 101.593 347.342 97.1768 346.666 92.7526C346.253 90.0429 345.799 87.3081 345.361 84.6403C342.877 84.6704 340.732 84.7919 338.499 85.2566C338.87 94.2492 339.398 103.166 339.217 112.193C335.288 112.344 334.458 109.099 332.463 107.614C330.252 105.971 328.278 104.017 326.114 102.148C322.575 104.23 319.151 106.211 315.777 108.251C314.8 108.822 313.916 109.618 312.236 108.266C311.246 101.107 313.198 93.5151 312.797 85.7774C310.285 85.4228 307.832 85.3023 305.538 85.3907C304.941 86.0779 305.038 86.7302 304.977 87.316C304.386 93.9179 303.794 100.52 303.203 107.122C303.091 108.469 303.196 109.975 300.984 110.933C297.606 107.2 294.635 102.722 290.846 99.1658C288.395 100.15 286.216 101.099 283.92 101.865C281.624 102.631 279.743 104.61 277.189 104.23C275.854 102.718 276.204 101.203 276.438 99.7891C277.009 96.2576 277.769 92.7842 278.414 89.2692C278.87 86.8003 279.26 84.3483 279.715 81.7372C277.267 81.2235 275.187 80.366 273.048 80.2365C272.36 80.8403 272.301 81.5682 272.117 82.2211C270.346 88.0558 268.608 93.882 266.837 99.7167C266.477 100.914 266.275 102.32 264.168 103.002C261.15 98.8917 259.501 93.6831 256.25 89.3478C252.443 90.1085 248.636 90.8691 244.862 91.6214C243.692 91.8497 242.483 92.3373 241.22 90.558C242.551 83.553 246.752 77.2031 248.669 70.1551C245.941 67.0401 232.491 58.8641 237 57.3179C238.755 56.7161 243.947 60.2092 245.293 61.2188ZM450.781 73.1567C452.262 69.8909 453.549 67.1024 454.761 64.2974C456.014 61.3751 456.523 61.0311 459.613 61.3092C462.67 61.5958 465.751 61.8405 468.841 62.1187C468.971 61.9427 469.102 61.7668 469.232 61.5908C464.273 55.5189 460.068 48.8264 454.424 42.8228C450.328 48.0765 445.062 51.7766 439.736 56.0625C443.304 61.6353 446.887 67.1328 450.781 73.1567ZM417.821 88.7928C419.949 85.8604 421.776 83.3971 423.519 80.8837C425.336 78.2448 425.813 78.0514 428.859 78.9822C431.823 79.8629 434.786 80.7437 438.428 81.8071C435.036 74.7281 431.931 68.2173 428.707 61.5228C422.609 64.4382 416.806 67.1355 410.324 69.6501C412.742 75.9447 415.143 82.0302 417.821 88.7928ZM384.018 99.7624C386.447 97.1808 388.631 95.0179 390.623 92.6547C392.159 90.8361 393.683 90.4817 395.822 91.5732C398.651 93.0232 401.617 94.1883 405.181 95.7706C402.693 88.2463 400.36 81.3241 398.025 74.2597C391.502 75.9294 385.276 77.5232 378.786 79.1845C380.474 85.9157 382.169 92.538 384.018 99.7624ZM358.897 98.7093C360.697 96.9655 362.33 96.7614 364.39 98.2296C366.892 100.048 369.508 101.766 372.067 103.535C372.378 103.241 372.656 102.956 372.967 102.663C371.441 95.6051 369.956 88.5724 368.405 81.4143C361.768 82.3648 355.47 83.2644 348.536 84.2908C349.49 91.0318 350.41 97.7812 351.452 105.141C354.269 102.709 356.704 100.839 358.897 98.7093ZM314.995 104.923C318.199 103.176 320.952 101.865 323.521 100.245C325.606 98.9277 327.217 99.0499 329.008 100.837C331.266 103.074 333.711 105.085 336.566 107.598C336.478 99.8509 336.389 92.7819 336.288 85.395C329.305 85.543 322.851 85.6984 316.009 85.8462C315.679 92.0962 315.347 98.204 314.995 104.923ZM279.432 100.377C282.977 99.0062 285.94 97.9627 288.833 96.6518C290.815 95.7526 292.246 96.1345 293.582 97.7882C295.669 100.319 297.88 102.782 300.507 105.78C301.324 98.5505 302.098 91.9733 302.877 85.1451C296.01 84.3727 289.465 83.6247 282.709 82.3251C281.608 88.3089 280.588 94.0584 279.432 100.377ZM244.888 88.1579C248.367 87.6237 251.285 87.2329 254.17 86.7084C257.59 86.0823 257.905 86.2155 259.668 89.3994C261.153 92.0483 262.663 94.6554 264.483 97.7889C266.562 91.3764 268.474 85.5415 270.521 79.2796C263.915 77.1932 257.751 74.7796 251.659 71.2784C249.432 76.8379 247.293 82.1964 244.888 88.1579Z" fill="white"/>
</svg>
