<svg width="12" height="13" viewBox="0 0 12 13" fill="none" xmlns="http://www.w3.org/2000/svg">
<path d="M2.76471 4.34728C3.73933 4.34728 4.52941 3.5572 4.52941 2.58258C4.52941 1.60796 3.73933 0.817871 2.76471 0.817871C1.79009 0.817871 1 1.60796 1 2.58258C1 3.5572 1.79009 4.34728 2.76471 4.34728Z" stroke="#3D7CC9" stroke-width="1.6" stroke-linecap="round" stroke-linejoin="round"/>
<path d="M2.76471 11.406C3.73933 11.406 4.52941 10.6159 4.52941 9.64129C4.52941 8.66667 3.73933 7.87659 2.76471 7.87659C1.79009 7.87659 1 8.66667 1 9.64129C1 10.6159 1.79009 11.406 2.76471 11.406Z" stroke="#3D7CC9" stroke-width="1.6" stroke-linecap="round" stroke-linejoin="round"/>
<path d="M11 1.40607L4.01175 8.3943" stroke="#3D7CC9" stroke-width="1.6" stroke-linecap="round" stroke-linejoin="round"/>
<path d="M7.74704 7.5708L11 10.8179" stroke="#3D7CC9" stroke-width="1.6" stroke-linecap="round" stroke-linejoin="round"/>
<path d="M4.01175 3.82977L6.2941 6.11213" stroke="#3D7CC9" stroke-width="1.6" stroke-linecap="round" stroke-linejoin="round"/>
</svg>
