<svg width="60" height="56" viewBox="0 0 60 56" fill="none" xmlns="http://www.w3.org/2000/svg">
<path d="M15.6238 43.7514C11.6215 43.7514 8.06139 41.1888 6.76864 37.3737L6.6812 37.0862C6.37633 36.0759 6.24861 35.2262 6.24861 34.3761V17.3304L0.183546 37.576C-0.596503 40.5538 1.18104 43.6411 4.16344 44.4637L42.8221 54.8167C43.3046 54.9417 43.7871 55.0017 44.2622 55.0017C46.7521 55.0017 49.0272 53.3491 49.6649 50.9137L51.9171 43.7514H15.6238Z" fill="#8AC926"/>
<path d="M22.4991 17.5007C25.2568 17.5007 27.499 15.258 27.499 12.5004C27.499 9.74276 25.2568 7.50012 22.4991 7.50012C19.7415 7.50012 17.4989 9.74276 17.4989 12.5004C17.4989 15.258 19.7415 17.5007 22.4991 17.5007Z" fill="#3D7CC9"/>
<path d="M53.7496 0H16.2487C12.8039 0 9.99869 2.80524 9.99869 6.25046V33.7508C9.99869 37.196 12.8039 40.0013 16.2487 40.0013H53.7496C57.1948 40.0013 60.0001 37.196 60.0001 33.7508V6.25046C60.0001 2.80524 57.1948 0 53.7496 0V0ZM16.2487 5.00027H53.7496C54.4399 5.00027 54.9998 5.56013 54.9998 6.25046V23.9984L47.1023 14.7829C46.2645 13.8005 45.0519 13.2755 43.7495 13.2457C42.4545 13.253 41.2395 13.828 40.4096 14.8232L31.1241 25.9682L28.0991 22.9505C26.3893 21.2408 23.6065 21.2408 21.899 22.9505L14.999 29.8483V6.25046C14.999 5.56013 15.5588 5.00027 16.2487 5.00027V5.00027Z" fill="#212121"/>
</svg>
