<svg width="54" height="35" viewBox="0 0 54 35" fill="none" xmlns="http://www.w3.org/2000/svg">
<path d="M40.5 11.3179C40.8 9.31792 40.6 7.31792 39.3 5.71792C38.2 4.31792 36.9 3.11792 35.4 2.11792C34 1.21792 32.5 0.717916 30.8 0.817916C29.1 1.01792 27.4 1.61792 25.9 2.61792C22.8 4.61792 20.6 7.61792 21 11.4179C21.2 13.5179 21.9 15.6179 22.2 17.7179C22.6 19.8179 23 21.9179 23.4 24.1179C23.9 26.3179 24.6 28.4179 25.2 30.6179C25.5 31.9179 25.4 33.4179 26.8 34.0179C28.3 34.6179 30.2 33.4179 31.6 32.9179C33.6 32.2179 35.5 31.2179 37.6 30.6179C41.2 29.6179 45 28.7179 47.9 26.1179C50.8 23.5179 53.2 19.9179 53.6 15.9179C53.8 13.9179 53.4 11.5179 51.7 10.2179C50.9 9.61792 50 9.21792 49.2 8.61792C48.3 8.01792 47.5 7.51792 46.4 7.51792C44.6 7.41792 42.3 7.51792 40.6 8.21792C39.8 8.51792 39 9.01792 38.2 9.41792C37.4 9.81792 36.6 10.1179 36.1 10.8179C35.6 11.4179 35.5 12.3179 36.1 12.9179C36.6 13.4179 37.7 13.5179 38.2 12.9179C38.8 12.1179 40 11.9179 40.9 11.4179C42.2 10.7179 43.3 10.7179 44.7 10.6179C45.5 10.6179 46.2 10.4179 46.9 10.8179C47.5 11.1179 47.9 11.5179 48.5 11.8179C49 12.1179 49.7 12.3179 50.1 12.8179C50.6 13.3179 50.6 14.2179 50.7 14.9179C50.9 17.9179 49 20.9179 46.9 23.0179C44.9 25.1179 42.2 26.3179 39.4 27.0179C37.8 27.4179 36.2 27.8179 34.7 28.3179C33.2 28.9179 31.7 29.6179 30.1 30.1179C29.6 30.3179 28.5 30.5179 28.1 30.9179H28C27.7 31.0179 27.8 31.1179 28.4 31.4179L28.3 30.7179C28.1 29.3179 27.6 28.0179 27.2 26.6179C26.8 25.0179 26.4 23.3179 26 21.6179C25.6 19.9179 25.4 18.2179 25.1 16.5179C24.6 13.8179 23.1 10.5179 24.7 7.81792C26.1 5.61792 29.4 3.31792 32.1 3.81792C33.3 4.01792 34.7 5.01792 35.6 5.91792C36.8 7.21792 37.9 8.51792 37.6 10.4179C37.5 11.2179 37.8 12.0179 38.6 12.2179C39.4 12.5179 40.4 12.1179 40.5 11.3179Z" fill="#8AC926"/>
<path d="M8.93912 21.0479C8.11913 20.5518 7.20791 20.2744 6.27094 20.551C5.45793 20.7767 4.69591 21.1263 3.98486 21.5999C3.3358 22.048 2.84343 22.6128 2.57699 23.3746C2.35429 24.1546 2.30653 25.0076 2.47021 25.8461C2.77932 27.5668 3.69001 29.0764 5.42496 29.5948C6.37991 29.8904 7.42609 29.9674 8.39929 30.2194C9.39073 30.4276 10.3822 30.6358 11.4174 30.8623C12.4708 31.045 13.517 31.122 14.5886 31.261C15.2119 31.367 15.8497 31.6844 16.3676 31.1816C16.9037 30.635 16.7255 29.585 16.7623 28.8815C16.821 27.8791 16.7303 26.8656 16.8511 25.8377C17.0706 24.0807 17.3703 22.2546 16.7622 20.5118C16.1542 18.7691 15.0176 17.0626 13.3412 16.1578C12.5029 15.7054 11.3803 15.4425 10.5015 15.9488C10.0931 16.1892 9.75399 16.5099 9.3456 16.7503C8.91898 17.0344 8.55433 17.2931 8.35363 17.7742C7.98147 18.5432 7.60556 19.5674 7.60154 20.4386C7.58678 20.8432 7.6595 21.2843 7.68848 21.7072C7.71746 22.1301 7.7027 22.5347 7.91763 22.8811C8.08882 23.2093 8.4642 23.4172 8.83609 23.2643C9.146 23.1368 9.39044 22.674 9.21925 22.3458C8.97883 21.9374 9.1103 21.3761 9.05583 20.8912C8.98687 20.195 9.18757 19.7139 9.39928 19.0833C9.54524 18.7334 9.58549 18.3908 9.88815 18.1576C10.1288 17.9499 10.3768 17.848 10.6174 17.6403C10.8399 17.4763 11.0551 17.2067 11.3467 17.123C11.6566 16.9955 12.0503 17.1597 12.3747 17.2437C13.7232 17.7036 14.6887 19.0819 15.224 20.3836C15.7775 21.6414 15.8097 23.0413 15.605 24.3936C15.488 25.1664 15.371 25.9391 15.316 26.6864C15.3048 27.4519 15.3372 28.2357 15.264 29.0267C15.2602 29.2819 15.147 29.7994 15.249 30.0474L15.2307 30.0911C15.2197 30.2406 15.2817 30.2151 15.5224 30.0074L15.198 29.9234C14.5492 29.7554 13.8894 29.7369 13.2041 29.6564C12.4313 29.5395 11.6148 29.4042 10.7983 29.269C9.98184 29.1338 9.20183 28.9111 8.40358 28.7321C7.13147 28.4581 5.4145 28.5121 4.52555 27.3197C3.81879 26.306 3.41496 24.443 4.12627 23.3534C4.43269 22.865 5.12549 22.4352 5.68333 22.2058C6.47085 21.9181 7.24012 21.6742 8.01637 22.1521C8.34801 22.3418 8.75264 22.3565 8.98608 22.0431C9.26325 21.748 9.27076 21.2376 8.93912 21.0479Z" fill="#8AC926"/>
</svg>
