<svg width="16" height="15" viewBox="0 0 16 15" fill="none" xmlns="http://www.w3.org/2000/svg">
<path d="M14.7307 1.39215C13.9025 0.493836 12.766 -0.000915527 11.5304 -0.000915527C10.6068 -0.000915527 9.76099 0.291077 9.01636 0.866882C8.64062 1.15753 8.30017 1.51312 8 1.92816C7.69995 1.51324 7.35938 1.15753 6.98352 0.866882C6.23901 0.291077 5.39319 -0.000915527 4.4696 -0.000915527C3.23401 -0.000915527 2.09741 0.493836 1.26917 1.39215C0.450806 2.27997 0 3.49286 0 4.80756C0 6.16071 0.504272 7.39935 1.58691 8.70575C2.55542 9.87433 3.94739 11.0606 5.55933 12.4343C6.10974 12.9034 6.73364 13.4351 7.38147 14.0015C7.55261 14.1514 7.77222 14.2339 8 14.2339C8.22766 14.2339 8.44739 14.1514 8.61829 14.0018C9.26611 13.4352 9.89038 12.9033 10.441 12.4339C12.0527 11.0605 13.4447 9.87433 14.4132 8.70563C15.4958 7.39935 16 6.16071 16 4.80743C16 3.49286 15.5492 2.27997 14.7307 1.39215Z" fill="white"/>
</svg>
