<svg width="232" height="60" viewBox="0 0 232 60" fill="none" xmlns="http://www.w3.org/2000/svg">
<g clip-path="url(#clip0_5_4601)">
<path d="M138.6 58.3C161.1 44.1 185.5 34.3 204.8 40.5" stroke="#827467" stroke-width="1.661" stroke-miterlimit="10" stroke-linecap="round" stroke-linejoin="round"/>
<path d="M216.9 48.8C208.7 46.7 200.9 39.4 200.9 39.4C200.9 39.4 211.3 36.8 219.5 38.9C227.7 41 231.3 44.3 230.6 47C229.8 49.8 225.1 50.9 216.9 48.8Z" fill="#26A69A" stroke="#827467" stroke-width="1.661" stroke-miterlimit="10" stroke-linecap="round" stroke-linejoin="round"/>
<path d="M195.8 53C190.1 48.2 186.7 39.5 186.7 39.5C186.7 39.5 195.9 41.4 201.5 46.1C207.2 50.9 208.7 54.8 207.2 56.7C205.6 58.6 201.5 57.7 195.8 53Z" fill="#AFB42B" stroke="#827467" stroke-width="1.661" stroke-miterlimit="10" stroke-linecap="round" stroke-linejoin="round"/>
<path d="M177.6 53.3C172.6 49.7 169.2 42.6 169.2 42.6C169.2 42.6 177 43.6 182 47.3C187 50.9 188.6 54.1 187.3 55.8C186.1 57.4 182.6 56.9 177.6 53.3Z" stroke="#827467" stroke-width="1.661" stroke-miterlimit="10" stroke-linecap="round" stroke-linejoin="round"/>
<path d="M163.7 56C159.9 53.1 157.4 47.5 157.4 47.5C157.4 47.5 163.4 48.4 167.3 51.4C171.1 54.3 172.3 56.8 171.3 58.1C170.3 59.4 167.5 58.9 163.7 56Z" fill="#26A69A" stroke="#827467" stroke-width="1.661" stroke-miterlimit="10" stroke-linecap="round" stroke-linejoin="round"/>
<path d="M164.4 40.3C162 44.5 156.8 47.7 156.8 47.7C156.8 47.7 156.9 41.6 159.3 37.4C161.7 33.2 164.1 31.7 165.4 32.5C166.9 33.3 166.8 36.1 164.4 40.3Z" fill="#AFB42B" stroke="#827467" stroke-width="1.661" stroke-miterlimit="10" stroke-linecap="round" stroke-linejoin="round"/>
<path d="M180.6 35.7C176.2 40.1 168.7 42.3 168.7 42.3C168.7 42.3 170.9 34.8 175.3 30.4C179.7 26 183.1 25 184.5 26.4C185.9 27.9 184.9 31.3 180.6 35.7Z" fill="#26A69A" stroke="#827467" stroke-width="1.661" stroke-miterlimit="10" stroke-linecap="round" stroke-linejoin="round"/>
<path d="M202.6 34.1C196.5 38.2 187.2 39.2 187.2 39.2C187.2 39.2 191.5 30.9 197.6 26.7C203.7 22.6 207.9 22.1 209.3 24.1C210.7 26.2 208.7 30 202.6 34.1Z" fill="#26A69A" stroke="#827467" stroke-width="1.661" stroke-miterlimit="10" stroke-linecap="round" stroke-linejoin="round"/>
<path d="M85.7 54.3C68.2 34.2 47.6 17.9 27.4 18.3" stroke="#827467" stroke-width="1.661" stroke-miterlimit="10" stroke-linecap="round" stroke-linejoin="round"/>
<path d="M13.4 22.8C21.9 23.1 31.5 18.4 31.5 18.4C31.5 18.4 22.3 12.9 13.8 12.6C5.3 12.3 1 14.4 0.8 17.2C0.7 20 4.9 22.5 13.4 22.8Z" fill="#AFB42B" stroke="#827467" stroke-width="1.661" stroke-miterlimit="10" stroke-linecap="round" stroke-linejoin="round"/>
<path d="M32.4 32.8C39.2 29.9 44.9 22.5 44.9 22.5C44.9 22.5 35.6 21.7 28.8 24.6C22 27.5 19.4 30.9 20.3 33.1C21.4 35.4 25.6 35.8 32.4 32.8Z" fill="#26A69A" stroke="#827467" stroke-width="1.661" stroke-miterlimit="10" stroke-linecap="round" stroke-linejoin="round"/>
<path d="M49.8 38.3C55.6 36.2 60.9 30.4 60.9 30.4C60.9 30.4 53.2 29.2 47.3 31.2C41.4 33.2 39 36 39.7 37.9C40.4 39.9 43.9 40.4 49.8 38.3Z" stroke="#827467" stroke-width="1.661" stroke-miterlimit="10" stroke-linecap="round" stroke-linejoin="round"/>
<path d="M62.3 44.9C66.8 43.2 70.8 38.6 70.8 38.6C70.8 38.6 64.7 37.8 60.2 39.5C55.7 41.2 53.8 43.3 54.4 44.8C55 46.3 57.8 46.6 62.3 44.9Z" fill="#26A69A" stroke="#827467" stroke-width="1.661" stroke-miterlimit="10" stroke-linecap="round" stroke-linejoin="round"/>
<path d="M66.1 29.7C67.2 34.4 71.3 39 71.3 39C71.3 39 72.9 33.1 71.8 28.4C70.7 23.7 68.9 21.6 67.3 22C65.7 22.3 65 25 66.1 29.7Z" fill="#26A69A" stroke="#827467" stroke-width="1.661" stroke-miterlimit="10" stroke-linecap="round" stroke-linejoin="round"/>
<path d="M52 20.6C54.9 26 61.5 30.3 61.5 30.3C61.5 30.3 61.5 22.5 58.6 17C55.7 11.6 52.7 9.6 50.9 10.5C49.1 11.4 49 15.2 52 20.6Z" fill="#AFB42B" stroke="#827467" stroke-width="1.661" stroke-miterlimit="10" stroke-linecap="round" stroke-linejoin="round"/>
<path d="M31.3 12.8C36 18.5 44.6 22.1 44.6 22.1C44.6 22.1 42.9 12.9 38.2 7.2C33.5 1.5 29.6 -0.2 27.7 1.4C25.8 2.9 26.6 7.1 31.3 12.8Z" stroke="#827467" stroke-width="1.661" stroke-miterlimit="10" stroke-linecap="round" stroke-linejoin="round"/>
<path d="M128 26.2C125.8 25.7 122.2 25.8 119.4 29.3C119.1 29.7 118.5 29.5 118.4 29C118 25.9 116.4 18.8 109.4 18C103.3 17.3 97.7 21.7 97 27.9C97 27.9 94.9 42.1 112.6 56.9C112.9 57.1 113.3 57 113.3 56.6C113.5 54.4 117 48.6 126.4 45C129.9 43.7 133.7 41 134.4 36.5C135.1 31.7 132.4 27.2 128 26.2Z" fill="#EF5350"/>
<path d="M128 26.2C125.8 25.7 122.2 25.8 119.4 29.3C119.1 29.7 118.5 29.5 118.4 29C118 25.9 116.4 18.8 109.4 18C103.3 17.3 97.7 21.7 97 27.9C97 27.9 94.9 42.1 112.6 56.9C112.9 57.1 113.3 57 113.3 56.6C113.5 54.4 117 48.6 126.4 45C129.9 43.7 133.7 41 134.4 36.5C135.1 31.7 132.4 27.2 128 26.2Z" stroke="#827467" stroke-width="1.661" stroke-miterlimit="10" stroke-linecap="round" stroke-linejoin="round"/>
</g>
<defs>
<clipPath id="clip0_5_4601">
<rect width="231.4" height="59.6" fill="white"/>
</clipPath>
</defs>
</svg>
