<svg width="20" height="21" viewBox="0 0 20 21" fill="none" xmlns="http://www.w3.org/2000/svg">
<path d="M14.5849 0.695435H5.43559C2.45787 0.695435 0.0354004 3.11791 0.0354004 6.09562V15.245C0.0354004 18.2226 2.45787 20.6451 5.43559 20.6451H14.585C17.5626 20.6451 19.985 18.2226 19.985 15.245V6.09562C19.985 3.11791 17.5626 0.695435 14.5849 0.695435V0.695435ZM10.0102 16.1251C7.00237 16.1251 4.55539 13.6781 4.55539 10.6703C4.55539 7.66241 7.00237 5.21543 10.0102 5.21543C13.0181 5.21543 15.465 7.66241 15.465 10.6703C15.465 13.6781 13.0181 16.1251 10.0102 16.1251ZM15.5955 6.50185C14.7066 6.50185 13.9837 5.77889 13.9837 4.89002C13.9837 4.00115 14.7066 3.27803 15.5955 3.27803C16.4844 3.27803 17.2075 4.00115 17.2075 4.89002C17.2075 5.77889 16.4844 6.50185 15.5955 6.50185Z" fill="white"/>
<path d="M10.0103 6.38501C7.64746 6.38501 5.72498 8.30734 5.72498 10.6703C5.72498 13.0331 7.64746 14.9556 10.0103 14.9556C12.3732 14.9556 14.2956 13.0331 14.2956 10.6703C14.2956 8.30734 12.3732 6.38501 10.0103 6.38501Z" fill="white"/>
<path d="M15.5954 4.44751C15.3516 4.44751 15.1531 4.64598 15.1531 4.88981C15.1531 5.13364 15.3516 5.33212 15.5954 5.33212C15.8394 5.33212 16.0379 5.1338 16.0379 4.88981C16.0379 4.64583 15.8394 4.44751 15.5954 4.44751Z" fill="white"/>
</svg>
