<svg width="31" height="25" viewBox="0 0 31 25" fill="none" xmlns="http://www.w3.org/2000/svg">
<path fill-rule="evenodd" clip-rule="evenodd" d="M13.3944 0.403855C13.9282 0.940024 13.9264 1.80746 13.3902 2.34132L4.68862 11.0054H28.7708L28.9567 11.0179C29.6254 11.1086 30.1408 11.6818 30.1408 12.3754C30.1408 13.132 29.5274 13.7454 28.7708 13.7454H4.69146L13.3903 22.4093L13.5232 22.5627C13.9223 23.0982 13.8796 23.8594 13.3943 24.3467C12.8604 24.8829 11.9929 24.8847 11.4568 24.3507L0.45469 13.3941C0.176011 13.1433 0.000778198 12.7798 0.000778198 12.3754C0.000778198 11.9866 0.162709 11.6357 0.422802 11.3863L11.4569 0.399683L11.6108 0.267366C12.148 -0.129426 12.909 -0.0835714 13.3944 0.403855Z" fill="white" fill-opacity="1"/>
</svg>
