<svg width="340" height="94" viewBox="0 0 340 94" fill="none" xmlns="http://www.w3.org/2000/svg">
<path d="M303.345 64.2868C303.345 64.2868 313.682 64.1523 331.778 50.5908" stroke="#827467" stroke-width="2.21113" stroke-miterlimit="10" stroke-linecap="round" stroke-linejoin="round"/>
<path d="M185.156 49.5391C185.156 49.5391 226.546 85.4284 261.738 75.2498C288.051 67.6742 322.089 65.5464 352.136 72.5808" stroke="#827467" stroke-width="2.21113" stroke-miterlimit="10" stroke-linecap="round" stroke-linejoin="round"/>
<path d="M283.424 64.4577C278.212 69.8663 269.011 71.8316 269.011 71.8316C269.011 71.8316 271.067 61.5749 276.279 56.1664C281.491 50.7578 285.607 49.8786 287.622 52.056C289.564 54.4024 288.636 59.0492 283.424 64.4577Z" fill="#AFB42B" stroke="#827467" stroke-width="2.21113" stroke-miterlimit="10" stroke-linecap="round" stroke-linejoin="round"/>
<path d="M292.987 75.8156C288.09 73.3919 283.241 67.6436 283.241 67.6436C283.241 67.6436 289.494 67.2179 294.39 69.6417C299.287 72.0655 301.581 74.7412 301.093 76.3516C300.771 78.0773 297.883 78.2394 292.987 75.8156Z" fill="#26A69A" stroke="#827467" stroke-width="2.21113" stroke-miterlimit="10" stroke-linecap="round" stroke-linejoin="round"/>
<path d="M254.267 87.6707C248.754 83.9515 243.901 76.5348 243.901 76.5348C243.901 76.5348 251.454 77.3007 256.921 80.8814C262.434 84.6006 264.641 87.8369 263.9 89.7731C263.276 91.6843 259.852 91.2264 254.267 87.6707Z" stroke="#827467" stroke-width="2.21113" stroke-miterlimit="10" stroke-linecap="round" stroke-linejoin="round"/>
<path d="M229.555 72.083C223.877 73.8078 215.93 71.3614 215.93 71.3614C215.93 71.3614 220.75 65.3176 226.428 63.5927C232.106 61.8678 235.784 62.9949 236.681 65.3738C237.53 67.6024 235.282 70.5085 229.555 72.083Z" fill="#AFB42B" stroke="#827467" stroke-width="2.21113" stroke-miterlimit="10" stroke-linecap="round" stroke-linejoin="round"/>
<path d="M319.894 74.699C314.657 70.5283 310.513 62.8943 310.513 62.8943C310.513 62.8943 317.974 64.3887 323.211 68.5595C328.447 72.7303 330.325 76.1482 329.431 77.954C328.445 79.4856 325.086 78.7327 319.894 74.699Z" stroke="#827467" stroke-width="2.21113" stroke-miterlimit="10" stroke-linecap="round" stroke-linejoin="round"/>
<path d="M306.908 59.9766C302.668 64.4133 294.99 65.9003 294.99 65.9003C294.99 65.9003 296.767 57.5379 301.007 53.1012C305.247 48.6645 308.76 47.914 310.318 49.8838C312.071 51.6585 311.148 55.5399 306.908 59.9766Z" fill="#26A69A" stroke="#827467" stroke-width="2.21113" stroke-miterlimit="10" stroke-linecap="round" stroke-linejoin="round"/>
<path d="M260.275 71.3725C260.275 71.3725 289.068 73.6321 306.426 90.5518" stroke="#827467" stroke-width="2.21113" stroke-miterlimit="10" stroke-linecap="round" stroke-linejoin="round"/>
<path d="M306.626 92.2611C304.359 91.8563 302.597 89.5705 302.45 87.2369C302.375 84.7403 304.117 83.1873 306.221 83.4789C308.487 83.8837 310.249 86.1695 310.396 88.5031C310.589 90.9748 308.892 92.6658 306.626 92.2611Z" fill="#EF5350" stroke="#827467" stroke-width="2.21113" stroke-miterlimit="10" stroke-linecap="round" stroke-linejoin="round"/>
<path d="M332.512 55.1428C330.245 54.7381 328.484 52.4525 328.337 50.1191C328.261 47.6227 330.003 46.0699 332.107 46.3615C334.21 46.6531 336.135 49.0519 336.282 51.3852C336.475 53.8567 334.778 55.5476 332.512 55.1428Z" fill="#EF5350" stroke="#827467" stroke-width="2.21113" stroke-miterlimit="10" stroke-linecap="round" stroke-linejoin="round"/>
<path d="M353.306 68.4522C351.039 68.0474 349.277 65.7616 349.13 63.428C349.054 60.9314 350.797 59.3784 352.901 59.6701C355.167 60.0749 356.929 62.3607 357.076 64.6943C357.269 67.1659 355.572 68.857 353.306 68.4522Z" fill="#EF5350" stroke="#827467" stroke-width="2.21113" stroke-miterlimit="10" stroke-linecap="round" stroke-linejoin="round"/>
<path d="M235.231 76.5331C235.231 76.5331 249.3 75.2264 267.703 49.5514" stroke="#827467" stroke-width="2.21113" stroke-miterlimit="10" stroke-linecap="round" stroke-linejoin="round"/>
<path d="M270.008 54.0144C267.879 54.0238 265.811 51.9506 265.384 49.5285C264.956 47.1065 266.445 45.164 268.574 45.1546C270.703 45.1452 272.771 47.2184 273.198 49.6405C273.626 52.0625 272.3 54.1182 270.008 54.0144Z" fill="#EF5350" stroke="#827467" stroke-width="2.21113" stroke-miterlimit="10" stroke-linecap="round" stroke-linejoin="round"/>
<path d="M60.912 73.975C60.912 73.975 51.0222 72.7684 30.3623 58.7801" stroke="#827467" stroke-width="2.21113" stroke-miterlimit="10" stroke-linecap="round" stroke-linejoin="round"/>
<path d="M176.798 63.9246C176.798 63.9246 143.377 96.4436 104.724 81.3742C75.9018 70.2858 40.4727 63.8737 11.3603 67.4315" stroke="#827467" stroke-width="2.21113" stroke-miterlimit="10" stroke-linecap="round" stroke-linejoin="round"/>
<path d="M80.7031 70.0829C86.9169 75.881 96.3246 78.6654 96.3246 78.6654C96.3246 78.6654 91.7784 68.5802 85.5646 62.7821C79.3508 56.984 74.9568 55.5981 73.6535 57.6241C72.395 59.786 74.4893 64.2848 80.7031 70.0829Z" fill="#AFB42B" stroke="#827467" stroke-width="2.21113" stroke-miterlimit="10" stroke-linecap="round" stroke-linejoin="round"/>
<path d="M71.9348 83.1322C76.4705 81.1826 79.9289 75.4773 79.9289 75.4773C79.9289 75.4773 73.1752 74.2397 68.6876 76.3384C64.1519 78.2879 62.4743 80.8899 63.4699 82.7477C64.3417 84.6326 67.4472 85.2309 71.9348 83.1322Z" fill="#26A69A" stroke="#827467" stroke-width="2.21113" stroke-miterlimit="10" stroke-linecap="round" stroke-linejoin="round"/>
<path d="M111.424 92.5817C116.286 89.3253 119.395 81.888 119.395 81.888C119.395 81.888 111.569 81.6974 106.707 84.9537C101.844 88.21 100.416 91.508 101.624 93.6053C103.126 95.7963 106.561 95.838 111.424 92.5817Z" stroke="#827467" stroke-width="2.21113" stroke-miterlimit="10" stroke-linecap="round" stroke-linejoin="round"/>
<path d="M135.022 74.4852C141.057 76.7019 148.354 75.2925 148.354 75.2925C148.354 75.2925 142.09 68.8537 136.055 66.637C130.02 64.4203 126.711 64.9762 126.403 67.1778C126.215 69.3536 128.987 72.2685 135.022 74.4852Z" fill="#AFB42B" stroke="#827467" stroke-width="2.21113" stroke-miterlimit="10" stroke-linecap="round" stroke-linejoin="round"/>
<path d="M45.2797 83.9443C49.7986 80.1762 52.0854 72.3868 52.0854 72.3868C52.0854 72.3868 44.4728 73.0956 40.076 76.8374C35.5572 80.6055 34.4782 84.0982 35.9233 86.1156C37.3684 88.1329 40.7608 87.7125 45.2797 83.9443Z" stroke="#827467" stroke-width="2.21113" stroke-miterlimit="10" stroke-linecap="round" stroke-linejoin="round"/>
<path d="M56.9377 67.2396C62.0676 71.9667 69.8398 74.2336 69.8398 74.2336C69.8398 74.2336 66.1432 65.9942 60.8982 61.2918C55.7683 56.5646 52.1924 55.4375 51.1431 57.1192C49.9339 58.6896 51.6927 62.5371 56.9377 67.2396Z" fill="#26A69A" stroke="#827467" stroke-width="2.21113" stroke-miterlimit="10" stroke-linecap="round" stroke-linejoin="round"/>
<path d="M103.356 79.6576C103.356 79.6576 73.3164 78.4312 59.4144 95.9456" stroke="#827467" stroke-width="2.21113" stroke-miterlimit="10" stroke-linecap="round" stroke-linejoin="round"/>
<path d="M59.5445 100.36C61.6317 100.21 62.9621 98.153 62.4205 95.7566C61.8789 93.3602 59.7393 91.4525 57.6521 91.6024C55.5649 91.7522 54.2344 93.8093 54.776 96.2057C55.2002 98.6272 57.4572 100.51 59.5445 100.36Z" fill="#EF5350" stroke="#827467" stroke-width="2.21113" stroke-miterlimit="10" stroke-linecap="round" stroke-linejoin="round"/>
<path d="M31.3074 64.9274C33.3946 64.7775 34.725 62.7205 34.1834 60.3241C33.6418 57.9277 31.5022 56.02 29.415 56.1699C27.3278 56.3197 25.9973 58.3768 26.5389 60.7732C26.9631 63.1947 29.2202 65.0773 31.3074 64.9274Z" fill="#EF5350" stroke="#827467" stroke-width="2.21113" stroke-miterlimit="10" stroke-linecap="round" stroke-linejoin="round"/>
<path d="M11.4052 79.6316C13.4924 79.4818 14.8228 77.4247 14.2812 75.0283C13.7396 72.6319 11.6 70.7242 9.51279 70.8741C7.42555 71.0239 6.09512 73.081 6.63672 75.4774C7.06092 77.8989 9.31794 79.7815 11.4052 79.6316Z" fill="#EF5350" stroke="#827467" stroke-width="2.21113" stroke-miterlimit="10" stroke-linecap="round" stroke-linejoin="round"/>
<path d="M130.662 82.1231C130.662 82.1231 116.79 79.364 93.1767 53.1488" stroke="#827467" stroke-width="2.21113" stroke-miterlimit="10" stroke-linecap="round" stroke-linejoin="round"/>
<path d="M93.6532 59.7618C95.8769 60.0259 97.4157 58.2202 97.2264 55.7492C97.037 53.2781 95.087 51.1827 92.8633 50.9186C90.6396 50.6545 89.1008 52.4602 89.2901 54.9312C89.4794 57.4023 91.4294 59.4977 93.6532 59.7618Z" fill="#EF5350" stroke="#827467" stroke-width="2.21113" stroke-miterlimit="10" stroke-linecap="round" stroke-linejoin="round"/>
<path d="M167.435 42.9808C173.063 48.7477 175.28 61.4199 175.28 61.4199C175.28 61.4199 164.12 60.6374 158.539 55.0082C152.911 49.2413 159.953 50.8782 162.064 48.0793C164.175 45.2803 161.854 37.3516 167.435 42.9808Z" fill="#EF5350" stroke="#827467" stroke-width="2.21113" stroke-miterlimit="10" stroke-linecap="round" stroke-linejoin="round"/>
<path d="M167.435 42.9808C173.063 48.7477 175.28 61.4199 175.28 61.4199C175.28 61.4199 164.12 60.6374 158.539 55.0082C152.911 49.2413 159.953 50.8782 162.064 48.0793C164.175 45.2803 161.854 37.3516 167.435 42.9808Z" fill="#FF7043" stroke="#827467" stroke-width="2.21113" stroke-miterlimit="10" stroke-linecap="round" stroke-linejoin="round"/>
<path d="M158.199 58.2256C164.934 57.7422 175.22 66.1841 175.22 66.1841C175.22 66.1841 169.48 75.8184 162.746 76.3018C156.011 76.7852 160.405 71.6538 159.311 67.3523C158.266 63.1917 151.465 58.7089 158.199 58.2256Z" fill="#EF5350" stroke="#827467" stroke-width="2.21113" stroke-miterlimit="10" stroke-linecap="round" stroke-linejoin="round"/>
<path d="M158.199 58.2256C164.934 57.7422 175.22 66.1841 175.22 66.1841C175.22 66.1841 169.48 75.8184 162.746 76.3018C156.011 76.7852 160.405 71.6538 159.311 67.3523C158.266 63.1917 151.465 58.7089 158.199 58.2256Z" stroke="#827467" stroke-width="2.21113" stroke-miterlimit="10" stroke-linecap="round" stroke-linejoin="round"/>
<path d="M165.272 76.7455C167.932 70.383 178.481 67.9053 178.481 67.9053C178.481 67.9053 182.57 80.6238 179.909 86.9864C177.248 93.3489 175.631 85.3364 172.205 82.9144C168.662 80.5163 162.495 83.132 165.272 76.7455Z" fill="#EF5350" stroke="#827467" stroke-width="2.21113" stroke-miterlimit="10" stroke-linecap="round" stroke-linejoin="round"/>
<path d="M165.272 76.7455C167.932 70.383 178.481 67.9053 178.481 67.9053C178.481 67.9053 182.57 80.6238 179.909 86.9864C177.248 93.3489 175.631 85.3364 172.205 82.9144C168.662 80.5163 162.495 83.132 165.272 76.7455Z" fill="#FF7043" stroke="#827467" stroke-width="2.21113" stroke-miterlimit="10" stroke-linecap="round" stroke-linejoin="round"/>
<path d="M184.485 84.0688C181.238 76.644 184.386 65.3869 184.386 65.3869C184.386 65.3869 195.12 71.8448 198.368 79.2696C201.615 86.6944 195.209 81.8405 192.04 82.9407C188.757 84.0646 187.732 91.4936 184.485 84.0688Z" fill="#EF5350" stroke="#827467" stroke-width="2.21113" stroke-miterlimit="10" stroke-linecap="round" stroke-linejoin="round"/>
<path d="M184.485 84.0688C181.238 76.644 184.386 65.3869 184.386 65.3869C184.386 65.3869 195.12 71.8448 198.368 79.2696C201.615 86.6944 195.209 81.8405 192.04 82.9407C188.757 84.0646 187.732 91.4936 184.485 84.0688Z" stroke="#827467" stroke-width="2.21113" stroke-miterlimit="10" stroke-linecap="round" stroke-linejoin="round"/>
<path d="M200.467 74.9126C193.534 71.8285 186.923 59.8006 186.923 59.8006C186.923 59.8006 196.623 55.242 203.439 58.3502C210.372 61.4344 203.739 63.2539 203.07 67.1535C202.401 71.0531 207.331 78.1614 200.467 74.9126Z" fill="#EF5350" stroke="#827467" stroke-width="2.21113" stroke-miterlimit="10" stroke-linecap="round" stroke-linejoin="round"/>
<path d="M200.467 74.9126C193.534 71.8285 186.923 59.8006 186.923 59.8006C186.923 59.8006 196.623 55.242 203.439 58.3502C210.372 61.4344 203.739 63.2539 203.07 67.1535C202.401 71.0531 207.331 78.1614 200.467 74.9126Z" stroke="#827467" stroke-width="2.21113" stroke-miterlimit="10" stroke-linecap="round" stroke-linejoin="round"/>
<path d="M202.518 56.5975C197.119 60.2792 185.569 56.6177 185.569 56.6177C185.569 56.6177 186.708 44.1448 192.106 40.4631C197.505 36.7813 195.734 44.0964 198.141 47.8306C200.595 51.7059 207.916 52.9157 202.518 56.5975Z" fill="#EF5350" stroke="#827467" stroke-width="2.21113" stroke-miterlimit="10" stroke-linecap="round" stroke-linejoin="round"/>
<path d="M202.518 56.5975C197.119 60.2792 185.569 56.6177 185.569 56.6177C185.569 56.6177 186.708 44.1448 192.106 40.4631C197.505 36.7813 195.734 44.0964 198.141 47.8306C200.595 51.7059 207.916 52.9157 202.518 56.5975Z" fill="#FF7043" stroke="#827467" stroke-width="2.21113" stroke-miterlimit="10" stroke-linecap="round" stroke-linejoin="round"/>
<path d="M188.152 41.6997C188.291 49.3196 180.603 56.5081 180.603 56.5081C180.603 56.5081 172.596 45.8172 172.456 38.1972C172.317 30.5773 176.583 37.7803 180.284 38.6287C183.985 39.4771 188.012 34.0797 188.152 41.6997Z" fill="#EF5350" stroke="#827467" stroke-width="2.21113" stroke-miterlimit="10" stroke-linecap="round" stroke-linejoin="round"/>
<path d="M188.152 41.6997C188.291 49.3196 180.603 56.5081 180.603 56.5081C180.603 56.5081 172.596 45.8172 172.456 38.1972C172.317 30.5773 176.583 37.7803 180.284 38.6287C183.985 39.4771 188.012 34.0797 188.152 41.6997Z" stroke="#827467" stroke-width="2.21113" stroke-miterlimit="10" stroke-linecap="round" stroke-linejoin="round"/>
<path d="M188.917 63.6997C188.914 69.1435 184.746 72.6954 179.739 71.7216C174.733 70.7479 170.606 65.4644 170.609 60.0206C170.613 54.5769 174.781 51.025 179.787 51.9987C184.912 52.9467 188.921 58.2559 188.917 63.6997Z" fill="#FFCA28" stroke="#827467" stroke-width="2.21113" stroke-miterlimit="10" stroke-linecap="round" stroke-linejoin="round"/>
<path d="M183.999 65.1018C183.972 66.6091 181.939 68.7021 179.039 68.1305C176.26 67.5328 173.884 64.5955 173.911 63.0882C173.938 61.581 176.14 60.8025 178.919 61.4003C181.652 61.8578 184.026 63.5946 183.999 65.1018Z" fill="#827467"/>
<path d="M177.655 57.8137C177.79 57.0303 179.349 56.239 181.365 56.8565C183.382 57.4739 185.037 59.3765 185.023 60.1335C184.889 60.9169 183.268 61.1184 181.206 60.36C179.189 59.7426 177.521 58.5971 177.655 57.8137Z" fill="#827467"/>
</svg>
