<svg width="275" height="265" viewBox="0 0 275 265" fill="none" xmlns="http://www.w3.org/2000/svg">
<g opacity="0.06">
<path d="M295 249.935C275.151 254.729 262.146 257.468 253.933 258.152C252.564 258.152 247.773 258.152 243.666 258.152C225.87 257.468 225.186 257.468 210.812 258.152C204.652 258.152 199.861 258.837 182.749 260.207C172.483 260.891 160.847 261.576 154.687 261.576C151.949 261.576 149.211 261.576 149.211 261.576C149.211 261.576 135.522 260.891 131.415 260.207C115.673 258.837 93.7703 252.674 80.0812 246.512C75.9745 245.142 73.2367 243.773 72.5522 243.773C72.5522 243.773 69.8144 242.403 66.3921 241.034C63.6543 239.664 60.9165 238.295 60.232 238.295C59.5476 238.295 58.1787 236.925 55.4408 236.24C52.703 235.556 51.3341 232.817 49.9652 232.132C49.2807 231.447 47.9118 231.447 47.9118 231.447C47.9118 231.447 45.8585 230.078 43.1207 228.708C40.3828 227.339 38.3295 225.969 38.3295 225.969C38.3295 225.969 36.2761 224.599 34.2227 223.23C27.3782 218.437 20.5336 210.904 15.7425 204.742C15.058 204.057 13.6891 202.003 13.0046 201.318C11.6357 199.264 10.2668 197.894 6.16009 191.731C4.10673 188.307 4.10673 187.623 6.16009 189.677C6.84455 190.362 9.58237 192.416 13.0046 193.786C15.7425 195.155 19.8492 197.894 21.9026 198.579C23.9559 199.948 26.6937 201.318 28.0626 202.003C29.4316 202.687 30.8005 204.057 30.8005 204.057C30.8005 204.057 31.4849 204.742 31.4849 204.057H32.1694C32.1694 204.057 35.5916 206.796 39.6984 208.85C43.8051 210.904 47.9118 213.643 48.5963 214.328C51.3341 215.698 56.1253 218.437 60.9165 221.176C62.9698 222.545 66.3921 223.915 67.0766 224.599C68.4455 225.284 69.8144 225.969 70.4988 225.969C71.1833 225.969 73.9211 227.338 75.9745 228.023C78.7123 229.393 81.4501 230.077 82.1346 230.762C84.8724 232.132 95.1392 234.871 99.9304 235.556C106.09 236.925 106.09 236.925 110.882 236.925C113.619 236.925 116.357 237.61 117.726 237.61C119.095 237.61 124.571 238.295 130.731 238.979C136.891 239.664 142.367 239.664 143.051 240.349C143.736 240.349 146.473 240.349 149.896 240.349C152.633 240.349 158.109 241.034 162.216 241.034C166.323 241.034 169.745 241.034 169.745 241.034H170.429C171.114 241.034 185.487 241.718 193.016 242.403C195.07 242.403 197.123 242.403 197.807 242.403C198.492 242.403 200.545 242.403 202.599 242.403C206.021 242.403 208.759 242.403 212.181 242.403C212.865 242.403 214.234 242.403 215.603 242.403C216.288 242.403 219.71 242.403 223.132 242.403C227.923 242.403 237.506 243.088 239.559 243.088C240.244 243.088 241.613 243.088 242.981 243.088C244.35 243.088 247.773 243.773 249.826 243.773C253.933 244.457 255.302 244.457 257.355 244.457C258.039 244.457 260.777 245.142 264.2 245.142C270.36 245.827 277.889 246.512 278.573 245.827H279.258C279.942 246.512 285.418 246.512 292.262 245.142C292.947 245.142 292.947 245.142 293.631 245.142V241.034C272.413 238.979 262.146 234.186 250.51 223.23C241.613 215.013 225.186 198.579 223.132 195.84C222.448 195.155 220.394 193.101 218.341 190.362C216.288 188.307 214.234 185.568 213.55 184.884C212.865 184.199 210.812 181.46 208.759 179.406C194.385 162.287 182.065 142.429 177.958 125.995C171.114 102.028 170.429 84.2248 176.589 71.2145C177.958 67.7907 183.434 60.2584 184.118 59.5736C184.118 59.5736 186.172 56.8346 188.91 54.0956C193.701 48.6176 195.07 45.8786 198.492 39.7158C199.176 37.6615 200.545 34.9225 200.545 32.8682C201.23 30.1292 201.23 29.4444 201.23 31.4987C203.283 38.3462 202.599 47.9328 199.861 62.3127C193.701 95.1809 193.701 99.9741 198.492 118.463C201.914 130.103 201.23 130.103 212.181 154.755C214.234 160.233 222.448 173.928 225.186 177.351C226.555 178.721 227.923 181.46 229.292 182.829C230.661 184.199 231.346 186.253 232.03 186.253C232.03 186.253 233.399 188.307 235.452 190.362C249.142 208.85 269.675 223.915 294.316 234.186V230.762H293.631C287.471 228.023 277.204 222.545 273.097 220.491C268.991 217.752 261.462 212.959 260.777 212.274C260.777 212.274 259.408 210.904 258.039 209.535C241.613 195.84 222.448 170.504 214.234 151.331C205.336 130.788 204.652 128.734 202.599 119.832C199.176 109.561 198.492 102.713 199.861 91.0723C200.545 84.2248 201.23 81.4858 202.599 72.584C205.336 60.9431 207.39 42.4548 206.021 41.0853C206.021 40.4005 206.021 39.7158 206.021 39.031C206.021 38.3462 207.39 39.031 214.919 47.2481C236.137 69.845 252.564 89.0181 263.515 103.398C264.2 104.083 265.568 106.137 266.937 108.191C275.151 119.147 286.102 137.636 289.524 145.853C291.578 151.331 292.947 155.439 294.316 159.548V149.961V149.276C293.631 147.222 292.262 144.483 292.262 143.798C291.578 142.429 289.524 137.636 286.787 132.842C280.626 120.517 276.52 115.724 260.777 95.1809C256.671 89.7028 248.457 80.1163 242.981 73.9535C239.559 69.845 235.452 65.0517 234.084 63.6822C232.715 61.6279 225.87 54.0956 219.026 46.5633C212.181 39.031 206.705 32.8682 206.705 32.8682C206.705 32.8682 214.234 36.292 222.448 41.0853C227.923 44.509 232.03 46.5633 242.981 54.7804C251.879 61.6279 273.782 82.1705 282.68 93.1266C287.471 98.6046 289.524 101.344 290.893 103.398C291.578 104.767 293.631 106.822 294.316 108.191C294.316 108.191 294.316 108.191 294.316 108.876V97.9199C292.947 94.4961 291.578 90.3876 289.524 85.5943C286.787 77.3773 283.364 62.9974 281.995 55.4651C280.626 45.1938 282.68 35.6072 288.155 24.6512C289.524 22.5969 290.209 19.8579 290.893 18.4884C291.578 17.8036 291.578 16.4341 292.262 16.4341C292.262 16.4341 292.947 15.0646 293.631 13.6951C293.631 13.6951 294.316 13.0103 294.316 12.3256V7.5323C292.262 10.9561 290.209 14.3798 290.209 14.3798C290.209 14.3798 289.524 16.4341 288.155 17.8036C286.787 20.5426 286.102 21.9121 283.364 28.0749L282.68 30.1292L279.258 26.7054C275.151 21.9121 273.782 20.5426 268.306 16.4341C264.2 13.0103 253.248 6.16279 250.51 4.79328C249.826 4.10853 247.088 3.42377 245.719 2.05426C244.35 0.684755 242.297 0 241.613 0C240.244 0 240.244 0 238.19 4.10853C236.137 7.5323 235.452 9.58656 231.346 15.7494C229.292 19.1731 227.239 28.0749 227.239 31.4987C227.239 32.8682 227.923 36.292 227.923 38.3462L228.608 42.4548L226.555 41.0853C225.186 40.4005 223.132 39.031 222.448 38.3462C215.603 34.9225 213.55 33.553 213.55 33.553C213.55 33.553 212.181 32.8682 211.497 32.1835C210.128 31.4987 209.443 30.814 208.759 30.814L208.074 30.1292C208.074 30.1292 206.021 28.7597 203.283 27.3902C198.492 24.6512 197.123 25.3359 198.492 29.4444C200.545 36.292 197.123 43.8243 184.803 58.2041C174.536 70.5297 171.798 76.6925 170.429 88.3333L169.745 93.8114L168.376 91.0723C167.691 89.7028 165.638 86.2791 162.9 82.8553C160.847 79.4315 156.056 71.8992 152.633 66.4212C145.789 54.0956 145.104 53.4109 141.682 55.4651C140.313 56.1499 136.206 60.9431 133.469 64.3669C132.784 65.0517 130.731 67.7907 129.362 69.845C123.202 77.3773 119.78 84.2248 118.411 91.0723C117.726 96.5504 117.726 104.767 119.095 107.506C119.78 108.876 119.78 109.561 119.78 109.561C119.78 109.561 117.042 109.561 114.304 109.561C106.09 108.876 105.406 108.876 95.8237 108.191C88.9791 108.191 73.9211 108.876 72.5522 109.561C72.5522 109.561 71.8678 109.561 71.1833 109.561C70.4988 109.561 54.7564 115.039 47.9118 117.778C35.5916 123.256 20.5336 131.473 16.4269 134.897C15.7425 135.581 13.6891 136.951 11.6357 137.636C6.84455 140.375 6.84455 141.059 7.529 142.429C9.58237 145.853 20.5336 156.809 27.3782 161.602C32.1694 165.711 44.4896 173.243 47.9118 175.982C53.3875 178.036 53.3875 178.036 47.9118 178.721C46.5429 178.721 40.3828 180.09 34.9072 180.775C19.8492 183.514 18.4803 183.514 8.89791 184.199C0.684454 184.884 0 184.884 0 186.253C0 186.938 2.73782 192.416 5.47564 195.155C5.47564 195.84 6.84455 197.209 8.21346 198.579C15.7425 208.85 25.3248 219.121 34.9072 225.969C44.4896 232.817 73.9211 248.566 82.819 251.305C83.5035 251.305 84.8724 251.99 86.2413 252.674C87.6102 253.359 91.0325 254.044 94.4548 255.413C124.571 264.315 149.896 266.369 190.278 262.261C204.652 260.891 214.919 260.207 225.87 260.207C234.084 260.207 234.084 260.207 240.244 260.891C251.879 261.576 258.724 260.891 273.097 257.468C278.573 256.098 288.155 254.044 293.631 252.674V249.935H295ZM271.044 21.2274C278.573 27.3902 281.995 32.8682 281.311 36.292C278.573 45.8786 279.258 53.4109 281.995 67.1059C283.364 72.584 286.102 82.1705 287.471 86.9638C287.471 87.6486 286.102 84.9096 284.049 80.801C277.889 68.4754 272.413 58.8889 272.413 57.5194C272.413 56.8346 271.729 54.7804 270.36 52.7261C269.675 50.6718 268.306 47.9328 268.306 45.8785C266.937 44.509 266.937 42.4548 266.253 41.77C266.253 41.0853 265.568 39.7158 265.568 39.031C264.884 32.8682 258.039 20.5426 249.826 10.9561C247.773 8.21705 245.719 5.47804 245.719 5.47804C246.404 4.10853 265.568 16.4341 271.044 21.2274ZM232.715 19.8579C233.399 18.4884 238.875 8.21705 239.559 7.5323C239.559 6.84754 240.244 6.16279 240.928 5.47804C241.613 4.10853 241.613 4.10853 242.297 5.47804C242.981 6.16279 245.035 8.90181 247.088 11.6408C255.302 21.9121 259.408 28.0749 261.462 35.6072C262.146 36.9767 262.831 39.031 262.831 39.031C262.831 39.031 263.515 41.0853 263.515 42.4548C264.884 49.9871 269.675 60.9431 282.68 84.9096C285.418 90.3876 288.155 95.8656 288.155 95.8656C288.155 95.8656 287.471 95.8656 287.471 95.1809C287.471 94.4961 284.733 91.7571 282.68 89.7028C266.253 71.8992 250.51 57.5194 236.821 47.9328L232.715 44.509L231.346 40.4005C229.977 32.8682 229.977 29.4444 232.715 19.8579ZM145.789 65.7364C146.473 59.5736 146.473 58.8889 147.158 60.9431C148.527 65.0517 157.425 79.4315 162.9 86.9638C163.585 87.6486 164.954 91.0723 166.323 93.8114C168.376 98.6046 169.06 102.028 170.429 112.3C171.114 114.354 171.798 119.147 172.483 121.886L173.852 127.364L171.114 123.256C167.007 118.463 167.007 118.463 162.9 112.984C147.842 94.4961 144.42 84.9096 145.789 65.7364ZM124.571 84.2248C125.94 80.801 132.1 71.2145 133.469 70.5297C133.469 70.5297 134.153 69.1602 135.522 68.4754C137.575 65.7364 141.682 60.9431 142.367 60.2584C142.367 60.2584 143.051 59.5736 143.736 58.8889C144.42 58.2041 144.42 58.8889 144.42 63.6822C143.736 73.2687 143.736 79.4315 145.104 86.2791C146.473 93.1266 154.002 105.452 161.531 114.354C162.9 116.408 164.954 118.463 165.638 119.832C166.323 121.202 167.691 122.571 168.376 123.256C170.429 125.31 170.429 125.995 167.691 123.941C164.954 121.886 161.531 120.517 156.74 118.463C155.371 117.778 152.633 117.093 151.949 116.408C150.58 115.724 146.473 114.354 142.367 113.669C135.522 111.615 132.784 110.93 126.624 110.245C124.571 110.245 124.571 109.561 123.202 106.822C120.464 101.344 121.148 91.0723 124.571 84.2248ZM21.9026 134.212C51.3341 117.093 68.4455 110.93 93.0859 110.93C98.5615 110.93 127.993 112.984 129.362 113.669C129.362 113.669 132.784 114.354 136.206 115.039C141.682 116.408 144.42 117.093 149.211 118.463C149.896 118.463 152.633 119.832 155.371 121.202C158.109 122.571 160.162 123.256 160.162 123.256H160.847C160.847 123.256 162.216 124.625 163.585 125.31C167.007 127.364 168.376 128.734 171.114 132.842C173.167 136.266 176.589 139.005 178.643 139.69C180.012 139.69 180.012 140.375 181.381 143.798C184.803 152.7 196.439 170.504 206.705 182.829C211.497 188.992 212.865 190.362 209.443 186.938C208.074 185.568 203.968 182.145 199.176 178.036C195.07 174.612 188.91 169.134 186.172 166.395C171.114 152.7 165.638 148.592 152.633 143.798C139.629 139.005 121.148 133.527 106.09 131.473C80.0812 127.364 45.174 128.734 24.6404 135.581C21.9026 136.266 19.1647 136.951 18.4803 136.951C18.4803 136.266 19.8492 135.581 21.9026 134.212ZM14.3735 139.69C15.058 140.375 19.1647 139.69 26.6937 136.951C39.6984 132.842 58.1787 130.788 85.5568 131.473C91.7169 131.473 110.882 134.212 117.726 135.581C130.046 138.32 143.051 142.429 149.896 145.168C164.269 150.646 167.691 153.385 188.225 171.189C190.278 173.243 193.016 175.982 204.652 185.568C206.705 186.938 208.074 188.992 208.759 188.992C210.128 189.677 231.346 209.535 231.346 209.535C231.346 209.535 220.394 204.742 213.55 200.633C208.759 197.894 204.652 196.525 204.652 196.525C204.652 196.525 203.968 196.525 203.968 195.84C202.599 193.786 181.381 187.623 161.531 183.514C160.847 183.514 147.158 179.406 131.415 175.297C114.988 170.504 95.1392 165.711 86.2413 163.656C66.3921 159.548 52.703 155.439 43.8051 152.016C34.2227 149.276 34.2227 149.276 31.4849 147.907C30.116 147.222 26.0093 145.168 21.2181 143.114C17.1114 141.744 13.6891 139.69 13.6891 139.69C14.3736 139.69 14.3735 139.69 14.3735 139.69ZM16.4269 147.222C14.3736 145.168 13.0046 143.114 12.3202 143.114C12.3202 142.429 17.1114 144.483 28.0626 149.961C46.5429 158.863 59.5476 162.972 86.9258 168.45C95.8237 170.504 116.357 175.982 132.1 180.09C147.842 184.199 161.531 188.307 162.9 188.307C178.643 191.731 192.332 195.155 203.283 199.948C204.652 200.633 209.443 203.372 210.128 203.372C210.812 204.057 222.448 209.535 230.661 213.643C232.715 215.013 234.768 215.698 234.768 215.698C234.768 215.698 232.03 215.698 227.923 215.698C223.817 215.698 220.394 215.013 219.71 215.013C219.026 215.013 217.657 215.013 217.657 215.013C214.919 215.013 187.541 214.328 185.487 213.643C184.803 213.643 184.118 213.643 182.749 213.643C177.274 213.643 173.167 212.959 169.06 212.274C167.691 212.274 164.269 212.274 162.216 211.589C140.998 208.85 109.513 200.633 93.7703 194.47C92.4014 193.786 91.0325 193.101 90.348 193.101C88.9791 192.416 81.4501 188.992 73.2367 185.568C52.703 175.982 30.116 160.917 16.4269 147.222ZM16.4269 186.938C23.9559 186.253 30.8005 184.884 53.3875 180.775C56.1253 180.09 57.4942 180.775 58.8631 181.46C65.0232 184.884 67.761 186.253 67.761 186.253C67.761 186.253 68.4455 186.938 69.1299 186.938C71.1833 188.307 87.6102 195.155 91.7169 196.525C93.0858 197.209 95.1392 197.894 97.1926 198.579C102.668 200.633 108.828 202.687 117.726 205.426C125.94 207.481 129.362 208.165 140.313 210.904C143.736 211.589 146.473 212.274 147.158 212.274C151.265 212.959 158.794 214.328 166.323 215.013C169.06 215.013 171.798 215.698 171.798 215.698C173.852 216.382 185.487 217.067 186.172 217.067C186.172 217.067 186.856 217.067 187.541 217.067C188.225 217.752 193.701 217.752 194.385 217.752C194.385 217.752 196.439 217.752 197.807 217.752C201.914 217.752 212.181 218.437 213.55 218.437C215.603 218.437 221.079 218.437 229.977 219.121C238.19 219.806 238.875 219.806 243.666 223.915C247.088 226.654 251.879 230.762 255.302 233.501C262.146 238.979 271.729 243.088 281.311 245.142C283.364 245.827 285.418 245.827 285.418 245.827C284.733 246.512 264.2 244.457 256.671 243.773C248.457 242.403 231.346 241.034 223.132 241.034C213.55 241.034 181.381 239.664 169.06 238.979C166.323 238.979 163.585 238.979 162.9 238.979C162.216 238.979 158.794 238.979 154.687 238.295C151.265 238.295 147.842 237.61 147.158 237.61C147.158 237.61 145.104 237.61 143.051 237.61C140.998 237.61 139.629 237.61 139.629 237.61C139.629 237.61 135.522 237.61 130.731 236.925C119.095 235.556 117.726 235.556 116.357 235.556C115.673 235.556 112.251 234.871 108.828 234.871C99.9304 233.501 94.4548 232.817 88.9791 230.762C83.5035 229.393 72.5522 224.599 69.8144 223.23C65.7077 221.176 60.9165 218.437 60.232 218.437C60.232 218.437 59.5476 218.437 59.5476 217.752C59.5476 217.067 54.7564 215.013 49.9652 212.274C49.9652 211.589 47.9118 210.904 47.9118 210.904C47.2274 210.904 45.8585 209.535 44.4896 208.85C43.1207 208.165 41.0673 206.796 39.6984 206.111C38.3295 205.426 36.2761 204.057 34.9072 203.372C33.5383 202.687 32.1694 201.318 31.4849 201.318C30.8005 201.318 30.8005 201.318 30.8005 201.318C30.8005 201.318 30.116 200.633 28.7471 199.948C27.3782 199.264 25.3248 197.894 24.6404 197.894C21.2181 195.84 16.4269 193.101 14.3735 191.731C13.0046 191.046 10.9513 189.677 9.58237 188.992C8.21346 188.307 7.529 187.623 7.529 187.623C8.21346 187.623 11.6357 186.938 16.4269 186.938Z" fill="#8AC926"/>
</g>
</svg>
