<svg width="62" height="55" viewBox="0 0 62 55" fill="none" xmlns="http://www.w3.org/2000/svg">
<path d="M30.91 8.95348C30.4287 8.95347 29.9766 8.72248 29.6945 8.33246C28.6126 6.83636 27.3951 5.56808 26.065 4.53955L26.0649 4.53949C23.4456 2.51373 20.499 1.5 17.2694 1.5C12.9091 1.5 8.91922 3.24023 6.00667 6.3991L30.91 8.95348ZM30.91 8.95348C31.3913 8.95349 31.8434 8.72253 32.1255 8.33252M30.91 8.95348L32.1255 8.33252M32.1255 8.33252C33.2078 6.83594 34.425 5.56812 35.7546 4.53957C38.3744 2.51372 41.3211 1.5 44.5506 1.5C48.911 1.5 52.9004 3.24019 55.813 6.39919C58.6964 9.52691 60.3201 13.8395 60.3201 18.5783C60.3201 23.3761 58.5523 27.8347 54.5342 32.6828L54.5341 32.6828C50.8932 37.0764 45.6298 41.5679 39.3687 46.9034L39.3686 46.9035L39.3134 46.9505C37.2 48.7519 34.8011 50.7966 32.3115 52.9738L32.3107 52.9745C31.9245 53.3127 31.4269 53.5 30.91 53.5C30.393 53.5 29.8959 53.3129 29.5085 52.9736L29.5075 52.9727C26.9993 50.7797 24.5845 48.7217 22.4604 46.9113L22.4529 46.9049L22.4528 46.9048M32.1255 8.33252L22.4528 46.9048M22.4528 46.9048C16.1908 41.5685 10.9274 37.0764 7.28639 32.6833C3.26818 27.8346 1.5 23.376 1.5 18.5787C1.5 13.8396 3.12358 9.52697 6.00654 6.39924L22.4528 46.9048Z" stroke="#8AC926" stroke-width="3" stroke-linejoin="round"/>
<path d="M58.075 14.1102C55.6313 11.4598 52.2781 10 48.6325 10C45.9074 10 43.4118 10.8615 41.2148 12.5604C40.1062 13.418 39.1017 14.4672 38.216 15.6918C37.3307 14.4675 36.3258 13.418 35.2169 12.5604C33.0202 10.8615 30.5246 10 27.7996 10C24.1539 10 20.8004 11.4598 18.3566 14.1102C15.9421 16.7298 14.612 20.3084 14.612 24.1874C14.612 28.1799 16.0998 31.8345 19.2942 35.6891C22.1517 39.137 26.2588 42.6371 31.0148 46.6901C32.6388 48.0742 34.4796 49.6431 36.391 51.3143C36.896 51.7566 37.5439 52 38.216 52C38.8877 52 39.536 51.7566 40.0403 51.315C41.9517 49.6434 43.7936 48.0738 45.4183 46.689C50.1736 42.6367 54.2806 39.137 57.1382 35.6887C60.3325 31.8345 61.82 28.1799 61.82 24.1871C61.82 20.3084 60.4899 16.7298 58.075 14.1102Z" fill="#212121"/>
<path d="M23 34C19.9815 30.3415 15.7556 21.6195 23 16" stroke="#3D7CC9" stroke-width="1.5" stroke-linecap="round" stroke-linejoin="bevel"/>
</svg>
