<svg width="159" height="166" viewBox="0 0 159 166" fill="none" xmlns="http://www.w3.org/2000/svg">
<path d="M1.25321 42.5175C5.77018 60.9572 20.334 77.6886 36.0851 87.4403C51.1592 96.824 74.1742 103.773 89.1072 90.9542C94.5597 86.259 97.2343 78.3257 90.94 72.9661C85.1518 67.969 77.0231 69.464 72.5733 75.4024C60.6613 91.2598 79.5278 111.971 92.7154 119.84C101.033 124.852 110.482 127.791 120.143 128.491C129.088 129.097 139.667 128.167 147.245 123.162C148.351 122.472 147.397 120.435 146.126 120.774C139.501 124.616 134.411 125.552 127.431 125.909C120.179 126.223 111.446 125.601 104.585 123.162C90.9991 118.391 76.3568 105.919 72.8016 90.9691C70.1004 82.3721 75.7919 69.3774 86.0496 72.9661C90.1599 74.3811 92.8102 79.1132 91.125 83.4141C89.617 87.3751 85.5656 90.2149 81.9438 91.997C67.115 99.1141 48.5381 92.4846 35.465 83.9623C28.1003 79.1897 21.477 73.1277 15.9963 66.2737C10.0815 58.8521 6.36708 50.7424 2.66209 42.1145C2.4052 41.207 0.996326 41.61 1.25321 42.5175Z" fill="#8AC926"/>
<path d="M138.478 116.658C140.948 117.353 143.514 117.699 146.019 118.201C147.207 118.44 148.395 118.68 149.557 118.882C150.099 119.009 153.06 119.191 153.265 119.725C153.386 119.979 151.238 122.165 150.976 122.518C150.214 123.449 149.451 124.38 148.688 125.311C147.174 127.109 145.044 128.999 144.248 131.253C143.944 132.032 144.783 132.742 145.492 132.301C146.836 131.47 147.743 130.099 148.73 128.842C149.842 127.439 151.018 126.049 152.13 124.646C153.193 123.335 156.222 120.87 155.508 118.885C154.809 117.002 151.01 117.24 149.424 116.997C145.875 116.381 142.269 115.522 138.69 115.266C137.749 115.135 137.559 116.399 138.478 116.658Z" fill="#8AC926"/>
</svg>
