<svg width="12" height="14" viewBox="0 0 12 14" fill="none" xmlns="http://www.w3.org/2000/svg">
<path d="M11.0386 6C11.0386 9.88889 6.03857 13.2222 6.03857 13.2222C6.03857 13.2222 1.03857 9.88889 1.03857 6C1.03857 4.67392 1.56536 3.40215 2.50304 2.46447C3.44072 1.52678 4.71249 1 6.03857 1C7.36466 1 8.63643 1.52678 9.57411 2.46447C10.5118 3.40215 11.0386 4.67392 11.0386 6Z" stroke="#C8C8C8" stroke-width="0.909091" stroke-linecap="round" stroke-linejoin="round"/>
<path d="M6.03861 7.66665C6.95909 7.66665 7.70528 6.92045 7.70528 5.99998C7.70528 5.07951 6.95909 4.33331 6.03861 4.33331C5.11814 4.33331 4.37195 5.07951 4.37195 5.99998C4.37195 6.92045 5.11814 7.66665 6.03861 7.66665Z" fill="#C4C4C4" stroke="#C8C8C8" stroke-width="0.909091" stroke-linecap="round" stroke-linejoin="round"/>
</svg>
