<svg width="145" height="107" viewBox="0 0 145 107" fill="none" xmlns="http://www.w3.org/2000/svg">
<path d="M41.9927 22.4484C41.4375 22.3527 39.9444 22.257 39.4467 22.257L34.6993 22.2953L34.6418 25.339H37.9918C38.7575 25.3773 40.8441 25.2242 41.361 25.0902L41.3227 30.7564C40.6718 30.6607 39.5233 30.565 38.7575 30.565L34.6036 30.6033L34.5461 35.1018C34.5461 36.193 34.6036 37.2075 34.661 37.8201H27.9419C27.9993 37.4181 28.1333 35.7527 28.1333 35.0635L28.229 20.2279C28.229 19.1176 28.1333 18.2179 27.9227 17.165H41.4567L41.9927 22.4484Z" fill="#8AC926"/>
<path d="M49.4201 23.1949C49.535 23.5586 49.9753 25.2049 50.0327 25.5495C51.277 23.8075 52.5021 23.0801 54.1484 23.0801C54.5121 23.0801 54.7418 23.1184 55.0481 23.2332L54.4547 29.6461C54.091 29.3589 53.555 29.2058 53.0573 29.2058C52.215 29.2058 51.3153 29.7035 50.9898 30.3735C50.6261 31.0243 50.4538 30.6415 50.4538 32.4026L50.5496 36.3077V37.9923L44.6919 37.8009C44.7876 37.0543 44.8067 36.3843 44.845 34.9295L44.8833 31.0626C44.8833 28.6698 44.5387 26.2386 43.9836 24.5541L49.4201 23.1949Z" fill="#8AC926"/>
<path d="M57.2877 23.7884C58.6277 23.329 61.3843 22.8887 63.2603 22.8887C66.4189 22.8887 69.2711 23.9415 70.1708 25.4538C70.6686 26.2195 70.8217 27.1575 70.7834 29.1101V32.9195C70.8217 35.1783 70.994 36.1355 71.5491 37.1883L66.2466 38.0306L66.0934 36.7672C64.1409 37.82 62.5329 38.3178 61.0206 38.3178C58.3789 38.3178 56.3689 36.3078 56.3689 33.6469C56.3689 30.4884 58.8766 28.4401 62.686 28.4401C63.7006 28.4401 64.6769 28.5549 65.6914 28.8421C65.634 27.7509 64.1026 26.8321 62.4946 26.8321C61.3269 26.8321 59.6232 27.1958 58.0917 27.8275L57.2877 23.7884ZM64.0643 31.5029C62.7243 31.5029 61.8437 32.2112 61.8437 33.2449C61.8437 34.0872 62.4563 34.6423 63.356 34.6423C64.6003 34.6423 65.366 33.5895 65.4617 31.7901C64.9257 31.5604 64.562 31.5029 64.0643 31.5029Z" fill="#8AC926"/>
<path d="M74.0377 27.1575C74.0377 26.4492 73.8846 25.3964 73.674 24.5924C77.6366 23.4247 79.6848 23.0418 81.982 23.0418C84.0877 23.0418 85.5425 23.4438 87.1505 24.5349C88.95 23.5395 91.0557 22.9844 92.7785 22.9844C94.9991 22.9844 97.0282 24.2287 97.8322 26.0472C98.0811 26.6406 98.1768 27.5404 98.1768 29.0144L98.1385 35.8866C98.1768 36.7289 98.2342 37.6477 98.2916 37.8009L92.0894 38.758C92.1851 38.5475 92.2808 36.8629 92.2808 36.0015V29.6843V29.5312C92.2808 28.5741 91.8214 28.1146 90.8834 28.1146C90.3282 28.1146 89.6774 28.3061 89.0265 28.6506V36.1163V36.2312V37.1883C89.0265 37.552 89.0648 37.6286 89.084 37.8009H82.92C83.0157 37.3032 83.0731 36.2503 83.0731 35.0826V29.5695C83.0731 28.5741 82.6137 28.0764 81.6757 28.0764C81.1397 28.0764 80.2591 28.2869 79.8571 28.5166V35.5995C79.8571 36.2886 79.9528 37.5137 80.0103 37.8009H73.9037C73.9611 37.3606 74.0951 35.4463 74.0951 34.6806L74.0377 27.1575Z" fill="#8AC926"/>
<path d="M106.466 32.2688C106.772 33.5322 108.112 34.3745 109.816 34.3745C111.022 34.3745 112.362 34.0299 113.663 33.4174L115.003 36.8631C113.395 37.8585 110.983 38.4711 108.744 38.4711C103.824 38.4711 100.608 35.3699 100.608 30.6417C100.608 25.9708 103.881 22.6208 108.476 22.6208C112.993 22.6208 115.941 25.8177 115.941 30.6991L115.903 32.288H106.466V32.2688ZM108.858 28.804H108.916H109.126C110.237 28.804 110.524 28.6508 110.524 28.0957C110.524 27.0045 109.662 26.2006 108.476 26.2006C107.078 26.2006 106.217 27.1385 106.217 28.6125V28.7274L108.858 28.804Z" fill="#8AC926"/>
<path d="M48.6927 42.2232L42.567 62.2657H38.145L35.1779 53.4792L32.1342 62.2657H27.8653L21.3376 42.2806L27.7888 41.2852C27.8845 41.8212 27.9993 42.2424 28.1333 42.7975L28.6693 44.8458C28.7076 44.9415 28.7268 45.0563 28.7268 45.0946L30.373 50.7035L33.321 41.5915H37.2453L40.1933 50.1483L42.5861 41.1321L48.6927 42.2232Z" fill="#8AC926"/>
<path d="M63.1072 55.1637C63.1072 59.6239 59.8337 62.8782 55.3735 62.8782C50.7601 62.8782 47.3909 59.4708 47.3909 54.8574C47.3909 50.3588 50.7983 47.0471 55.4118 47.0471C59.9103 47.0663 63.1072 50.4354 63.1072 55.1637ZM52.7318 55.0105C52.7318 56.5994 53.7846 57.7671 55.2012 57.7671C56.6178 57.7671 57.7663 56.5228 57.7663 55.0488C57.7663 53.4982 56.656 52.2348 55.2969 52.2348C53.842 52.2348 52.7318 53.4408 52.7318 55.0105Z" fill="#8AC926"/>
<path d="M70.0369 47.6405C70.1517 48.0042 70.592 49.6505 70.6494 49.9951C71.8937 48.2531 73.1188 47.5256 74.7651 47.5256C75.1288 47.5256 75.3585 47.5639 75.6648 47.6788L75.0714 54.0916C74.7077 53.8045 74.1717 53.6513 73.674 53.6513C72.8317 53.6513 71.932 54.149 71.6066 54.819C71.2428 55.4699 71.0706 56.6185 71.0706 58.3796L71.1663 62.0933V62.2464H65.3277C65.4234 61.4999 65.4426 60.8299 65.4809 59.375L65.5192 55.5082C65.5192 53.1153 65.1746 50.6842 64.6194 48.9996L70.0369 47.6405Z" fill="#8AC926"/>
<path d="M85.4851 48.3296H88.3565L88.2991 53.4982L85.1979 53.4599L85.1405 56.0059V56.1016V56.4079C85.1405 57.3459 85.5042 57.767 86.3082 57.767C86.8059 57.767 87.5525 57.5756 88.0502 57.3267L88.9499 61.4807C87.4376 62.3421 86.0402 62.7441 84.5279 62.7441C82.5754 62.7441 80.8717 61.9784 80.1251 60.7342C79.8188 60.1982 79.6657 59.3367 79.6657 57.9776V53.4599L77.8471 53.4216V48.2722H79.7422L79.7997 45.5731V45.1711C79.7997 44.6734 79.7997 44.6734 79.6848 43.2185H85.5042V48.3296H85.4851Z" fill="#8AC926"/>
<path d="M98.3108 40.4045C98.215 41.0171 98.215 41.3043 98.1576 43.4674L98.1959 48.2914C99.4593 47.8319 101.067 47.5257 102.446 47.5257C104.207 47.5257 105.891 48.2914 106.466 49.4208C106.772 50.0142 106.925 50.7608 106.925 51.8328V60.4088C106.925 61.4233 106.963 62.0167 107.021 62.2656H100.818C100.914 61.8636 101.01 60.3513 101.029 59.1453L101.086 54.0342C101.086 53.5939 101.048 53.4791 100.972 53.3259C100.78 52.9239 100.225 52.6368 99.7273 52.6368C99.1722 52.6368 98.5788 52.8474 98.1385 53.2302L98.081 59.6813C98.081 60.2748 98.1959 61.787 98.2916 62.2847H91.8788C91.9936 61.9402 92.1659 59.9685 92.1659 58.5328V43.946C92.1659 43.1802 92.0702 41.802 91.9745 41.4765L98.3108 40.4045Z" fill="#8AC926"/>
<path d="M124.326 48.9805C120.114 60.8108 118.2 64.1607 112.802 69.1379L109.203 65.2136C110.964 63.7205 111.902 62.7442 113.357 60.7533L111.5 56.7908C110.294 54.3405 108.954 50.7225 108.437 48.5594L114.257 47.3534C115.712 52.4262 116.114 53.6705 116.707 55.0105L118.908 47.2385L124.326 48.9805Z" fill="#8AC926"/>
<path d="M71.2045 81.9444C70.9365 81.8487 70.7259 81.7913 70.5728 81.753C70.4197 81.7147 70.3048 81.6955 70.2282 81.6955C70.0177 81.6381 69.8645 81.5233 69.7688 81.351C69.6731 81.1787 69.654 80.9681 69.7114 80.7575C69.7688 80.7001 69.8071 80.5853 69.8262 80.413C69.8454 80.2407 69.8645 80.1067 69.8645 79.9918C69.922 79.877 69.9602 79.8004 69.9602 79.7621C69.9794 79.7238 69.9985 79.5898 70.056 79.3793C70.0942 79.1495 70.1708 78.8433 70.2665 78.4413C70.3622 78.0393 70.4771 77.599 70.6111 77.1396C70.7451 76.6801 70.8599 76.2207 70.9748 75.7996C71.0897 75.3784 71.2045 75.0147 71.3002 74.7276C71.3959 74.4404 71.4725 74.2681 71.5108 74.2299C71.5108 74.1341 71.5108 74.0576 71.5108 74.0193C71.5491 73.7704 71.6257 73.5599 71.7214 73.4067C71.7788 73.2536 71.8171 73.1004 71.8554 72.9281C71.8937 72.7559 71.9128 72.641 71.9128 72.5836C71.9702 72.5261 72.0468 72.3539 72.1425 72.0859C72.2382 71.8179 72.3339 71.569 72.4297 71.3201C72.5062 71.1096 72.6019 70.8799 72.6977 70.6502C72.7934 70.4204 72.9274 70.1142 73.0614 69.7696C73.0614 69.7122 73.0614 69.6739 73.0614 69.6739C73.1188 69.6164 73.2528 69.3484 73.4442 68.8699C73.6548 68.3913 73.9419 67.7596 74.2865 66.9939C74.3439 66.879 74.4205 66.7259 74.5162 66.477C74.6311 66.2473 74.6694 66.0942 74.6694 66.0559C74.8608 65.8645 75.0714 65.7879 75.2628 65.8453C75.4542 65.9027 75.6265 66.0176 75.7796 66.1899C75.9328 66.3622 76.0476 66.5153 76.1051 66.6685L76.2965 66.9939L75.5499 68.4296C75.3394 68.7933 75.1479 69.1379 74.9948 69.4442C74.8416 69.7504 74.7651 69.9227 74.7651 69.9802C74.6502 70.3056 74.5545 70.5736 74.4588 70.8224C74.3822 71.0713 74.3056 71.3202 74.2291 71.5499C74.0759 71.971 73.9419 72.2964 73.8079 72.5836C73.6739 72.8516 73.6165 73.0239 73.6165 73.0813C73.6165 73.0621 73.7505 73.043 74.0185 73.0239C74.2865 73.0047 74.6311 73.0047 75.0522 73.0047C75.4734 73.0047 75.8945 73.0047 76.3156 72.9856C76.7559 72.9856 77.1388 72.9664 77.4834 72.9664C77.8279 72.9664 78.0768 72.9473 78.2108 72.909L79.2445 72.8133L79.7996 71.033C79.9145 70.6693 80.0485 70.2099 80.2208 69.6739C80.3931 69.1379 80.5462 68.6976 80.6802 68.3147C80.8908 67.7022 81.1205 67.281 81.3502 67.0322C81.5799 66.7833 81.7905 66.6685 81.9436 66.6685C81.9819 66.6685 82.0585 66.7067 82.1733 66.7833C82.2882 66.8599 82.403 66.9365 82.5179 67.0322C82.6328 67.1279 82.7093 67.2045 82.7285 67.3002C82.8816 67.4533 82.9582 67.6065 82.9582 67.7979C82.9582 67.9893 82.8433 68.2382 82.6328 68.5444C82.4222 68.9082 82.2499 69.291 82.0968 69.7122C81.9628 70.1333 81.8288 70.4779 81.7331 70.7459C81.7331 70.899 81.7139 71.033 81.6756 71.1287C81.6373 71.2244 81.5799 71.301 81.5416 71.3584C81.5225 71.3776 81.465 71.4924 81.3885 71.6647C81.3119 71.837 81.2353 72.0093 81.1779 72.1816C81.1205 72.3539 81.0822 72.4687 81.0822 72.507C81.0822 72.6027 81.0631 72.7176 81.0248 72.8516C80.9865 72.9856 80.929 73.0813 80.8908 73.1387C80.8716 73.2153 80.7951 73.4259 80.7185 73.7321C80.6228 74.0576 80.5271 74.4213 80.3931 74.8616C80.2782 75.3018 80.1442 75.7038 80.0102 76.125C79.8762 76.527 79.7613 76.8716 79.6465 77.1396C79.6465 77.2353 79.6082 77.3501 79.5508 77.4841C79.4933 77.6181 79.4551 77.7521 79.4551 77.8478C79.3976 78.001 79.3402 78.2116 79.2636 78.4413C79.1871 78.671 79.1488 78.8241 79.1488 78.9007C79.0913 79.207 79.0148 79.5515 78.9382 79.9535C78.8616 80.3555 78.8042 80.7001 78.7659 81.0064C78.7276 81.3127 78.6893 81.485 78.6893 81.5232C78.3448 81.5615 78.0768 81.5233 77.9045 81.3893C77.7322 81.2553 77.5791 81.1595 77.4259 81.1021C77.1771 80.949 77.0239 80.7767 76.9856 80.547C76.9474 80.3364 76.9856 80.0684 77.1388 79.7621C77.1962 79.6473 77.2919 79.3984 77.3876 78.9773C77.4834 78.5561 77.5982 78.135 77.6939 77.733C77.7705 77.5416 77.8662 77.2736 77.9619 76.9673C78.0576 76.661 78.1533 76.3547 78.2299 76.0676C78.3256 75.7613 78.3831 75.5124 78.4596 75.3018C78.5171 75.0913 78.5745 74.9764 78.5936 74.9381C78.5936 74.8807 78.5936 74.8233 78.5936 74.7467C78.5745 74.7276 78.4405 74.6893 78.1916 74.6701C77.9619 74.651 77.6556 74.651 77.2919 74.651C76.9282 74.651 76.5262 74.6701 76.1051 74.6893C75.6839 74.7084 75.2819 74.7467 74.8799 74.8041C74.7268 74.8041 74.5162 74.8041 74.2482 74.8041C73.9802 74.8041 73.7888 74.8041 73.6739 74.8041C73.5208 74.8041 73.3485 74.8041 73.1571 74.8041C73.1379 74.8424 73.0805 74.9764 73.0039 75.2061C72.9274 75.4358 72.8508 75.7038 72.7359 76.0293C72.6402 76.3547 72.5445 76.6801 72.4297 77.0056C72.3339 77.331 72.2382 77.6373 72.1617 77.9053C72.0851 78.1733 72.0468 78.3647 72.0085 78.4987C71.9511 78.7284 71.8937 79.0347 71.7979 79.3984C71.7022 79.7621 71.6257 80.1258 71.5108 80.5087C71.3959 80.8915 71.3194 81.217 71.2428 81.5041C71.2811 81.6955 71.2237 81.8678 71.2045 81.9444Z" fill="#434244"/>
<path d="M83.0348 79.9919C82.8625 79.9919 82.7285 79.9536 82.6328 79.8961C82.5371 79.8387 82.4031 79.743 82.2691 79.609C82.0202 79.341 81.8096 79.0539 81.6565 78.7476C81.5033 78.4413 81.4459 78.1733 81.4842 77.9436C81.5225 77.8287 81.5416 77.6756 81.5225 77.4842C81.4651 77.4267 81.4268 77.3693 81.4651 77.3502C81.4842 77.331 81.5225 77.2927 81.5416 77.2353C81.6182 77.2353 81.6565 77.1587 81.6182 77.0247C81.5991 76.9099 81.6373 76.6802 81.7522 76.3356C81.8671 75.991 82.0202 75.6465 82.2116 75.321C82.2882 75.187 82.4031 75.0147 82.5753 74.785C82.7476 74.5553 82.9199 74.3447 83.1113 74.1342C83.3028 73.9236 83.4751 73.7322 83.6473 73.5982C83.9728 73.311 84.279 73.1005 84.5662 72.9282C84.8533 72.7559 85.1405 72.641 85.4276 72.5645C85.7148 72.507 86.021 72.4688 86.3273 72.4688C86.6336 72.4688 86.9016 72.5836 87.093 72.7942C87.3993 72.9282 87.6099 73.1005 87.7439 73.3302C87.8779 73.5599 87.9545 73.847 87.9927 74.2107C88.031 74.6127 87.9927 75.0913 87.8779 75.6847C87.763 76.259 87.4376 76.929 86.9016 77.6947C86.5762 78.1733 86.2508 78.537 85.9253 78.805C85.5999 79.073 85.2553 79.3219 84.8725 79.5516C84.5853 79.743 84.2982 79.8579 83.9728 79.8961C83.6665 79.9344 83.3411 79.9727 83.0348 79.9919ZM85.083 77.5607C85.3702 77.3119 85.5808 77.0247 85.7148 76.7184C85.8488 76.4122 85.9828 76.0485 86.1168 75.6465C86.1742 75.5699 86.2125 75.4359 86.2316 75.2445C86.2508 75.053 86.2508 74.8807 86.2508 74.6893C86.2316 74.517 86.1933 74.4022 86.1168 74.383C86.0019 74.2873 85.887 74.2682 85.753 74.3065C85.6382 74.3447 85.485 74.4405 85.2936 74.5745C84.8916 74.8999 84.5279 75.2827 84.1833 75.723C83.8388 76.1633 83.609 76.6802 83.475 77.3119C83.4368 77.6373 83.475 77.8862 83.5899 78.0584C83.7048 78.2307 83.8962 78.269 84.145 78.1924C84.3939 78.135 84.7002 77.9244 85.083 77.5607Z" fill="#434244"/>
<path d="M98.483 79.6473C98.3873 79.6281 98.2533 79.5324 98.0427 79.3793C97.8513 79.2261 97.6599 79.0155 97.5067 78.7284C97.3536 78.4413 97.277 78.0584 97.2962 77.599C97.3153 77.197 97.3344 76.9098 97.3919 76.7567C97.4302 76.5844 97.411 76.5078 97.3153 76.4887C97.2579 76.4696 97.1239 76.527 96.9133 76.661C96.7219 76.795 96.4539 77.0056 96.1285 77.2927C95.803 77.5798 95.4202 77.9627 94.9799 78.4413C94.8267 78.5753 94.6353 78.7284 94.4439 78.939C94.2525 79.1304 94.061 79.2835 93.8696 79.3601C93.6782 79.4558 93.5059 79.4367 93.3527 79.3027L93.1613 79.1304C93.0656 79.0538 92.989 78.939 92.9316 78.805C92.8742 78.671 92.8359 78.5561 92.8742 78.4604L93.4293 76.9098C93.5825 76.5653 93.6973 76.3164 93.7547 76.1441C93.8122 75.991 93.8505 75.8761 93.8313 75.8378C93.8313 75.7996 93.793 75.7804 93.7165 75.7996C93.6399 75.8187 93.525 75.8761 93.3719 76.0101C93.2188 76.1441 93.123 76.2398 93.0656 76.3164C93.0082 76.3164 92.9508 76.3738 92.855 76.4696C92.7593 76.5844 92.6828 76.661 92.6062 76.7567C92.5296 76.8333 92.3956 76.9864 92.185 77.197C91.9936 77.4076 91.7639 77.6373 91.5533 77.8861C91.381 78.0393 91.1896 78.2498 90.9599 78.5178C90.7302 78.7858 90.5388 79.0155 90.3665 79.2261C90.1942 79.4367 90.0793 79.5515 90.0411 79.5515C89.8113 79.5324 89.5816 79.4558 89.3902 79.3218C89.1988 79.1687 89.0648 78.9964 89.0073 78.7858C88.9308 78.6327 88.9116 78.3647 88.9882 77.9818C89.0456 77.599 89.1796 76.9673 89.3711 76.1058C89.4285 75.9144 89.4668 75.7421 89.5242 75.589C89.5625 75.4358 89.6199 75.3018 89.6773 75.1487C89.7348 74.9956 89.7922 74.8424 89.8688 74.651C89.9453 74.4596 90.0411 74.2298 90.1559 73.981C90.2133 73.7896 90.2516 73.6173 90.2325 73.445C90.2133 73.2727 90.2133 73.1387 90.1942 73.043C90.1942 72.8516 90.2516 72.6793 90.3856 72.5644C90.5196 72.4496 90.6536 72.3539 90.8068 72.3156C90.9599 72.2773 91.0939 72.2581 91.1896 72.2773C91.5533 72.3156 91.8213 72.4496 91.9553 72.6793C92.0893 72.909 92.1659 73.1196 92.1659 73.3301C92.185 73.5216 92.1468 73.713 92.0893 73.8661C92.0319 74.0193 91.9745 74.1533 91.9362 74.2681L91.7256 74.8041C91.5916 75.1104 91.4959 75.3401 91.4385 75.4741C91.381 75.6081 91.3428 75.7038 91.3428 75.7613C91.3428 75.7996 91.3236 75.857 91.3236 75.8953C91.3428 75.9336 91.4002 75.9144 91.4959 75.8378C91.6108 75.7613 91.7256 75.6464 91.8788 75.5124C92.0319 75.3784 92.1659 75.2444 92.2999 75.1487C92.5296 74.9573 92.7976 74.7467 93.0656 74.5361C93.3336 74.3256 93.6016 74.1533 93.8696 73.981C94.1376 73.8278 94.3482 73.713 94.5205 73.6556C94.7502 73.6939 94.9607 73.8087 95.1522 74.0001C95.3436 74.1916 95.4585 74.3447 95.5159 74.4787C95.5733 74.6701 95.5925 74.8616 95.5542 75.0147C95.5159 75.1678 95.4776 75.321 95.4393 75.455C95.4202 75.5124 95.401 75.6081 95.3627 75.7613C95.3245 75.9144 95.267 76.1058 95.1905 76.3547C95.3436 76.2016 95.4967 76.0676 95.6307 75.9527C95.7647 75.8378 95.8987 75.7421 96.0327 75.6464C96.7027 75.1487 97.2196 74.8233 97.6216 74.6701C98.0044 74.5361 98.349 74.651 98.6362 75.0147C98.7893 75.1678 98.9042 75.3593 98.9424 75.6081C98.9807 75.857 99.019 76.2016 99.019 76.6227C99.0382 76.795 99.0573 76.9864 99.0764 77.197C99.0956 77.4076 99.1147 77.599 99.153 77.7521C99.1913 77.9053 99.2104 78.0201 99.2487 78.0584C99.287 78.1158 99.3636 78.1541 99.4593 78.2115C99.5742 78.2498 99.6699 78.2881 99.7656 78.3264C99.957 78.4221 100.053 78.5944 100.072 78.8433C100.091 79.0921 99.9953 79.2835 99.7847 79.4175C99.5933 79.5324 99.3827 79.609 99.153 79.6281C98.9424 79.6664 98.7127 79.6664 98.483 79.6473Z" fill="#434244"/>
<path d="M103.25 80.4895C102.522 80.4895 101.948 80.2789 101.565 79.8578C101.182 79.4367 100.972 78.7858 100.972 77.9052C100.972 77.4267 101.067 76.9098 101.24 76.3355C101.412 75.7612 101.661 75.2061 101.948 74.6701C102.254 74.1341 102.58 73.6555 102.943 73.2535C103.307 72.8515 103.652 72.5644 104.015 72.4113C104.149 72.3538 104.283 72.2964 104.436 72.2581C104.59 72.2198 104.743 72.2007 104.877 72.2007C105.03 72.2007 105.221 72.2198 105.413 72.239C105.604 72.2581 105.796 72.2964 105.968 72.373C106.274 72.4687 106.542 72.641 106.772 72.909C107.002 73.177 107.116 73.5598 107.116 74.0575C107.116 74.1915 107.097 74.3255 107.078 74.4787C107.059 74.6318 107.002 74.785 106.944 74.919C106.772 75.3592 106.504 75.7804 106.159 76.1824C105.815 76.5844 105.432 76.8524 105.049 77.0247C104.934 77.0821 104.838 77.1204 104.743 77.1395C104.647 77.1587 104.532 77.1778 104.436 77.1778C104.149 77.1778 103.9 77.1395 103.69 77.0629C103.479 76.9864 103.269 76.8715 103.077 76.7375L102.924 76.6035L102.828 76.795C102.733 77.0438 102.675 77.2544 102.637 77.4267C102.599 77.5989 102.58 77.7329 102.58 77.8095C102.58 77.9627 102.58 78.1349 102.599 78.3072C102.618 78.4795 102.656 78.6135 102.714 78.7092C102.771 78.7667 102.828 78.8241 102.924 78.8624C103.02 78.9007 103.116 78.9198 103.25 78.9198C103.326 78.9198 103.403 78.9198 103.479 78.9007C103.556 78.9007 103.613 78.8815 103.671 78.8624C103.9 78.8049 104.111 78.7284 104.264 78.5944C104.417 78.4604 104.57 78.3647 104.762 78.2689L104.838 78.2307L104.819 78.1732C105.049 78.0584 105.202 77.9818 105.279 77.9435C105.355 77.9052 105.413 77.8861 105.451 77.8478C105.508 77.7904 105.566 77.7712 105.623 77.7712C105.815 77.7521 105.987 77.7904 106.178 77.9244C106.351 78.0584 106.446 78.2115 106.446 78.3838C106.446 78.4604 106.389 78.5944 106.274 78.7667C106.159 78.9389 106.025 79.1112 105.853 79.2835C105.681 79.4558 105.508 79.5707 105.336 79.6664C105.298 79.6855 105.26 79.7047 105.221 79.7238C105.183 79.7429 105.145 79.7621 105.106 79.8004H105.126C105.011 79.9535 104.896 80.0301 104.762 80.0301H104.609C104.551 80.1258 104.379 80.2215 104.092 80.3364C103.824 80.4321 103.537 80.4895 103.25 80.4895ZM104.283 75.6847C104.398 75.6847 104.513 75.6655 104.609 75.6272C104.704 75.589 104.8 75.5315 104.896 75.4932C105.221 75.2635 105.413 74.9764 105.508 74.6127C105.604 74.249 105.566 73.981 105.413 73.7895C105.394 73.7512 105.355 73.713 105.317 73.6938C105.279 73.6747 105.221 73.6555 105.183 73.6555C105.03 73.6555 104.877 73.6938 104.685 73.7895C104.513 73.8852 104.322 74.0192 104.149 74.1915C103.977 74.3638 103.824 74.5744 103.671 74.8041L103.403 75.2252C103.422 75.2061 103.46 75.2061 103.479 75.187C103.498 75.187 103.518 75.1678 103.537 75.1678C103.652 75.1678 103.728 75.2061 103.766 75.2827C103.805 75.3592 103.862 75.4358 103.92 75.5124C103.996 75.6464 104.111 75.6847 104.283 75.6847Z" fill="#434244"/>
<path d="M1.142 1.44887C1.79285 1.3723 2.38628 1.2383 2.99885 1.21916C5.85112 1.12344 8.7034 1.1043 11.5365 1.00859C17.2219 0.817158 22.9265 0.587444 28.6119 0.396016C33.053 0.242874 37.475 0.128017 41.9161 0.0131607C43.2561 -0.0251249 44.6153 0.0323034 45.9553 0.0323034C48.9607 0.0323034 51.9661 0.0131607 54.9715 0.0323034C58.2258 0.0514462 61.4609 0.108875 64.7152 0.185446C68.9074 0.28116 73.0997 0.376874 77.3111 0.49173C80.4888 0.568301 83.6474 0.721444 86.8251 0.721444C91.3236 0.740586 95.8413 0.644872 100.34 0.62573C101.756 0.62573 103.192 0.721444 104.609 0.778872C105.642 0.817158 106.657 0.893729 107.691 0.893729C110.849 0.893729 114.027 0.759729 117.186 0.855443C120.67 0.951157 124.154 0.855443 127.618 0.798015C132.768 0.721444 137.898 0.549159 143.047 0.415159C143.947 0.396016 144.426 0.587444 144.579 1.14258C144.675 1.5063 144.694 1.87001 144.694 2.25287C144.694 5.00943 144.962 7.74684 144.77 10.5034C144.636 12.4943 144.943 14.5234 144.981 16.5334C145.019 18.2179 145 19.9217 144.923 21.6062C144.866 22.8696 144.655 24.1331 144.56 25.3965C144.407 27.3491 144.273 29.3016 144.177 31.2542C144.1 32.7856 144.024 34.317 144.062 35.8484C144.158 39.0644 144.196 42.2996 144.464 45.5156C144.789 49.325 144.732 53.1344 144.675 56.9438C144.636 59.9109 144.426 62.8589 144.33 65.8069C144.273 67.5489 144.273 69.2909 144.215 71.0329C144.119 73.8852 144.043 76.7374 143.871 79.5897C143.679 82.6526 143.181 85.7154 143.239 88.7782C143.277 90.8648 143.028 93.0088 144.119 95.0188C143.737 95.5165 143.105 95.5739 142.454 95.5931C135.256 95.6696 128.04 95.8994 120.842 95.5548C120.287 95.5357 119.732 95.5739 119.176 95.5739C117.836 95.5739 116.477 95.5931 115.137 95.5548C108.169 95.4208 101.182 95.1911 94.2142 95.1528C87.9545 95.1145 81.6948 95.2485 75.4351 95.3059C67.51 95.3634 59.5849 95.3825 51.6598 95.4974C45.9553 95.5739 40.2698 95.7845 34.5653 95.9568C30.1433 96.0908 25.7022 96.2248 21.2802 96.4736C15.9968 96.7608 10.7325 97.1436 5.44912 97.4691C4.43456 97.5265 3.3817 97.5074 2.36714 97.4882C0.931428 97.4308 0.433715 97.0288 0.510286 96.0525C0.567715 95.3059 0.720857 94.5785 0.701714 93.8319C0.663429 92.6259 0.567715 91.4008 0.433715 90.1948C0.0317168 86.596 0.0317168 83.0163 0.012574 79.4174C-0.00656876 74.8232 -0.00656876 70.2097 0.0317168 65.6155C0.0700024 59.9492 0.127431 54.3021 0.242287 48.6358C0.318859 44.4627 0.529429 40.2896 0.625143 36.0973C0.663429 34.6807 0.529429 33.245 0.529429 31.8093C0.529429 30.6033 0.567715 29.3782 0.625143 28.1722C0.682571 26.9088 0.797428 25.6453 0.835714 24.3819C0.912285 20.9937 0.931428 17.6054 0.988856 14.2362C1.02714 11.9583 1.16114 9.69941 1.18028 7.42142C1.18028 5.77514 1.06543 4.148 1.02714 2.50172C1.04628 2.15715 1.10371 1.85087 1.142 1.44887ZM142.837 1.69773C141.248 1.41058 139.659 1.52544 138.089 1.56373C133.495 1.69773 128.901 1.9083 124.307 1.96572C118.908 2.02315 113.529 1.94658 108.131 1.92744C102.828 1.88915 97.5068 1.75515 92.2042 1.81258C88.1651 1.85087 84.126 1.98487 80.0868 1.73601C79.2254 1.67858 78.3448 1.65944 77.4834 1.6403C72.1043 1.52544 66.706 1.35316 61.3269 1.29573C54.2824 1.21916 47.2187 1.21916 40.1741 1.2383C37.0156 1.25744 33.8379 1.41058 30.6793 1.5063C24.1899 1.71687 17.7005 1.92744 11.2111 2.15715C8.91397 2.23372 6.61683 2.32944 4.33884 2.42515C3.87942 2.44429 3.41999 2.54001 2.84571 2.63572C2.80742 3.07601 2.71171 3.478 2.71171 3.89915C2.73085 5.69857 2.80742 7.49799 2.80742 9.29741C2.80742 15.3848 2.74999 21.4531 2.30971 27.5405C2.07999 30.7565 2.48199 33.9916 2.21399 37.2076C1.96514 40.2704 2.06085 43.3333 2.02257 46.4153C1.946 52.8664 1.85028 59.3175 1.79285 65.7686C1.75457 70.4777 1.73542 75.1869 1.73542 79.896C1.73542 84.2414 1.83114 88.5677 2.55856 92.8939C2.65428 93.4682 2.61599 94.0617 2.61599 94.6359C2.61599 95.1145 2.59685 95.5931 3.2477 96.0142C3.63056 96.0525 4.10913 96.1482 4.56856 96.1291C6.23398 96.0716 7.88026 95.9951 9.52654 95.9185C13.47 95.7271 17.4517 95.8036 21.3568 95.3442C21.5099 95.3251 21.6822 95.3442 21.8353 95.3251C25.147 95.2102 28.4779 95.0954 31.7896 94.9614C34.8716 94.8465 37.9536 94.6359 41.0356 94.5785C47.6015 94.4445 54.1866 94.4062 60.7526 94.3105C61.2312 94.3105 61.7098 94.3105 62.1692 94.2914C63.4326 94.2531 64.696 94.1956 65.9403 94.1765C67.4335 94.1574 68.9457 94.1765 70.4389 94.1574C71.1472 94.1574 71.8554 94.1191 72.5829 94.1191C77.7323 94.0999 82.8817 94.3488 88.0311 94.0234C88.3374 94.0042 88.6628 94.0234 88.9882 94.0234C92.3956 94.0425 95.8031 94.0234 99.2105 94.0617C103.728 94.1191 108.227 94.2339 112.744 94.3297C115.195 94.3871 117.645 94.5019 120.095 94.5785C121.837 94.6359 123.579 94.7125 125.321 94.7125C128.02 94.7125 130.7 94.6359 133.399 94.5976C135.697 94.5594 137.994 94.5211 140.291 94.5019C141.171 94.4828 141.573 94.2339 141.593 93.6214C141.593 93.2577 141.497 92.8748 141.497 92.5111C141.478 90.7117 141.42 88.9122 141.516 87.132C141.65 84.6051 141.956 82.0591 142.109 79.5323C142.416 74.2489 142.665 68.9655 142.933 63.6821C142.952 63.3183 142.933 62.9355 142.933 62.5718C142.933 60.8872 142.933 59.1835 142.971 57.4989C143.067 53.1152 142.971 48.7315 142.684 44.3478C142.377 39.6004 142.397 34.8339 142.626 30.0865C142.722 28.1913 142.684 26.2771 142.933 24.3819C143.354 21.1085 143.335 17.8351 143.258 14.5617C143.22 13.2983 143.124 12.0348 143.105 10.7714C143.105 9.92912 143.239 9.08684 143.258 8.24456C143.296 7.07685 143.354 5.92828 143.277 4.76057C143.239 3.68857 143.411 2.67401 142.837 1.69773Z" fill="#434244"/>
<path d="M139.334 91.7072C139.468 92.1666 139.602 92.6261 139.755 93.1238C138.434 93.43 137.171 93.4683 135.926 93.4683C132.366 93.4683 128.786 93.4683 125.226 93.3918C119.196 93.2769 113.185 93.1429 107.174 92.9898C104.724 92.9323 102.254 92.8175 99.8039 92.7409C98.6936 92.7026 97.5833 92.7409 96.473 92.7409C93.4676 92.76 90.4431 92.8175 87.4376 92.7792C81.0057 92.7409 74.5928 92.7601 68.18 92.9706C65.2512 93.0663 62.3032 93.0089 59.3935 93.162C54.0143 93.4492 48.6161 93.4683 43.2369 93.4683C39.1787 93.4683 35.197 93.9469 31.1387 93.8895C29.4159 93.8703 27.6739 94.0809 25.9319 94.1958C23.4816 94.3489 21.0505 94.5403 18.6002 94.6743C17.4133 94.7318 16.2265 94.7318 15.0396 94.7509C12.7425 94.7892 10.4454 94.8083 8.14823 94.8849C7.24852 94.904 6.40623 94.8849 5.67881 94.4829C4.81738 93.0281 5.06624 91.4583 4.9131 89.9461C4.74081 88.3189 4.98967 86.6535 4.74081 85.0455C4.35796 82.6527 4.70253 80.279 4.66424 77.9053C4.60681 73.311 4.53024 68.6976 4.54938 64.1033C4.54938 60.6576 4.72167 57.231 4.72167 53.7853C4.74081 50.1291 4.6451 46.4919 4.62596 42.8357C4.60681 36.3271 4.66424 29.8186 4.58767 23.31C4.54938 19.3858 4.79824 15.4806 5.10453 11.5755C5.20024 10.3121 5.12367 9.04866 5.12367 7.7661C5.12367 6.34953 5.14281 4.93296 5.16195 3.40154C5.96595 3.45897 6.11909 4.18639 6.94223 4.0524C7.5548 3.95668 8.20566 3.97582 8.83737 3.93754C11.4408 3.7844 14.0442 3.63125 16.6476 3.49725C18.9448 3.3824 21.2227 3.26754 23.5199 3.17183C26.755 3.05697 30.0093 2.96126 33.2636 2.8464C37.2261 2.7124 41.1695 2.5784 45.1512 2.7124C49.1904 2.8464 53.2295 2.99954 57.2686 3.05697C65.3469 3.15268 73.4443 3.2484 81.5225 3.03783C87.3036 2.88469 93.0848 2.63583 98.885 2.75069C100.78 2.78897 102.675 2.61669 104.59 2.59754C106.963 2.55926 109.356 2.5784 111.73 2.59754C116.496 2.63583 121.244 2.65497 126.01 2.75069C131.007 2.8464 135.984 3.05697 141.133 3.21011C141.229 3.57383 141.382 3.9184 141.401 4.26297C141.516 6.27296 141.612 8.28295 141.669 10.2929C141.727 12.3986 141.612 14.5235 141.746 16.6292C141.899 19.2326 141.459 21.8169 141.076 24.382C140.635 27.1769 140.846 29.9909 140.578 32.7857C140.348 35.1594 140.176 37.5331 139.965 39.9068C139.908 40.5385 139.812 41.1702 139.774 41.802C139.544 46.3005 139.181 50.7799 139.334 55.2785C139.372 56.3313 139.238 57.3842 139.257 58.437C139.257 59.2793 139.334 60.1216 139.41 60.9639C139.468 61.7487 139.563 62.5527 139.621 63.3376C139.831 67.2427 140.099 71.1479 140.233 75.053C140.348 78.3264 140.272 81.5998 140.329 84.8732C140.348 86.0409 140.463 87.2086 140.54 88.3572C140.597 89.1995 140.693 90.0418 140.712 90.9032C140.731 91.4583 140.597 91.5158 139.334 91.7072C139.372 90.7118 139.41 89.6972 139.429 88.7018C139.449 88.1658 139.391 87.6489 139.391 87.1129C139.391 85.2561 139.449 83.4184 139.429 81.5615C139.391 78.8624 139.219 76.1633 139.219 73.4641C139.219 69.1187 138.989 64.7924 138.357 60.4662C138.3 60.1025 138.281 59.7196 138.281 59.3559C138.3 56.0251 138.281 52.6942 138.396 49.3634C138.511 46.0325 138.759 42.7017 138.989 39.3708C139.123 37.3608 139.487 35.37 139.506 33.36C139.563 28.7466 140.272 24.1715 140.674 19.5772C140.865 17.4141 140.903 15.2509 140.884 13.0878C140.846 10.4461 140.674 7.80438 140.559 5.16268C140.54 4.79896 140.444 4.43525 140.367 4.03325C139.774 3.93754 139.238 3.82268 138.702 3.80354C136.96 3.70782 135.218 3.6504 133.476 3.59297C130.949 3.5164 128.403 3.47811 125.876 3.36325C122.794 3.22926 119.693 3.17183 116.611 3.2484C114.467 3.30583 112.342 3.28668 110.198 3.26754C108.782 3.26754 107.365 3.19097 105.949 3.19097C102.541 3.21011 99.1339 3.26754 95.7456 3.32497C93.6973 3.36325 91.6299 3.40154 89.5816 3.47811C88.5479 3.5164 87.5334 3.61211 86.4996 3.63125C83.3219 3.68868 80.1634 3.72697 76.9857 3.76525C70.5728 3.84182 64.16 3.88011 57.7472 3.72697C48.5586 3.5164 39.351 3.32497 30.1624 3.55468C29.301 3.57383 28.4396 3.66954 27.559 3.74611C27.0039 3.7844 26.4679 3.88011 25.9127 3.89925C22.2756 4.05239 18.6193 3.97582 15.0205 4.41611C14.7908 4.43525 14.5419 4.45439 14.3122 4.43525C11.8236 4.22468 9.46908 4.91382 6.99966 4.87553C6.38709 4.87553 6.06166 5.18182 6.02338 5.6221C6.00424 5.77525 6.00424 5.94753 6.02338 6.10067C6.36795 8.74238 6.17652 11.3841 5.96595 14.0258C5.4491 20.2472 5.65967 26.4877 5.60224 32.7283C5.56395 36.3271 5.54481 39.926 5.5831 43.5248C5.60224 45.5348 5.77452 47.5448 5.77452 49.5548C5.79367 53.2111 5.75538 56.8482 5.73624 60.5045C5.71709 64.735 5.67881 68.9656 5.73624 73.1961C5.79367 77.5224 5.3151 81.8678 6.00424 86.1941C6.08081 86.6726 6.00424 87.1512 6.00424 87.6298C6.04252 88.7975 6.09995 89.9652 6.17652 91.1138C6.19566 91.2861 6.38709 91.4775 6.50195 91.6498C7.49737 91.3243 7.5548 91.3052 7.57394 91.0563C7.63137 90.4246 7.66966 89.7929 7.6888 89.1612C7.74623 87.1512 7.8228 85.1412 7.86109 83.1312C7.88023 82.5952 7.86109 82.0784 7.84194 81.5424C7.80366 78.9964 7.72709 76.4695 7.70794 73.9236C7.66966 70.5353 7.8228 67.147 7.61223 63.7779C7.4208 60.6002 7.47823 57.4416 7.59309 54.2639C7.65052 52.4645 7.78452 50.6651 7.86109 48.8656C8.01423 45.3817 7.99509 41.8785 7.88023 38.3945C7.8228 36.9588 7.89937 35.5423 7.89937 34.1066C7.89937 32.9389 7.84194 31.7903 7.8228 30.6226C7.8228 29.7229 7.84194 28.8232 7.84194 27.9234C7.84194 25.9709 8.01423 24.0375 7.84194 22.0658C7.63137 19.6538 7.84194 17.2035 7.84194 14.7915C7.84194 12.1498 7.78452 9.50809 7.76537 6.86638C7.76537 6.36867 8.10994 6.04324 8.81823 5.94753C9.43079 5.85182 10.0625 5.85182 10.6942 5.83267C13.5465 5.7561 16.3796 5.67953 19.2319 5.6221C21.6822 5.56467 24.1325 5.54553 26.6019 5.50725C30.7176 5.44982 34.8333 5.41153 38.949 5.31582C41.8778 5.23925 44.8067 5.02868 47.7164 4.99039C53.5741 4.95211 59.4509 4.95211 65.3086 5.00953C68.7926 5.02868 72.2766 5.25839 75.7605 5.23925C78.9191 5.2201 82.0777 5.27753 85.2362 5.37325C92.1276 5.60296 99.019 5.4881 105.91 5.39239C111.385 5.29668 116.841 4.97125 122.316 5.14353C122.794 5.16268 123.273 5.12439 123.752 5.12439C125.896 5.06696 128.02 4.93296 130.145 4.99039C132.672 5.06696 135.199 5.27753 137.707 4.91382C138.549 4.79896 139.066 5.20096 138.913 5.77525C138.204 8.28295 138.109 10.8098 138.051 13.3558C138.013 15.3658 138.013 17.3758 137.86 19.3858C137.707 21.5489 137.362 23.712 137.171 25.8752C137.056 27.196 136.998 28.5169 136.979 29.8377C136.922 33.1111 136.845 36.4037 136.845 39.6771C136.845 42.0508 136.96 44.4437 137.094 46.8174C137.171 48.0234 137.4 49.2485 137.553 50.4545C137.649 51.1819 137.821 51.9285 137.802 52.6559C137.707 57.4608 137.553 62.2847 137.477 67.0896C137.439 70.095 137.419 73.1196 137.553 76.125C137.687 79.0347 138.013 81.9252 138.281 84.8349C138.396 86.0984 138.606 87.3618 138.74 88.6252C138.855 89.6398 138.262 90.1183 136.826 90.5012C135.39 90.8841 133.897 90.9032 132.404 91.0372C130.126 91.2286 127.886 91.5732 125.551 91.3435C125.168 91.3052 124.766 91.3818 124.364 91.3818C120.478 91.4583 116.592 91.5541 112.725 91.5732C111.232 91.5923 109.739 91.4201 108.227 91.3626C106.408 91.3052 104.57 91.3052 102.752 91.2286C96.4922 90.9798 90.2325 90.7692 83.9728 90.8075C80.3165 90.8266 76.6794 90.8458 73.0231 90.7309C66.5911 90.5203 60.1783 90.9223 53.7655 90.9415C50.9898 90.9415 48.2141 91.0372 45.4384 91.0946C42.2798 91.1521 39.1021 91.1903 35.9436 91.2669C33.6464 91.3243 31.3493 91.4392 29.0713 91.5158C27.4824 91.5732 25.8936 91.5541 24.3239 91.6498C20.457 91.8986 16.6093 92.1666 12.7616 92.4729C10.8091 92.6261 8.87565 92.8749 6.92309 93.1046C6.76995 93.1238 6.55938 93.3343 6.54023 93.4492C6.52109 93.564 6.71252 93.7555 6.8848 93.8129C7.22937 93.9086 7.63137 94.0043 8.01423 94.0043C10.6368 94.0235 13.2402 94.0809 15.8436 94.0043C19.3276 93.8895 22.7925 93.6215 26.2573 93.4683C32.0958 93.2003 37.9153 92.6835 43.7921 92.7026C45.6107 92.7026 47.4292 92.6835 49.2669 92.6452C53.6315 92.5495 57.9769 92.3389 62.3414 92.3198C67.9694 92.2815 73.5783 91.7838 79.2062 92.0326C79.436 92.0518 79.6848 92.0135 79.9145 91.9943C81.6565 91.9561 83.3985 91.8986 85.1405 91.8986C89.0265 91.8795 92.9125 91.8412 96.7985 91.8986C101.469 91.9561 106.159 92.0901 110.83 92.2049C114.008 92.2815 117.166 92.3963 120.344 92.4729C124.154 92.5686 127.944 92.6452 131.753 92.7026C133.897 92.7409 136.022 92.7218 138.032 92.4729C138.587 92.3389 138.434 91.6689 139.334 91.7072ZM136.692 6.48353C136.424 6.38781 136.29 6.2921 136.156 6.2921C132.442 6.27296 128.709 6.25382 124.996 6.23467C123.809 6.23467 122.622 6.25382 121.435 6.23467C119.291 6.21553 117.147 6.11982 115.022 6.17724C112.094 6.25382 109.184 6.50267 106.255 6.54096C101.259 6.59838 96.2625 6.59839 91.2662 6.5601C85.8871 6.52181 80.4888 6.36867 75.1097 6.31124C67.108 6.23467 59.1063 6.17724 51.0855 6.13896C48.3864 6.13896 45.7064 6.23467 43.0072 6.31124C40.7101 6.38781 38.4321 6.50267 36.135 6.57924C31.2344 6.77067 26.3147 6.54096 21.4142 6.78981C17.9302 7.00038 14.4462 7.00038 10.9622 7.0961C10.5219 7.11524 10.0816 7.2301 9.50737 7.32581C9.4308 8.89552 9.12451 10.4078 9.22022 11.9392C9.31594 13.4132 9.35422 14.9064 9.35422 16.3803C9.33508 23.578 9.2968 30.7566 9.27765 37.9543C9.27765 38.5285 9.35422 39.122 9.39251 39.6963C9.46908 41.3234 9.62222 42.9697 9.58394 44.5968C9.54565 46.8174 9.2968 49.0379 9.27765 51.2394C9.20108 55.8336 8.8948 60.4279 9.31594 65.0413C9.60308 68.2573 9.31594 71.4924 9.33508 74.7084C9.35422 76.929 9.44994 79.1495 9.48822 81.3701C9.52651 83.2269 9.52651 85.0647 9.52651 86.9215C9.52651 87.8786 9.43079 88.8166 9.43079 89.7738C9.43079 90.2906 9.44994 90.8266 9.98594 91.3052C10.5602 91.3052 11.1154 91.3435 11.6514 91.3052C14.8865 91.1329 18.1216 90.9415 21.3568 90.7692C24.4387 90.6161 27.5016 90.3289 30.6027 90.5012C31.2153 90.5395 31.8661 90.3863 32.4978 90.3672C34.4696 90.3098 36.4413 90.2715 38.413 90.2141C38.9681 90.1949 39.5424 90.2715 40.0784 90.2141C42.433 89.9461 44.8258 90.0992 47.1995 90.0801C47.9078 90.0801 48.6161 90.0609 49.3435 90.0418C52.6743 89.9461 55.986 89.8503 59.3169 89.7738C61.0589 89.7355 62.8009 89.7738 64.5429 89.7163C67.376 89.6206 70.2283 89.5441 73.0614 89.7355C73.8463 89.7929 74.6503 89.7546 75.4351 89.7546C77.4068 89.7355 79.3977 89.6781 81.3694 89.7163C86.9974 89.8121 92.6062 89.9078 98.215 90.0418C101.622 90.1183 105.011 90.3098 108.418 90.4055C112.228 90.5012 116.018 90.5395 119.827 90.5395C122.354 90.5395 124.9 90.3863 127.427 90.3672C130.451 90.3289 133.361 89.8503 136.309 89.5249C136.692 88.4338 136.711 87.4192 136.501 86.4621C135.945 83.7821 136.156 81.083 135.773 78.403C135.582 77.0438 135.697 75.6464 135.735 74.2873C135.811 70.2673 135.601 66.2473 135.811 62.2465C136.06 57.5948 136.175 52.9431 135.448 48.3105C134.931 44.9797 135.065 41.6488 135.065 38.318C135.065 35.6188 135.103 32.9197 135.18 30.2206C135.218 28.6892 135.295 27.1577 135.467 25.6455C135.888 21.97 136.367 18.2946 136.424 14.5809C136.462 12.2072 136.711 9.83352 136.845 7.45981C136.807 7.15353 136.73 6.78981 136.692 6.48353Z" fill="#434244"/>
<path d="M84.7385 102.657C84.3174 102.255 83.9536 102.082 83.5134 102.082C83.0922 102.082 82.8242 102.293 82.8242 102.637C82.8242 102.982 83.0348 103.154 83.7814 103.384C84.3939 103.595 84.7768 103.786 85.0065 104.035C85.2554 104.303 85.3702 104.628 85.3702 105.03C85.3702 106.064 84.5471 106.83 83.4368 106.83C82.7476 106.83 82.0394 106.523 81.4077 105.968L82.0968 105.126C82.6328 105.547 83.0731 105.758 83.4751 105.758C83.8388 105.758 84.1642 105.509 84.1642 105.203C84.1642 105.011 84.0302 104.858 83.8005 104.743C83.6665 104.686 83.6474 104.667 83.3794 104.59C82.1351 104.226 81.5799 103.671 81.5799 102.791C81.5799 101.776 82.4222 100.991 83.4751 100.991C84.1451 100.991 84.7768 101.24 85.4085 101.719L84.7385 102.657Z" fill="#8AC926"/>
<path d="M91.7448 106.926L90.0793 103.595L88.4331 106.868L86.0785 101.24L87.3228 100.896L88.5479 104.092L90.1176 100.876L91.6682 104.207L92.9699 100.838L94.1376 101.221L91.7448 106.926Z" fill="#8AC926"/>
<path d="M98.8659 102.159L96.4348 102.178V103.709L98.6745 103.69L98.5596 104.781H98.5022H97.947H97.2962H97.2196H96.4539V105.681L98.885 105.643L98.7128 106.715L95.1522 106.696C95.1713 106.543 95.1905 106.102 95.1905 105.7V102.235C95.1905 102.101 95.1905 102.006 95.1905 101.872C95.1905 101.776 95.1713 101.642 95.1713 101.451L95.1331 101.125V101.087H98.751L98.8659 102.159Z" fill="#8AC926"/>
<path d="M103.709 102.159L101.278 102.178V103.709L103.518 103.69L103.403 104.781H103.345H102.79H102.139H102.063H101.297V105.681L103.728 105.643L103.556 106.715L99.9953 106.696C100.014 106.543 100.034 106.102 100.034 105.7V102.235C100.034 102.101 100.034 102.006 100.034 101.872C100.034 101.776 100.014 101.642 100.014 101.451L99.9761 101.125V101.087H103.594L103.709 102.159Z" fill="#8AC926"/>
<path d="M104.762 102.446C104.762 102.14 104.724 101.795 104.628 101.297C105.26 101.144 105.853 101.049 106.37 101.049C107.748 101.049 108.686 101.872 108.686 103.059C108.686 103.863 108.208 104.647 107.538 104.973C107.155 105.164 106.695 105.26 106.217 105.26C106.14 105.26 106.083 105.26 106.006 105.26V105.739V105.777C106.025 106.581 106.025 106.619 106.044 106.696H104.743C104.762 106.294 104.781 105.758 104.781 105.585L104.762 102.446ZM105.987 104.15C106.102 104.188 106.217 104.207 106.351 104.207C107.002 104.207 107.423 103.805 107.423 103.154C107.423 102.542 107.002 102.14 106.408 102.14C106.274 102.14 106.14 102.159 105.987 102.197V104.15Z" fill="#8AC926"/>
<path d="M112.534 102.657C112.113 102.255 111.749 102.082 111.309 102.082C110.888 102.082 110.62 102.293 110.62 102.637C110.62 102.982 110.83 103.154 111.577 103.384C112.189 103.595 112.572 103.786 112.802 104.035C113.051 104.303 113.166 104.628 113.166 105.03C113.166 106.064 112.342 106.83 111.232 106.83C110.543 106.83 109.835 106.523 109.203 105.968L109.892 105.126C110.428 105.547 110.868 105.758 111.27 105.758C111.634 105.758 111.959 105.509 111.959 105.203C111.959 105.011 111.826 104.858 111.596 104.743C111.462 104.686 111.443 104.667 111.175 104.59C109.93 104.226 109.375 103.671 109.375 102.791C109.375 101.776 110.218 100.991 111.27 100.991C111.94 100.991 112.572 101.24 113.204 101.719L112.534 102.657Z" fill="#8AC926"/>
<path d="M118.028 102.293C117.951 102.293 117.951 102.274 117.339 102.235H117.32H116.592V104.59C116.592 105.03 116.63 106.026 116.688 106.696H115.29C115.329 106.313 115.386 104.935 115.386 104.628V102.235H114.831C114.601 102.235 114.448 102.235 113.95 102.274V101.087H118.028V102.293Z" fill="#8AC926"/>
<path d="M123.254 106.715H121.914L121.569 105.911H119.617L119.291 106.715H117.99L120.574 100.8L123.254 106.715ZM120.593 103.48L120.019 104.916H121.186L120.593 103.48Z" fill="#8AC926"/>
<path d="M128.461 101.719L128.403 101.795C128.212 101.987 128.039 102.178 127.867 102.389C127.331 102.982 127.063 103.288 127.025 103.327L126.604 103.824L127.695 104.954C127.714 104.992 127.733 105.011 127.752 105.03C127.791 105.069 128.039 105.317 128.269 105.566C128.48 105.796 128.575 105.873 128.69 106.007C128.288 106.294 128.25 106.313 127.599 106.811L127.561 106.753L127.101 106.198C126.814 105.873 126.585 105.605 126.412 105.375L125.398 104.341V105.26C125.398 105.681 125.417 106.198 125.474 106.715H124.134C124.173 106.102 124.211 105.719 124.192 105.451V102.503C124.192 102.159 124.153 101.355 124.134 101.106H125.474C125.436 101.431 125.417 101.948 125.417 102.082V103.48L126.202 102.599L126.987 101.623L127.465 100.991L127.503 100.953L128.461 101.719Z" fill="#8AC926"/>
<path d="M133.285 102.159L130.853 102.178V103.709L133.093 103.69L132.978 104.781H132.921H132.366H131.715H131.638H130.873V105.681L133.304 105.643L133.131 106.715L129.571 106.696C129.59 106.543 129.609 106.102 129.609 105.7V102.235C129.609 102.101 129.609 102.006 129.609 101.872C129.609 101.776 129.59 101.642 129.59 101.451L129.552 101.125V101.087H133.17L133.285 102.159Z" fill="#8AC926"/>
<path d="M137.553 102.657C137.132 102.255 136.769 102.082 136.328 102.082C135.907 102.082 135.639 102.293 135.639 102.637C135.639 102.982 135.85 103.154 136.596 103.384C137.209 103.595 137.592 103.786 137.821 104.035C138.07 104.303 138.185 104.628 138.185 105.03C138.185 106.064 137.362 106.83 136.252 106.83C135.563 106.83 134.854 106.523 134.223 105.968L134.912 105.126C135.448 105.547 135.888 105.758 136.29 105.758C136.654 105.758 136.979 105.509 136.979 105.203C136.979 105.011 136.845 104.858 136.615 104.743C136.481 104.686 136.462 104.667 136.194 104.59C134.95 104.226 134.395 103.671 134.395 102.791C134.395 101.776 135.237 100.991 136.29 100.991C136.96 100.991 137.592 101.24 138.223 101.719L137.553 102.657Z" fill="#8AC926"/>
<path d="M50.4538 77.4073C50.4155 77.4456 50.3581 77.4265 50.3006 77.3882C50.2432 77.3499 50.1667 77.2542 50.0518 77.1393C49.9944 77.0819 49.9561 77.0053 49.9561 76.9479C49.9561 76.8905 49.9369 76.7373 49.9752 76.5459C50.0135 76.4693 50.0327 76.3736 50.0327 76.297C50.0327 76.2205 50.0327 76.163 50.0327 76.1247C50.0327 76.0865 50.0518 75.9716 50.0709 75.7993C50.0901 75.627 50.1284 75.4547 50.1666 75.2633C50.2049 75.0719 50.2241 74.9187 50.2432 74.823C50.2432 74.823 50.2432 74.8039 50.2624 74.7656C50.2624 74.7273 50.2815 74.7082 50.2815 74.689C50.3006 74.6125 50.3198 74.5167 50.3389 74.4019C50.3581 74.287 50.3964 74.1339 50.4155 73.9616C50.4729 73.7702 50.5304 73.5787 50.5686 73.3873C50.6069 73.1959 50.6261 73.0619 50.6261 73.0045C50.6261 72.8705 50.6835 72.7556 50.7984 72.6982C50.7984 72.6599 50.8366 72.6025 50.8749 72.5259C50.9132 72.4493 50.9515 72.3728 50.9706 72.3153C51.1238 71.875 51.2578 71.5305 51.3535 71.2625C51.4492 70.9945 51.5641 70.7839 51.6598 70.5733C51.6981 70.4393 51.7555 70.3053 51.8129 70.1713C51.8704 70.0373 51.9278 69.9225 51.9852 69.8459C52.0235 69.7502 52.1192 69.6162 52.2532 69.4631C52.3872 69.3099 52.5404 69.1568 52.6935 69.0036C52.8466 68.8505 52.9806 68.7356 53.0572 68.6591C53.2295 68.5825 53.3635 68.5059 53.4592 68.4868C53.5549 68.4485 53.6889 68.4485 53.8612 68.4485C54.0144 68.4485 54.1101 68.4676 54.1675 68.5059C54.2249 68.5442 54.3015 68.6016 54.3972 68.6973C54.5121 68.8122 54.5695 68.8888 54.5886 68.9271C54.6078 68.9653 54.6078 69.0419 54.6078 69.1568C54.5886 69.2525 54.5503 69.3865 54.4929 69.5396C54.4355 69.6928 54.3589 69.8459 54.2823 69.9799C54.2058 70.1139 54.1483 70.1713 54.1101 70.1905C54.0143 70.2288 53.9569 70.2096 53.8995 70.1522C53.8612 70.0948 53.8421 70.0182 53.8421 69.9033C53.8421 69.8459 53.8229 69.7693 53.7655 69.6736C53.7655 69.6545 53.7655 69.6162 53.7846 69.5588C53.8038 69.5013 53.8229 69.4439 53.8421 69.3865C53.8804 69.3099 53.8995 69.2525 53.8804 69.2142C53.8612 69.1759 53.8038 69.1759 53.7272 69.1951C53.7081 69.2142 53.6506 69.2525 53.5358 69.3291C53.4401 69.4056 53.3252 69.5013 53.2104 69.5971C53.0955 69.6928 52.9998 69.7885 52.9041 69.8651C52.8275 69.9416 52.7701 69.999 52.7701 70.0373C52.7126 70.1713 52.6361 70.2862 52.5404 70.3819C52.4829 70.4585 52.4446 70.535 52.3872 70.6116C52.3489 70.6882 52.3298 70.7265 52.3298 70.7456C52.3298 70.7839 52.3298 70.803 52.3298 70.8413C52.3298 70.8796 52.3106 70.8988 52.2724 70.8988C52.2341 71.0328 52.1766 71.1668 52.1001 71.2625C52.0618 71.339 52.0235 71.4156 51.9852 71.4922C51.9469 71.5688 51.9086 71.6262 51.8704 71.6645H51.8895C51.8129 71.8559 51.7746 72.009 51.7172 72.1048C51.6789 72.2005 51.6598 72.277 51.6598 72.277C51.6598 72.3153 51.7172 72.3153 51.8321 72.3153C51.9469 72.3153 52.0809 72.2962 52.2341 72.277C52.3872 72.2579 52.5212 72.2196 52.6552 72.1813C52.7701 72.143 52.8466 72.143 52.8849 72.143C52.9232 72.143 52.9998 72.1622 53.1146 72.1813C53.1721 72.2196 53.2295 72.277 53.2678 72.3536C53.3061 72.4302 53.3444 72.5068 53.3635 72.5642C53.3826 72.6216 53.3826 72.679 53.3635 72.7173C53.3635 72.7556 53.2678 72.7939 53.1146 72.8513C52.9424 72.9088 52.7892 72.947 52.6169 72.9853C52.4829 73.0236 52.3106 73.0428 52.1001 73.081C51.8895 73.1193 51.7172 73.1576 51.5641 73.1768C51.4109 73.215 51.3344 73.2342 51.3344 73.2533C51.2961 73.2533 51.2769 73.2725 51.2578 73.3108C51.2386 73.349 51.2195 73.3682 51.2195 73.4065C51.2195 73.5213 51.2004 73.5979 51.1812 73.6553C51.1621 73.6936 51.1429 73.7893 51.1046 73.9425C51.0664 74.0765 51.0281 74.2296 50.9898 74.4019C50.9515 74.5742 50.9132 74.7273 50.8941 74.8613C50.8749 74.9953 50.8558 75.091 50.8558 75.1485C50.8175 75.2059 50.7792 75.2633 50.7792 75.359C50.7792 75.4356 50.7601 75.5122 50.7601 75.5696C50.7218 75.627 50.7026 75.6845 50.7026 75.7419C50.7026 75.7993 50.6835 75.8376 50.6835 75.8567C50.6835 75.8567 50.6835 75.8759 50.6835 75.895C50.6835 75.9142 50.6835 75.9333 50.6644 75.9716C50.6644 76.0482 50.6452 76.1439 50.6261 76.2779C50.6069 76.4119 50.6069 76.5267 50.6069 76.6607L50.5686 77.0053C50.5686 77.101 50.5495 77.1967 50.5304 77.2733C50.5304 77.3307 50.4921 77.369 50.4538 77.4073Z" fill="#434244"/>
<path d="M54.5121 75.8185C54.4929 75.8185 54.4547 75.8185 54.3972 75.7994C54.3398 75.7802 54.2824 75.7611 54.2249 75.7419C54.1675 75.7228 54.1292 75.7036 54.1292 75.6845C54.0909 75.6462 54.0718 75.6079 54.0335 75.5505C54.0144 75.4931 53.9952 75.3974 54.0335 75.2825C54.0527 75.1677 54.1292 74.9954 54.2632 74.8039C54.3015 74.7274 54.3398 74.6125 54.3972 74.4594C54.4547 74.3062 54.5121 74.1339 54.5695 73.9617C54.6269 73.7894 54.6844 73.6362 54.7418 73.4831C54.7992 73.3491 54.8375 73.2534 54.8567 73.1959C54.8758 73.0619 54.8567 72.9662 54.8375 72.9088C54.8184 72.8514 54.7418 72.8131 54.6269 72.8131C54.5504 72.8131 54.4929 72.8131 54.4547 72.7939C54.4164 72.7748 54.3972 72.6982 54.3972 72.5642C54.4164 72.4494 54.4355 72.3728 54.4929 72.3345C54.5312 72.2962 54.5887 72.2388 54.6652 72.1814C54.7418 72.1431 54.8184 72.1239 54.8949 72.1048C54.9715 72.0857 55.0481 72.0857 55.1247 72.0857C55.2012 72.0857 55.2587 72.1239 55.3161 72.1622C55.3735 72.2005 55.4118 72.2579 55.4118 72.3728C55.4309 72.4685 55.4309 72.5834 55.4501 72.6982C55.4501 72.8131 55.4692 72.8897 55.4692 72.9471C55.5458 72.8897 55.6607 72.7939 55.7947 72.6791C55.9287 72.5642 56.0435 72.4685 56.1584 72.3537C56.2732 72.2771 56.4264 72.1814 56.5986 72.0857C56.7709 71.9899 56.8858 71.9517 56.9624 71.9517C57.0389 71.9517 57.1346 71.9708 57.2112 72.0091C57.2878 72.0474 57.3644 72.1048 57.3835 72.1622C57.4601 72.2962 57.4984 72.4111 57.4984 72.5068C57.4984 72.6025 57.4409 72.7174 57.3644 72.8131C57.2878 72.9088 57.1921 72.9854 57.0772 73.0237C56.9624 73.0619 56.8858 73.0811 56.8666 73.0811C56.8284 73.0811 56.7709 73.0428 56.6944 72.9854C56.6178 72.9279 56.5795 72.8514 56.5795 72.8131C56.5795 72.7939 56.5221 72.8131 56.4264 72.8705C56.3307 72.9279 56.2158 73.0237 56.1009 73.1194C55.9861 73.2151 55.8904 73.3108 55.8138 73.3874C55.6798 73.5597 55.5458 73.7702 55.3927 74.0574C55.2395 74.3445 55.0672 74.6699 54.8758 75.0719C54.7801 75.2634 54.7227 75.4357 54.6844 75.5697C54.6269 75.7228 54.5887 75.7994 54.5121 75.8185Z" fill="#434244"/>
<path d="M58.7809 76.01C58.6852 76.01 58.6086 75.9909 58.5512 75.9526C58.4938 75.9143 58.4172 75.8569 58.3406 75.7803C58.1875 75.6271 58.0918 75.474 58.0343 75.34C57.9769 75.1869 57.9578 75.0529 57.9769 74.9189C57.9961 74.8614 58.0152 74.7657 57.9961 74.6509C57.9578 74.6126 57.9386 74.5934 57.9578 74.5743C57.9769 74.5551 57.9961 74.536 57.9961 74.5169C58.0343 74.5169 58.0535 74.4786 58.0343 74.3829C58.0152 74.3254 58.0535 74.1914 58.13 73.9809C58.2066 73.7703 58.3023 73.5789 58.4172 73.3874C58.4555 73.3109 58.532 73.2152 58.6278 73.0812C58.7235 72.9472 58.8192 72.8323 58.934 72.6983C59.0489 72.5643 59.1446 72.4686 59.2403 72.392C59.4318 72.2197 59.604 72.1049 59.7572 72.0283C59.9103 71.9517 60.0635 71.8943 60.2358 71.856C60.408 71.8177 60.5229 71.7986 60.5995 71.7986C60.6569 71.7986 60.7526 71.856 60.8675 71.99C61.0398 72.0666 61.1738 72.1623 61.2503 72.2772C61.3269 72.392 61.3843 72.5452 61.4035 72.7557C61.4226 72.9854 61.4035 73.2534 61.346 73.5597C61.2886 73.866 61.0972 74.2297 60.7909 74.67C60.5995 74.9571 60.4272 75.1486 60.2549 75.3017C60.0826 75.4549 59.8912 75.5697 59.6806 75.7037C59.5083 75.8186 59.3743 75.8951 59.2403 75.9334C59.1255 75.9526 58.9723 75.9909 58.7809 76.01ZM59.9103 74.7657C60.1018 74.5551 60.2549 74.3637 60.3506 74.1723C60.4655 73.9809 60.5612 73.7512 60.676 73.464C60.7143 73.3874 60.7335 73.2726 60.7335 73.1386C60.7335 73.0046 60.7335 72.8897 60.7335 72.7749C60.7143 72.66 60.6952 72.6026 60.6378 72.5834C60.542 72.526 60.4272 72.5069 60.2932 72.526C60.1592 72.5452 60.0252 72.6217 59.8529 72.7557C59.604 72.9663 59.3935 73.2151 59.2212 73.5023C59.0489 73.8086 58.8766 74.134 58.7043 74.5169C58.5895 74.804 58.5703 75.0146 58.6278 75.1869C58.6852 75.3591 58.8383 75.4166 59.068 75.3591C59.2978 75.34 59.5658 75.1294 59.9103 74.7657Z" fill="#434244"/>
<path d="M62.6286 75.608C62.552 75.5505 62.4563 75.474 62.3989 75.3974C62.3223 75.3017 62.3032 75.1868 62.3032 75.0528C62.3032 74.9763 62.3223 74.8423 62.3414 74.6508C62.3606 74.4594 62.418 74.2488 62.4754 74.0191C62.5329 73.7894 62.5903 73.5597 62.6477 73.3683C62.7243 73.2343 62.8009 73.0811 62.8392 72.9471C62.8966 72.8131 62.9157 72.7174 62.9157 72.6983C62.9349 72.6026 62.954 72.4877 62.9732 72.3728C62.9923 72.258 63.0306 72.1431 63.0689 72.0283C63.1072 71.9326 63.1263 71.8751 63.1454 71.856C63.1837 71.8177 63.222 71.7986 63.2794 71.7794C63.3369 71.7603 63.3943 71.7794 63.4517 71.7986C63.5092 71.8177 63.5474 71.8751 63.5857 71.9517C63.6623 72.0474 63.7197 72.1623 63.7197 72.2771C63.7197 72.4111 63.6814 72.6026 63.5857 72.8514C63.5092 73.0046 63.4517 73.196 63.3752 73.4065C63.2986 73.6171 63.2412 73.8085 63.2029 73.9808C63.1454 74.1531 63.1263 74.268 63.1072 74.3445L62.8774 74.4211C63.0114 74.3063 63.1263 74.1723 63.2412 74.0383C63.356 73.9043 63.4517 73.7894 63.49 73.7128C63.624 73.5406 63.7389 73.3874 63.8346 73.2726C63.9303 73.1577 64.0643 73.0046 64.2174 72.8323C64.3706 72.66 64.5237 72.5451 64.6769 72.5068C64.83 72.4686 64.9449 72.4494 65.0406 72.4494C65.2129 72.4877 65.3469 72.5643 65.4617 72.7174C65.5574 72.8706 65.634 73.0811 65.6723 73.3491C65.6723 73.464 65.6531 73.6554 65.6149 73.9617C65.8637 73.6363 66.1126 73.3683 66.3231 73.1768C66.4763 73.062 66.6103 73.0046 66.7634 72.9854C66.8974 72.9663 67.0314 73.0237 67.1271 73.1386C67.3377 73.2534 67.4526 73.4066 67.5291 73.6363C67.5866 73.866 67.6057 74.134 67.5674 74.4785C67.5483 74.6891 67.5483 74.8231 67.5483 74.9188C67.5674 75.0145 67.5866 75.1103 67.6249 75.206C67.6823 75.2443 67.7014 75.3017 67.6631 75.3974C67.6249 75.4931 67.5866 75.5505 67.5291 75.5505C67.4526 75.5505 67.3569 75.5314 67.2611 75.5123C67.1654 75.474 67.0697 75.4357 67.0123 75.3591C66.9357 75.2825 66.8974 75.1868 66.8974 75.0528V74.3254C66.8974 74.1531 66.8974 74.0191 66.8783 73.9043C66.8591 73.7894 66.84 73.732 66.8209 73.7128C66.7443 73.6746 66.6103 73.7128 66.4571 73.866C66.304 74.0191 66.1126 74.2105 65.9403 74.4594C65.7489 74.7083 65.5766 74.9571 65.4234 75.2251C65.2703 75.474 65.1937 75.608 65.1554 75.6463C65.1171 75.6845 65.0597 75.6654 64.9832 75.608C64.8109 75.5505 64.696 75.474 64.6577 75.3783C64.6194 75.2825 64.6003 75.1677 64.6386 75.0528C64.6769 74.9188 64.7343 74.7465 64.7917 74.5168C64.8492 74.2871 64.9066 74.0765 64.964 73.866C65.0214 73.6554 65.0597 73.5023 65.0597 73.4065C65.0214 73.3491 64.9831 73.33 64.9066 73.3491C64.83 73.3683 64.7534 73.4066 64.6769 73.464C64.5812 73.5214 64.4663 73.6363 64.3323 73.8085C64.1983 73.9808 64.0643 74.1723 63.9303 74.402C63.8346 74.5551 63.7389 74.6891 63.6432 74.8423C63.5474 74.9954 63.4517 75.1103 63.356 75.2251C63.2603 75.34 63.2029 75.4165 63.1263 75.474C63.0114 75.6463 62.9349 75.742 62.8966 75.7611C62.82 75.6845 62.7434 75.6654 62.6286 75.608Z" fill="#434244"/>
</svg>
