<svg width="165" height="121" viewBox="0 0 165 121" fill="none" xmlns="http://www.w3.org/2000/svg">
<path d="M46.2654 61.0349C46.2654 61.0349 38.7358 63.1048 26.0965 75.0525" stroke="#827467" stroke-width="1.661" stroke-miterlimit="10" stroke-linecap="round" stroke-linejoin="round"/>
<path d="M134.074 50.3961C134.074 50.3961 101.988 34.7746 76.419 48.3272C57.2995 58.4373 32.2438 66.4567 9.75099 67.6584" stroke="#827467" stroke-width="1.661" stroke-miterlimit="10" stroke-linecap="round" stroke-linejoin="round"/>
<path d="M60.7304 58.9365C64.445 54.1197 71.3355 50.9133 71.3355 50.9133C71.3355 50.9133 70.2277 58.4878 66.5131 63.3046C62.7985 68.1214 59.7159 69.5558 58.092 68.4364C56.5166 67.1842 57.0158 63.7533 60.7304 58.9365Z" fill="#AFB42B" stroke="#827467" stroke-width="1.661" stroke-miterlimit="10" stroke-linecap="round" stroke-linejoin="round"/>
<path d="M52.2628 51.4059C56.1344 52.1412 60.1182 55.2507 60.1182 55.2507C60.1182 55.2507 55.3319 56.8162 51.4602 56.081C47.5886 55.3457 45.7053 53.9058 46.0088 52.6617C46.1793 51.3691 48.3912 50.6707 52.2628 51.4059Z" fill="#26A69A" stroke="#827467" stroke-width="1.661" stroke-miterlimit="10" stroke-linecap="round" stroke-linejoin="round"/>
<path d="M79.4515 37.5409C83.9263 39.0984 88.0537 43.4647 88.0537 43.4647C88.0537 43.4647 82.1201 44.4611 77.6875 42.9942C73.2126 41.4367 71.3419 39.5498 71.833 37.9977C72.2333 36.4879 74.9281 36.1163 79.4515 37.5409Z" stroke="#827467" stroke-width="1.661" stroke-miterlimit="10" stroke-linecap="round" stroke-linejoin="round"/>
<path d="M99.7403 46.2987C103.875 44.0438 109.868 44.1229 109.868 44.1229C109.868 44.1229 106.552 49.0851 102.417 51.34C98.2824 53.5949 95.5095 53.5616 94.7439 52.1532C94.0203 50.8354 95.5635 48.4629 99.7403 46.2987Z" fill="#AFB42B" stroke="#827467" stroke-width="1.661" stroke-miterlimit="10" stroke-linecap="round" stroke-linejoin="round"/>
<path d="M32.594 55.5946C36.9235 57.5507 40.5491 62.2607 40.5491 62.2607C40.5491 62.2607 34.5859 62.7194 30.2565 60.7633C25.927 58.8073 24.2861 56.7031 24.91 55.1995C25.6183 53.8773 28.3068 53.7292 32.594 55.5946Z" stroke="#827467" stroke-width="1.661" stroke-miterlimit="10" stroke-linecap="round" stroke-linejoin="round"/>
<path d="M43.9108 65.2189C46.9297 61.2773 52.6837 58.7101 52.6837 58.7101C52.6837 58.7101 51.7043 64.9012 48.6854 68.8428C45.6665 72.7845 43.0372 74.0079 41.7697 72.9433C40.3631 72.0537 40.8919 69.1605 43.9108 65.2189Z" fill="#26A69A" stroke="#827467" stroke-width="1.661" stroke-miterlimit="10" stroke-linecap="round" stroke-linejoin="round"/>
<path d="M76.419 48.3271C76.419 48.3271 54.4244 52.4956 40.4784 44.0951" stroke="#827467" stroke-width="1.661" stroke-miterlimit="10" stroke-linecap="round" stroke-linejoin="round"/>
<path d="M40.1193 40.9534C41.9138 40.7802 43.3985 42.0746 43.6202 43.7362C43.7934 45.5306 42.499 47.0154 40.8374 47.2371C39.043 47.4103 37.5582 46.1158 37.3365 44.4542C37.0726 42.702 38.3249 41.1266 40.1193 40.9534Z" fill="#EF5350" stroke="#827467" stroke-width="1.661" stroke-miterlimit="10" stroke-linecap="round" stroke-linejoin="round"/>
<path d="M25.7859 71.7783C27.5803 71.6051 29.0651 72.8996 29.2868 74.5611C29.46 76.3556 28.1655 77.8403 26.504 78.062C24.8424 78.2837 23.2248 76.9408 23.0031 75.2792C22.7392 73.527 23.9915 71.9516 25.7859 71.7783Z" fill="#EF5350" stroke="#827467" stroke-width="1.661" stroke-miterlimit="10" stroke-linecap="round" stroke-linejoin="round"/>
<path d="M8.67292 64.6308C10.4674 64.4575 11.9521 65.752 12.1738 67.4136C12.347 69.208 11.0526 70.6927 9.39097 70.9144C7.59654 71.0876 6.11183 69.7932 5.89013 68.1316C5.62624 66.3794 6.87849 64.804 8.67292 64.6308Z" fill="#EF5350" stroke="#827467" stroke-width="1.661" stroke-miterlimit="10" stroke-linecap="round" stroke-linejoin="round"/>
<path d="M95.8957 43.014C95.8957 43.014 85.4585 46.6575 72.8335 67.6429" stroke="#827467" stroke-width="1.661" stroke-miterlimit="10" stroke-linecap="round" stroke-linejoin="round"/>
<path d="M72.1603 64.5371C73.8281 64.0919 75.5427 65.1691 75.9879 66.837C76.4331 68.5048 75.3559 70.2193 73.688 70.6646C72.0202 71.1098 70.3056 70.0326 69.8604 68.3647C69.4152 66.6968 70.3595 64.9338 72.1603 64.5371Z" fill="#EF5350" stroke="#827467" stroke-width="1.661" stroke-miterlimit="10" stroke-linecap="round" stroke-linejoin="round"/>
<path d="M148.092 59.4252C143.389 56.4296 141.176 47.6433 141.176 47.6433C141.176 47.6433 150.131 45.7924 154.791 48.6973C159.494 51.6928 153.803 52.0249 152.211 54.5303C150.62 57.0356 152.753 62.3301 148.092 59.4252Z" fill="#EF5350" stroke="#827467" stroke-width="1.661" stroke-miterlimit="10" stroke-linecap="round" stroke-linejoin="round"/>
<path d="M148.092 59.4252C143.389 56.4296 141.176 47.6433 141.176 47.6433C141.176 47.6433 150.131 45.7924 154.791 48.6973C159.494 51.6928 153.803 52.0249 152.211 54.5303C150.62 57.0356 152.753 62.3301 148.092 59.4252Z" fill="#FF7043" stroke="#827467" stroke-width="1.661" stroke-miterlimit="10" stroke-linecap="round" stroke-linejoin="round"/>
<path d="M153.526 45.9774C148.286 47.7538 139.983 43.8964 139.983 43.8964C139.983 43.8964 144.149 35.7816 149.388 34.0052C154.628 32.2288 151.367 36.8346 152.361 39.6811C153.312 42.437 158.765 44.201 153.526 45.9774Z" fill="#EF5350" stroke="#827467" stroke-width="1.661" stroke-miterlimit="10" stroke-linecap="round" stroke-linejoin="round"/>
<path d="M153.526 45.9774C148.286 47.7538 139.983 43.8964 139.983 43.8964C139.983 43.8964 144.149 35.7816 149.388 34.0052C154.628 32.2288 151.367 36.8346 152.361 39.6811C153.312 42.437 158.765 44.201 153.526 45.9774Z" stroke="#827467" stroke-width="1.661" stroke-miterlimit="10" stroke-linecap="round" stroke-linejoin="round"/>
<path d="M146.502 33.2528C144.611 38.4341 136.354 42.4968 136.354 42.4968C136.354 42.4968 132.696 34.162 134.587 28.9807C136.478 23.7994 138.024 29.2563 140.814 30.2743C143.695 31.2501 148.483 28.0293 146.502 33.2528Z" fill="#EF5350" stroke="#827467" stroke-width="1.661" stroke-miterlimit="10" stroke-linecap="round" stroke-linejoin="round"/>
<path d="M146.502 33.2528C144.611 38.4341 136.354 42.4968 136.354 42.4968C136.354 42.4968 132.696 34.162 134.587 28.9807C136.478 23.7994 138.024 29.2563 140.814 30.2743C143.695 31.2501 148.483 28.0293 146.502 33.2528Z" fill="#FF7043" stroke="#827467" stroke-width="1.661" stroke-miterlimit="10" stroke-linecap="round" stroke-linejoin="round"/>
<path d="M132.302 30.7062C135.166 35.4396 133.036 44.3722 133.036 44.3722C133.036 44.3722 124.2 41.9762 121.336 37.2428C118.471 32.5094 123.779 34.6719 126.282 33.1765C128.875 31.6388 129.437 25.9727 132.302 30.7062Z" fill="#EF5350" stroke="#827467" stroke-width="1.661" stroke-miterlimit="10" stroke-linecap="round" stroke-linejoin="round"/>
<path d="M132.302 30.7062C135.166 35.4396 133.036 44.3722 133.036 44.3722C133.036 44.3722 124.2 41.9762 121.336 37.2428C118.471 32.5094 123.779 34.6719 126.282 33.1765C128.875 31.6388 129.437 25.9727 132.302 30.7062Z" stroke="#827467" stroke-width="1.661" stroke-miterlimit="10" stroke-linecap="round" stroke-linejoin="round"/>
<path d="M121.296 40.2389C126.823 40.976 132.391 48.2014 132.391 48.2014C132.391 48.2014 124.948 53.5397 119.512 52.7604C113.985 52.0234 119.117 49.3044 119.513 46.3628C119.909 43.4211 115.818 39.369 121.296 40.2389Z" fill="#EF5350" stroke="#827467" stroke-width="1.661" stroke-miterlimit="10" stroke-linecap="round" stroke-linejoin="round"/>
<path d="M121.296 40.2389C126.823 40.976 132.391 48.2014 132.391 48.2014C132.391 48.2014 124.948 53.5397 119.512 52.7604C113.985 52.0234 119.117 49.3044 119.513 46.3628C119.909 43.4211 115.818 39.369 121.296 40.2389Z" stroke="#827467" stroke-width="1.661" stroke-miterlimit="10" stroke-linecap="round" stroke-linejoin="round"/>
<path d="M121.739 54.7021C125.827 50.9248 134.949 51.0919 134.949 51.0919C134.949 51.0919 134.468 60.2498 130.38 64.0271C126.292 67.8045 127.434 62.1995 125.437 60.0405C123.397 57.791 117.651 58.4794 121.739 54.7021Z" fill="#EF5350" stroke="#827467" stroke-width="1.661" stroke-miterlimit="10" stroke-linecap="round" stroke-linejoin="round"/>
<path d="M121.739 54.7021C125.827 50.9248 134.949 51.0919 134.949 51.0919C134.949 51.0919 134.468 60.2498 130.38 64.0271C126.292 67.8045 127.434 62.1995 125.437 60.0405C123.397 57.791 117.651 58.4794 121.739 54.7021Z" fill="#FF7043" stroke="#827467" stroke-width="1.661" stroke-miterlimit="10" stroke-linecap="round" stroke-linejoin="round"/>
<path d="M133.305 63.4385C132.924 57.8802 138.846 50.9332 138.846 50.9332C138.846 50.9332 145.654 57.0303 146.034 62.5886C146.415 68.1469 142.735 63.7932 139.732 63.9772C136.729 64.1612 133.685 68.9969 133.305 63.4385Z" fill="#EF5350" stroke="#827467" stroke-width="1.661" stroke-miterlimit="10" stroke-linecap="round" stroke-linejoin="round"/>
<path d="M133.305 63.4385C132.924 57.8802 138.846 50.9332 138.846 50.9332C138.846 50.9332 145.654 57.0303 146.034 62.5886C146.415 68.1469 142.735 63.7932 139.732 63.9772C136.729 64.1612 133.685 68.9969 133.305 63.4385Z" stroke="#827467" stroke-width="1.661" stroke-miterlimit="10" stroke-linecap="round" stroke-linejoin="round"/>
<path d="M130.356 47.3834C130.064 43.4382 133.113 40.0343 137.058 39.7426C141.003 39.4509 144.498 42.4572 144.79 46.4025C145.081 50.3477 142.033 53.7516 138.088 54.0433C134.052 54.3772 130.648 51.3287 130.356 47.3834Z" fill="#FFCA28" stroke="#827467" stroke-width="1.661" stroke-miterlimit="10" stroke-linecap="round" stroke-linejoin="round"/>
<path d="M133.947 45.3819C133.888 44.3065 135.327 42.4232 137.569 42.2626C139.72 42.1441 141.687 43.7653 141.747 44.8407C141.806 45.9161 140.168 46.8991 138.017 47.0175C135.908 47.2267 134.006 46.4573 133.947 45.3819Z" fill="#827467"/>
<path d="M139.651 49.345C139.59 49.9249 138.448 50.7875 136.883 50.7435C135.318 50.6995 133.96 49.6771 133.931 49.1394C133.992 48.5595 135.212 48.1017 136.819 48.2363C138.384 48.2804 139.712 48.7651 139.651 49.345Z" fill="#827467"/>
</svg>
