<svg width="88" height="93" viewBox="0 0 88 93" fill="none" xmlns="http://www.w3.org/2000/svg">
<path d="M83.0281 29.3785C84.2946 26.8422 86.5874 24.8562 86.5758 21.6502C82.3087 24.2049 77.8632 25.9314 72.8945 27.5186C77.9927 18.93 77.4767 17.552 67.5833 12.4333C67.4582 10.9958 67.3132 9.48551 67.1352 7.96855C66.5481 3.16594 63.3168 0.898911 58.6793 2.38027C53.6775 3.96081 49.3309 6.56838 46.3544 11.1042C45.4529 12.508 44.5248 13.872 43.5901 15.2692C42.7625 14.5865 42.9815 13.8381 42.9354 13.2088C42.7249 10.4797 42.7925 7.73744 42.0189 5.06762C40.8883 1.08609 38.0075 -0.180553 34.3171 1.55963C33.2504 2.06912 32.2234 2.72435 31.256 3.25377C23.7193 0.812301 19.3129 3.71792 18.4544 11.6065C18.2481 13.4942 18.3597 15.3423 18.3588 17.2368C18.3965 21.1714 20.1768 24.1464 23.4546 26.1816C26.3615 28.0047 29.3812 29.6092 32.3014 31.3661C33.2218 31.9296 34.3874 32.3011 35.1618 33.5931C27.6639 32.8474 20.723 31.0421 13.5762 30.2635C10.0327 29.8973 8.82676 30.5856 8.242 34.1887C7.85665 36.4539 7.94157 38.7789 7.48335 41.0639C5.8364 49.2767 4.15633 57.4828 2.84055 65.762C2.40189 68.6365 1.90365 71.4646 0.835788 74.213C0.0664162 76.16 -0.332128 78.3192 0.825958 80.4461C1.74656 80.6651 2.65389 80.9504 3.58114 81.1364C14.695 83.0895 25.8155 85.0095 36.9161 87.0289C46.3211 88.7427 55.8457 89.8604 65.1179 92.2365C67.4757 92.8471 68.8872 91.6489 69.0275 89.2313C69.0744 88.3106 69.1941 87.3701 69.38 86.4428C71.9174 72.7592 74.4879 59.0822 77.0517 45.4383C77.3307 43.8752 77.3513 42.3981 76.2989 40.9469C73.3717 39.9121 70.126 39.9502 67.1127 38.8292C71.2527 38.626 75.3 38.3697 79.1493 36.8681C83.2171 35.307 87.7167 31.4211 87.8305 29.1359C86.2743 28.3071 84.7765 29.9358 83.0281 29.3785ZM26.5945 25.8123C22.0253 23.3459 20.093 19.5825 20.3606 14.469C20.4609 12.5945 20.495 10.7067 20.9927 8.9119C22.32 4.01092 26.9973 2.50308 31.0163 5.65149C33.3073 7.45436 34.7103 9.90592 35.9211 12.4567C38.0848 16.9555 39.2283 21.7319 39.1398 26.2957C37.2136 23.7047 35.0822 20.9349 33.0236 18.1452C32.0439 16.8464 31.1438 15.4946 29.7864 14.5335C28.9719 13.9568 28.0844 13.7444 27.1435 14.3135C26.2358 14.8893 25.9902 15.7702 26.1023 16.7572C26.2869 18.5855 27.399 19.9108 28.7298 21.0045C32.3581 24.0401 35.0853 27.7906 37.8256 31.6471C37.0238 32.2097 36.5803 31.673 36.1167 31.4078C32.9184 29.4918 29.7929 27.556 26.5945 25.8123ZM31.1283 19.8664C29.7641 19.1106 28.5657 18.2157 28.4341 16.467C29.8844 17.1367 30.5792 18.4817 31.1283 19.8664ZM10.9511 34.2497C11.9187 33.3758 12.7732 33.2372 13.6342 33.4098C21.39 34.9307 29.1656 36.5244 37.0141 38.0983C36.018 43.0657 34.9754 48.2649 33.8929 53.6628C25.349 51.9495 17.1031 50.2959 8.55917 48.5825C9.22406 43.721 9.63066 38.7731 10.9511 34.2497ZM20.003 53.0132C21.2879 53.1331 22.5994 53.2927 24.2219 53.9626C22.3599 55.346 20.4584 56.067 19.1197 57.4176C17.2652 57.0457 15.8081 56.7535 13.7549 56.3418C16.1402 55.0977 18.0351 54.0654 20.003 53.0132ZM12.0262 56.2018C10.6817 55.8633 9.63499 56.1012 8.41661 55.3057C10.3051 53.962 12.0743 52.6978 13.7574 51.5196C15.1152 51.6197 16.2412 51.8454 17.4729 52.5747C15.7565 54.0907 13.4181 54.4141 12.0262 56.2018ZM28.5997 54.9783C27.3007 56.4746 25.4854 57.1096 24.2262 58.4072C23.2194 58.4464 22.3186 58.3002 20.9677 57.6504C23.7304 56.5854 25.7186 54.5727 28.5997 54.9783ZM32.4015 55.6029C32.4941 55.8281 32.6199 56.06 32.7191 56.2522C31.2548 57.1986 29.6845 57.9861 28.4452 59.1844C27.6569 59.3363 26.9349 59.3293 26.1338 58.5142C28.2937 57.5349 30.3476 56.5689 32.4015 55.6029ZM8.24032 50.3443C9.49235 50.1131 10.4791 50.5177 12.0155 51.2736C10.4782 52.2399 9.29879 52.9679 7.88082 53.8548C7.56365 52.3444 7.90199 51.3444 8.24032 50.3443ZM28.4335 81.9175C27.8637 82.3544 27.016 81.9433 26.2146 81.817C20.0416 80.8203 13.9085 79.797 7.74215 78.7671C5.11271 78.3087 3.91433 77.2417 4.08107 75.036C4.50148 68.9886 6.05448 63.1339 7.13739 56.8749C15.6149 58.9194 23.8874 60.4406 32.2786 62.7434C30.9903 69.1679 29.7352 75.4268 28.4335 81.9175ZM40.6603 19.401C39.5437 13.8032 36.8038 9.08563 33.1761 4.84448C37.2582 1.4949 39.7417 2.33741 40.481 7.23946C40.9431 10.4324 41.054 13.6583 41.2974 16.9107C41.3765 17.7189 41.3761 18.58 40.6603 19.401ZM70.3169 16.4951C74.1444 18.5372 74.4807 21.4983 71.2333 24.8086C70.0355 22.536 68.0019 22.7138 65.9749 23.0307C57.3962 24.4106 49.6181 27.6391 42.7993 33.1268C42.5542 33.3187 42.2759 33.5041 42.0307 33.696C41.8652 33.4906 41.6599 33.3117 41.6732 33.2454C45.3802 25.0668 49.9544 17.7167 59.4213 15.1714C63.2438 14.1466 66.8668 14.632 70.3169 16.4951ZM50.6633 30.3289C56.0766 27.2119 61.7214 24.8302 68.1332 24.9792C62.6935 28.0565 56.2816 27.9075 50.6633 30.3289ZM65.4154 28.9124C62.1223 30.9045 58.3599 31.1145 54.8026 31.5035C58.2545 29.9221 61.792 29.2881 65.4154 28.9124ZM42.9971 22.0054C45.2536 13.6737 50.0392 7.50271 58.367 4.45339C59.3342 4.0962 60.3147 3.84499 61.3745 3.88528C63.4212 3.98569 64.7985 4.84751 64.8636 7.09966C64.9224 8.69604 64.9812 10.2924 65.0333 12.0942C54.1304 12.0091 47.6754 18.4309 42.5508 26.9797C42.2205 25.1911 42.5459 23.5684 42.9971 22.0054ZM38.264 42.0004C40.3576 41.1802 41.8492 38.8957 44.6576 38.9766C42.9871 41.4663 40.178 42.591 38.3023 44.9017C37.6868 43.8482 37.9191 43.0336 38.264 42.0004ZM40.4221 57.5213C39.1826 59.064 38.1285 60.8851 35.2337 61.0624C36.8973 59.1225 38.6465 58.302 40.4221 57.5213ZM36.3834 53.7834C36.584 50.2066 40.1077 50.4998 41.9568 48.4937C42.4861 49.6333 42.1811 50.2956 41.823 51.0505C39.9415 51.6722 38.0401 52.3932 36.3834 53.7834ZM38.8604 54.4868C39.4107 53.4603 40.2984 53.3283 41.3318 53.1566C41.5699 53.8589 41.4107 54.3092 41.0925 54.6933C40.2577 55.077 39.6021 54.7389 38.8604 54.4868ZM37.4986 49.081C37.387 47.2329 39.7927 44.8561 43.5029 43.1888C43.648 44.3547 43.2435 45.3414 42.9912 46.4276C41.1559 47.3342 39.3273 48.2076 37.4986 49.081ZM33.9396 65.97C35.6555 65.3152 37.2062 63.9382 39.2396 64.1048C39.319 64.3963 39.3983 64.6878 39.5174 64.9528C37.6356 66.0912 35.7141 67.256 33.7926 68.4208C33.2565 67.4866 33.6675 66.8111 33.9396 65.97ZM32.4919 73.0171C32.5717 72.4475 32.7244 71.858 32.8572 71.1957C34.6794 69.8388 36.5282 68.5216 38.7544 67.3834C39.3166 69.0463 38.6203 70.4568 38.5864 72.0002C36.6253 72.847 34.6973 73.7005 32.5043 74.6731C32.4981 73.8451 32.4387 73.4543 32.4919 73.0171ZM32.1057 77.0045C33.9411 75.7535 36.0016 74.9266 38.4396 74.1065C38.2932 75.3517 38.1669 76.3253 38.0737 77.3056C36.0066 78.1657 34.0919 78.9529 31.9519 79.8328C31.555 78.7198 31.9131 77.9648 32.1057 77.0045ZM37.0769 83.4786C35.1825 83.4776 33.4936 83.1389 31.2352 82.376C33.5475 81.324 35.4026 80.4903 37.5625 79.5111C37.6742 81.187 37.4153 82.3063 37.0769 83.4786ZM49.5026 59.1356C50.4366 58.944 51.3175 59.1895 52.5559 59.7134C50.8793 61.2029 48.8785 61.904 47.553 63.3606C46.46 63.4859 45.5923 63.3464 44.8177 62.571C46.5272 61.6048 48.1704 60.6253 49.8401 59.6855C49.7077 59.4868 49.6018 59.3277 49.5026 59.1356ZM59.7992 66.0231C58.3552 66.0091 57.0768 65.8561 55.3947 65.1398C57.641 63.7301 59.728 62.7707 61.4311 61.321C62.65 61.0831 63.7959 61.0374 65.2992 61.7866C63.0133 63.0506 61.2639 64.3877 59.7992 66.0231ZM67.8227 62.086C68.7765 62.1395 69.5449 62.0869 70.2466 62.8821C68.5502 64.2988 66.3772 64.9998 65.0583 66.4232C63.9056 66.6743 63.091 66.4421 62.0579 66.0971C63.7876 64.3427 65.9805 63.5423 67.8227 62.086ZM53.3878 64.8407C52.295 64.6216 51.136 64.3892 50.01 64.1634C49.977 63.9845 49.944 63.8056 49.8778 63.6201C51.8258 62.4951 53.7672 61.4031 55.7549 60.2516C56.6492 60.2587 57.5831 60.2393 58.4968 61.0081C56.7872 62.3188 55.124 63.5698 53.3878 64.8407ZM42.447 61.3377C42.037 60.1187 42.574 59.1585 42.7467 58.1253C44.1511 57.8213 45.2573 57.9742 46.33 58.6372C45.0047 59.5771 43.8054 60.4044 42.447 61.3377ZM66.3468 85.4212C65.9087 87.2624 64.411 88.7189 62.1193 88.2938C55.2377 87.0516 48.323 85.8027 41.4481 84.5274C41.0507 84.4477 40.6799 84.2355 40.1037 84.0167C40.6568 77.6514 41.2032 71.3192 41.8161 64.4837C50.9357 67.4493 59.9568 68.6727 69.6868 69.4527C68.485 75.1023 67.6146 80.3016 66.3468 85.4212ZM74.1705 45.0328C73.7057 47.3509 73.2076 49.8346 72.7095 52.3183C72.2115 54.802 71.7068 57.3188 71.1954 59.8687C61.7636 58.6318 52.6301 57.1103 43.2052 55.3236C44.0493 49.7401 44.8734 44.4282 45.6909 39.1494C51.3611 38.8741 72.3632 43.0513 74.1705 45.0328ZM48.8525 35.2363C49.7407 34.0709 50.86 34.3298 51.7741 34.2376C55.3445 33.9546 58.8887 33.2874 62.393 32.6467C63.3204 32.4882 64.3406 32.3827 65.1158 31.9526C70.3238 28.8288 76.656 29.203 82.2084 26.0794C81.7895 29.199 78.3052 29.5681 77.5817 32.3167C79.8402 32.9074 81.4505 31.5768 83.868 31.8894C72.451 39.8653 60.6887 36.5075 48.8525 35.2363Z" fill="white"/>
</svg>
