<svg width="295" height="265" viewBox="0 0 295 265" fill="none" xmlns="http://www.w3.org/2000/svg">
<path d="M0 249.935C19.8492 254.729 32.8538 257.468 41.0673 258.152C42.4362 258.152 47.2274 258.152 51.3341 258.152C69.1299 257.468 69.8144 257.468 84.1879 258.152C90.348 258.152 95.1392 258.837 112.251 260.207C122.517 260.891 134.153 261.576 140.313 261.576C143.051 261.576 145.789 261.576 145.789 261.576C145.789 261.576 159.478 260.891 163.585 260.207C179.327 258.837 201.23 252.674 214.919 246.512C219.026 245.142 221.763 243.773 222.448 243.773C222.448 243.773 225.186 242.403 228.608 241.034C231.346 239.664 234.084 238.295 234.768 238.295C235.452 238.295 236.821 236.925 239.559 236.24C242.297 235.556 243.666 232.817 245.035 232.132C245.719 231.447 247.088 231.447 247.088 231.447C247.088 231.447 249.142 230.078 251.879 228.708C254.617 227.339 256.671 225.969 256.671 225.969C256.671 225.969 258.724 224.599 260.777 223.23C267.622 218.437 274.466 210.904 279.258 204.742C279.942 204.057 281.311 202.003 281.995 201.318C283.364 199.264 284.733 197.894 288.84 191.731C290.893 188.307 290.893 187.623 288.84 189.677C288.155 190.362 285.418 192.416 281.995 193.786C279.258 195.155 275.151 197.894 273.097 198.579C271.044 199.948 268.306 201.318 266.937 202.003C265.568 202.687 264.2 204.057 264.2 204.057C264.2 204.057 263.515 204.742 263.515 204.057H262.831C262.831 204.057 259.408 206.796 255.302 208.85C251.195 210.904 247.088 213.643 246.404 214.328C243.666 215.698 238.875 218.437 234.084 221.176C232.03 222.545 228.608 223.915 227.923 224.599C226.555 225.284 225.186 225.969 224.501 225.969C223.817 225.969 221.079 227.338 219.026 228.023C216.288 229.393 213.55 230.077 212.865 230.762C210.128 232.132 199.861 234.871 195.07 235.556C188.91 236.925 188.91 236.925 184.118 236.925C181.381 236.925 178.643 237.61 177.274 237.61C175.905 237.61 170.429 238.295 164.269 238.979C158.109 239.664 152.633 239.664 151.949 240.349C151.264 240.349 148.527 240.349 145.104 240.349C142.367 240.349 136.891 241.034 132.784 241.034C128.677 241.034 125.255 241.034 125.255 241.034H124.571C123.886 241.034 109.513 241.718 101.984 242.403C99.9304 242.403 97.877 242.403 97.1926 242.403C96.5081 242.403 94.4547 242.403 92.4014 242.403C88.9791 242.403 86.2413 242.403 82.819 242.403C82.1346 242.403 80.7657 242.403 79.3967 242.403C78.7123 242.403 75.29 242.403 71.8678 242.403C67.0766 242.403 57.4942 243.088 55.4408 243.088C54.7564 243.088 53.3875 243.088 52.0186 243.088C50.6496 243.088 47.2274 243.773 45.174 243.773C41.0673 244.457 39.6984 244.457 37.645 244.457C36.9606 244.457 34.2227 245.142 30.8005 245.142C24.6404 245.827 17.1114 246.512 16.4269 245.827H15.7425C15.058 246.512 9.58237 246.512 2.73779 245.142C2.05334 245.142 2.05334 245.142 1.3689 245.142V241.034C22.587 238.979 32.8538 234.186 44.4896 223.23C53.3875 215.013 69.8144 198.579 71.8678 195.84C72.5522 195.155 74.6056 193.101 76.6589 190.362C78.7123 188.307 80.7657 185.568 81.4501 184.884C82.1346 184.199 84.1879 181.46 86.2413 179.406C100.615 162.287 112.935 142.429 117.042 125.995C123.886 102.028 124.571 84.2248 118.411 71.2145C117.042 67.7907 111.566 60.2584 110.882 59.5736C110.882 59.5736 108.828 56.8346 106.09 54.0956C101.299 48.6176 99.9304 45.8786 96.5081 39.7158C95.8237 37.6615 94.4548 34.9225 94.4548 32.8682C93.7703 30.1292 93.7703 29.4444 93.7703 31.4987C91.7169 38.3462 92.4014 47.9328 95.1392 62.3127C101.299 95.1809 101.299 99.9741 96.5081 118.463C93.0858 130.103 93.7703 130.103 82.819 154.755C80.7657 160.233 72.5522 173.928 69.8144 177.351C68.4455 178.721 67.0766 181.46 65.7077 182.829C64.3387 184.199 63.6543 186.253 62.9698 186.253C62.9698 186.253 61.6009 188.307 59.5475 190.362C45.8584 208.85 25.3248 223.915 0.684448 234.186V230.762H1.3689C7.52899 228.023 17.7958 222.545 21.9025 220.491C26.0093 217.752 33.5383 212.959 34.2227 212.274C34.2227 212.274 35.5916 210.904 36.9605 209.535C53.3875 195.84 72.5522 170.504 80.7657 151.331C89.6636 130.788 90.348 128.734 92.4014 119.832C95.8237 109.561 96.5081 102.713 95.1392 91.0723C94.4547 84.2248 93.7703 81.4858 92.4014 72.584C89.6636 60.9431 87.6102 42.4548 88.9791 41.0853C88.9791 40.4005 88.9791 39.7158 88.9791 39.031C88.9791 38.3462 87.6102 39.031 80.0812 47.2481C58.8631 69.845 42.4362 89.0181 31.4849 103.398C30.8004 104.083 29.4315 106.137 28.0627 108.191C19.8492 119.147 8.89792 137.636 5.47565 145.853C3.42227 151.331 2.05334 155.439 0.684448 159.548V149.961V149.276C1.3689 147.222 2.73779 144.483 2.73779 143.798C3.42227 142.429 5.47562 137.636 8.21344 132.842C14.3735 120.517 18.4803 115.724 34.2227 95.1809C38.3295 89.7028 46.5429 80.1163 52.0186 73.9535C55.4408 69.845 59.5475 65.0517 60.9165 63.6822C62.2854 61.6279 69.1299 54.0956 75.9745 46.5633C82.819 39.031 88.2946 32.8682 88.2946 32.8682C88.2946 32.8682 80.7657 36.292 72.5522 41.0853C67.0766 44.509 62.9698 46.5633 52.0186 54.7804C43.1206 61.6279 21.2181 82.1705 12.3202 93.1266C7.52899 98.6046 5.47562 101.344 4.10672 103.398C3.42227 104.767 1.3689 106.822 0.684448 108.191C0.684448 108.191 0.684448 108.191 0.684448 108.876V97.9199C2.05334 94.4961 3.42227 90.3876 5.47565 85.5943C8.21344 77.3773 11.6357 62.9974 13.0046 55.4651C14.3735 45.1938 12.3202 35.6072 6.84454 24.6512C5.47565 22.5969 4.79117 19.8579 4.10672 18.4884C3.42227 17.8036 3.42227 16.4341 2.73779 16.4341C2.73779 16.4341 2.05334 15.0646 1.3689 13.6951C1.3689 13.6951 0.684448 13.0103 0.684448 12.3256V7.5323C2.73782 10.9561 4.79117 14.3798 4.79117 14.3798C4.79117 14.3798 5.47565 16.4341 6.84454 17.8036C8.21347 20.5426 8.89789 21.9121 11.6357 28.0749L12.3202 30.1292L15.7425 26.7054C19.8492 21.9121 21.2181 20.5426 26.6937 16.4341C30.8004 13.0103 41.7517 6.16279 44.4896 4.79328C45.174 4.10853 47.9118 3.42377 49.2807 2.05426C50.6496 0.684755 52.703 0 53.3875 0C54.7564 0 54.7564 0 56.8097 4.10853C58.8631 7.5323 59.5476 9.58656 63.6543 15.7494C65.7077 19.1731 67.761 28.0749 67.761 31.4987C67.761 32.8682 67.0766 36.292 67.0766 38.3462L66.3921 42.4548L68.4455 41.0853C69.8144 40.4005 71.8677 39.031 72.5522 38.3462C79.3967 34.9225 81.4501 33.553 81.4501 33.553C81.4501 33.553 82.819 32.8682 83.5035 32.1835C84.8724 31.4987 85.5568 30.814 86.2413 30.814L86.9258 30.1292C86.9258 30.1292 88.9791 28.7597 91.7169 27.3902C96.5081 24.6512 97.877 25.3359 96.5081 29.4444C94.4548 36.292 97.877 43.8243 110.197 58.2041C120.464 70.5297 123.202 76.6925 124.571 88.3333L125.255 93.8114L126.624 91.0723C127.309 89.7028 129.362 86.2791 132.1 82.8553C134.153 79.4315 138.944 71.8992 142.367 66.4212C149.211 54.0956 149.896 53.4109 153.318 55.4651C154.687 56.1499 158.794 60.9431 161.531 64.3669C162.216 65.0517 164.269 67.7907 165.638 69.845C171.798 77.3773 175.22 84.2248 176.589 91.0723C177.274 96.5504 177.274 104.767 175.905 107.506C175.22 108.876 175.22 109.561 175.22 109.561C175.22 109.561 177.958 109.561 180.696 109.561C188.91 108.876 189.594 108.876 199.176 108.191C206.021 108.191 221.079 108.876 222.448 109.561C222.448 109.561 223.132 109.561 223.817 109.561C224.501 109.561 240.244 115.039 247.088 117.778C259.408 123.256 274.466 131.473 278.573 134.897C279.258 135.581 281.311 136.951 283.364 137.636C288.155 140.375 288.155 141.059 287.471 142.429C285.418 145.853 274.466 156.809 267.622 161.602C262.831 165.711 250.51 173.243 247.088 175.982C241.613 178.036 241.613 178.036 247.088 178.721C248.457 178.721 254.617 180.09 260.093 180.775C275.151 183.514 276.52 183.514 286.102 184.199C294.316 184.884 295 184.884 295 186.253C295 186.938 292.262 192.416 289.524 195.155C289.524 195.84 288.155 197.209 286.787 198.579C279.258 208.85 269.675 219.121 260.093 225.969C250.51 232.817 221.079 248.566 212.181 251.305C211.497 251.305 210.128 251.99 208.759 252.674C207.39 253.359 203.968 254.044 200.545 255.413C170.429 264.315 145.104 266.369 104.722 262.261C90.348 260.891 80.0812 260.207 69.1299 260.207C60.9165 260.207 60.9165 260.207 54.7564 260.891C43.1207 261.576 36.2761 260.891 21.9025 257.468C16.4269 256.098 6.84454 254.044 1.3689 252.674V249.935H0ZM23.9559 21.2274C16.4269 27.3902 13.0046 32.8682 13.6891 36.292C16.4269 45.8786 15.7424 53.4109 13.0046 67.1059C11.6357 72.584 8.89792 82.1705 7.52899 86.9638C7.52899 87.6486 8.89792 84.9096 10.9513 80.801C17.1114 68.4754 22.587 58.8889 22.587 57.5194C22.587 56.8346 23.2715 54.7804 24.6404 52.7261C25.3248 50.6718 26.6937 47.9328 26.6937 45.8785C28.0626 44.509 28.0626 42.4548 28.7471 41.77C28.7471 41.0853 29.4315 39.7158 29.4315 39.031C30.116 32.8682 36.9605 20.5426 45.174 10.9561C47.2274 8.21705 49.2807 5.47804 49.2807 5.47804C48.5963 4.10853 29.4315 16.4341 23.9559 21.2274ZM62.2854 19.8579C61.6009 18.4884 56.1253 8.21705 55.4408 7.5323C55.4408 6.84754 54.7564 6.16279 54.0719 5.47804C53.3875 4.10853 53.3875 4.10853 52.703 5.47804C52.0185 6.16279 49.9652 8.90181 47.9118 11.6408C39.6984 21.9121 35.5916 28.0749 33.5383 35.6072C32.8538 36.9767 32.1693 39.031 32.1693 39.031C32.1693 39.031 31.4849 41.0853 31.4849 42.4548C30.116 49.9871 25.3248 60.9431 12.3202 84.9096C9.58237 90.3876 6.84454 95.8656 6.84454 95.8656C6.84454 95.8656 7.52899 95.8656 7.52899 95.1809C7.52899 94.4961 10.2668 91.7571 12.3202 89.7028C28.7471 71.8992 44.4896 57.5194 58.1787 47.9328L62.2854 44.509L63.6543 40.4005C65.0232 32.8682 65.0232 29.4444 62.2854 19.8579ZM149.211 65.7364C148.527 59.5736 148.527 58.8889 147.842 60.9431C146.473 65.0517 137.575 79.4315 132.1 86.9638C131.415 87.6486 130.046 91.0723 128.677 93.8114C126.624 98.6046 125.94 102.028 124.571 112.3C123.886 114.354 123.202 119.147 122.517 121.886L121.148 127.364L123.886 123.256C127.993 118.463 127.993 118.463 132.1 112.984C147.158 94.4961 150.58 84.9096 149.211 65.7364ZM170.429 84.2248C169.06 80.801 162.9 71.2145 161.531 70.5297C161.531 70.5297 160.847 69.1602 159.478 68.4754C157.425 65.7364 153.318 60.9431 152.633 60.2584C152.633 60.2584 151.949 59.5736 151.264 58.8889C150.58 58.2041 150.58 58.8889 150.58 63.6822C151.264 73.2687 151.264 79.4315 149.896 86.2791C148.527 93.1266 140.998 105.452 133.469 114.354C132.1 116.408 130.046 118.463 129.362 119.832C128.677 121.202 127.309 122.571 126.624 123.256C124.571 125.31 124.571 125.995 127.309 123.941C130.046 121.886 133.469 120.517 138.26 118.463C139.629 117.778 142.367 117.093 143.051 116.408C144.42 115.724 148.527 114.354 152.633 113.669C159.478 111.615 162.216 110.93 168.376 110.245C170.429 110.245 170.429 109.561 171.798 106.822C174.536 101.344 173.852 91.0723 170.429 84.2248ZM273.097 134.212C243.666 117.093 226.555 110.93 201.914 110.93C196.439 110.93 167.007 112.984 165.638 113.669C165.638 113.669 162.216 114.354 158.794 115.039C153.318 116.408 150.58 117.093 145.789 118.463C145.104 118.463 142.367 119.832 139.629 121.202C136.891 122.571 134.838 123.256 134.838 123.256H134.153C134.153 123.256 132.784 124.625 131.415 125.31C127.993 127.364 126.624 128.734 123.886 132.842C121.833 136.266 118.411 139.005 116.357 139.69C114.988 139.69 114.988 140.375 113.619 143.798C110.197 152.7 98.5615 170.504 88.2946 182.829C83.5035 188.992 82.1346 190.362 85.5568 186.938C86.9258 185.568 91.0325 182.145 95.8237 178.036C99.9304 174.612 106.09 169.134 108.828 166.395C123.886 152.7 129.362 148.592 142.367 143.798C155.371 139.005 173.852 133.527 188.91 131.473C214.919 127.364 249.826 128.734 270.36 135.581C273.097 136.266 275.835 136.951 276.52 136.951C276.52 136.266 275.151 135.581 273.097 134.212ZM280.626 139.69C279.942 140.375 275.835 139.69 268.306 136.951C255.302 132.842 236.821 130.788 209.443 131.473C203.283 131.473 184.118 134.212 177.274 135.581C164.954 138.32 151.949 142.429 145.104 145.168C130.731 150.646 127.309 153.385 106.775 171.189C104.722 173.243 101.984 175.982 90.348 185.568C88.2947 186.938 86.9258 188.992 86.2413 188.992C84.8724 189.677 63.6543 209.535 63.6543 209.535C63.6543 209.535 74.6056 204.742 81.4501 200.633C86.2413 197.894 90.348 196.525 90.348 196.525C90.348 196.525 91.0325 196.525 91.0325 195.84C92.4014 193.786 113.619 187.623 133.469 183.514C134.153 183.514 147.842 179.406 163.585 175.297C180.012 170.504 199.861 165.711 208.759 163.656C228.608 159.548 242.297 155.439 251.195 152.016C260.777 149.276 260.777 149.276 263.515 147.907C264.884 147.222 268.991 145.168 273.782 143.114C277.889 141.744 281.311 139.69 281.311 139.69C280.626 139.69 280.626 139.69 280.626 139.69ZM278.573 147.222C280.626 145.168 281.995 143.114 282.68 143.114C282.68 142.429 277.889 144.483 266.937 149.961C248.457 158.863 235.452 162.972 208.074 168.45C199.176 170.504 178.643 175.982 162.9 180.09C147.158 184.199 133.469 188.307 132.1 188.307C116.357 191.731 102.668 195.155 91.7169 199.948C90.348 200.633 85.5568 203.372 84.8724 203.372C84.1879 204.057 72.5522 209.535 64.3387 213.643C62.2854 215.013 60.232 215.698 60.232 215.698C60.232 215.698 62.9698 215.698 67.0766 215.698C71.1833 215.698 74.6056 215.013 75.29 215.013C75.9745 215.013 77.3434 215.013 77.3434 215.013C80.0812 215.013 107.459 214.328 109.513 213.643C110.197 213.643 110.882 213.643 112.251 213.643C117.726 213.643 121.833 212.959 125.94 212.274C127.309 212.274 130.731 212.274 132.784 211.589C154.002 208.85 185.487 200.633 201.23 194.47C202.599 193.786 203.968 193.101 204.652 193.101C206.021 192.416 213.55 188.992 221.763 185.568C242.297 175.982 264.884 160.917 278.573 147.222ZM278.573 186.938C271.044 186.253 264.2 184.884 241.613 180.775C238.875 180.09 237.506 180.775 236.137 181.46C229.977 184.884 227.239 186.253 227.239 186.253C227.239 186.253 226.555 186.938 225.87 186.938C223.817 188.307 207.39 195.155 203.283 196.525C201.914 197.209 199.861 197.894 197.807 198.579C192.332 200.633 186.172 202.687 177.274 205.426C169.06 207.481 165.638 208.165 154.687 210.904C151.264 211.589 148.527 212.274 147.842 212.274C143.735 212.959 136.206 214.328 128.677 215.013C125.94 215.013 123.202 215.698 123.202 215.698C121.148 216.382 109.513 217.067 108.828 217.067C108.828 217.067 108.144 217.067 107.459 217.067C106.775 217.752 101.299 217.752 100.615 217.752C100.615 217.752 98.5615 217.752 97.1926 217.752C93.0858 217.752 82.819 218.437 81.4501 218.437C79.3967 218.437 73.9211 218.437 65.0232 219.121C56.8098 219.806 56.1253 219.806 51.3341 223.915C47.9118 226.654 43.1207 230.762 39.6984 233.501C32.8538 238.979 23.2715 243.088 13.6891 245.142C11.6357 245.827 9.58237 245.827 9.58237 245.827C10.2668 246.512 30.8004 244.457 38.3295 243.773C46.5429 242.403 63.6543 241.034 71.8678 241.034C81.4501 241.034 113.619 239.664 125.94 238.979C128.677 238.979 131.415 238.979 132.1 238.979C132.784 238.979 136.206 238.979 140.313 238.295C143.735 238.295 147.158 237.61 147.842 237.61C147.842 237.61 149.896 237.61 151.949 237.61C154.002 237.61 155.371 237.61 155.371 237.61C155.371 237.61 159.478 237.61 164.269 236.925C175.905 235.556 177.274 235.556 178.643 235.556C179.327 235.556 182.749 234.871 186.172 234.871C195.07 233.501 200.545 232.817 206.021 230.762C211.497 229.393 222.448 224.599 225.186 223.23C229.292 221.176 234.084 218.437 234.768 218.437C234.768 218.437 235.452 218.437 235.452 217.752C235.452 217.067 240.244 215.013 245.035 212.274C245.035 211.589 247.088 210.904 247.088 210.904C247.773 210.904 249.142 209.535 250.51 208.85C251.879 208.165 253.933 206.796 255.302 206.111C256.671 205.426 258.724 204.057 260.093 203.372C261.462 202.687 262.831 201.318 263.515 201.318C264.2 201.318 264.2 201.318 264.2 201.318C264.2 201.318 264.884 200.633 266.253 199.948C267.622 199.264 269.675 197.894 270.36 197.894C273.782 195.84 278.573 193.101 280.626 191.731C281.995 191.046 284.049 189.677 285.418 188.992C286.787 188.307 287.471 187.623 287.471 187.623C286.787 187.623 283.364 186.938 278.573 186.938Z" fill="#8AC926"/>
</svg>
