<svg width="101" height="106" viewBox="0 0 101 106" fill="none" xmlns="http://www.w3.org/2000/svg">
<path d="M87.225 91.8179C11.225 88.3179 -3.10833 30.4845 4.225 0.817871C0.224975 9.81787 -1.02923 19.8476 6.22495 43.8179C17.7249 81.8179 66.2249 91.4179 87.225 91.8179Z" fill="#8AC926" stroke="#8AC926" stroke-linecap="round" stroke-linejoin="bevel"/>
<path d="M81.4214 98.7783C83.7388 97.6748 86.209 96.8993 88.5929 95.9807C89.7231 95.5434 90.8534 95.106 91.9639 94.7105C92.4772 94.4929 95.3641 93.8123 95.4757 93.2511C95.5524 92.9805 93.0652 91.1899 92.7473 90.886C91.8378 90.0976 90.9283 89.3092 90.0189 88.5208C88.2221 87.0057 85.8036 85.5034 84.6364 83.4164C84.2055 82.7009 84.9118 81.8584 85.6861 82.1735C87.1508 82.7642 88.2769 83.962 89.4624 85.0345C90.7958 86.228 92.1908 87.3996 93.5242 88.5932C94.7935 89.7053 98.1958 91.6219 97.8286 93.6992C97.459 95.6731 93.6745 96.0826 92.1519 96.5901C88.7588 97.7986 85.3506 99.2559 81.8665 100.114C80.9609 100.402 80.56 99.1894 81.4214 98.7783Z" fill="#8AC926"/>
</svg>
