<svg width="212" height="202" viewBox="0 0 212 202" fill="none" xmlns="http://www.w3.org/2000/svg">
<path d="M182.482 78.0528C185.407 79.8397 193.625 72.792 195.106 71.6448C196.416 70.6113 197.846 69.3393 199.808 70.4167C201.952 71.5848 201.918 74.8426 202.285 76.6132C203.156 81.0169 204.159 85.3866 204.809 89.7792C205.108 91.913 203.074 91.8911 202.514 89.8255C201.649 86.3185 201.916 83.1263 201.005 78.952C200.432 76.3256 199.806 72.6981 198.817 72.4034C198.635 72.3127 194.181 75.5499 194.181 75.5499C191.18 77.9237 181.958 80.4708 181.958 80.4708L181.703 79.7339C181.703 79.7339 181.588 79.2798 181.577 79.0755C181.581 78.3831 182.403 78.0044 182.482 78.0528Z" fill="#8AC926"/>
<path d="M196.5 80.8185C186.5 115.818 131.417 163.014 64.3764 133.736C-19.4248 97.1383 55.1733 36.836 75.1747 81.8353C91.1759 117.835 52.2431 136.303 30.7766 141.037" stroke="#8AC926" stroke-width="2" stroke-linecap="round"/>
</svg>
