<svg width="56" height="68" viewBox="0 0 56 68" fill="none" xmlns="http://www.w3.org/2000/svg">
<path d="M52.0175 16.2528C52.4304 14.2294 53.6693 12.3997 53.0567 10.1461C50.5359 12.7481 47.7335 14.8011 44.5366 16.8547C46.5045 9.85035 45.8817 8.978 37.9553 7.2416C37.5963 6.25376 37.2095 5.21839 36.7982 4.18458C35.4797 0.916008 32.7787 -0.0699218 29.7949 1.84674C26.5734 3.90188 24.0067 6.55613 22.7675 10.3088C22.3978 11.4666 22.002 12.6013 21.6077 13.7606C20.8967 13.4363 20.9097 12.8684 20.7586 12.4343C20.0959 10.5537 19.6265 8.61144 18.5788 6.87874C17.0326 4.29038 14.7668 3.94226 12.4982 5.86248C11.8437 6.42208 11.2446 7.07676 10.6638 7.63165C4.90042 7.33472 2.34778 10.21 3.23098 15.9225C3.44171 17.2896 3.86871 18.5689 4.2252 19.9021C4.99355 22.6635 6.80712 24.4211 9.49717 25.2352C11.8863 25.9699 14.3135 26.5296 16.6995 27.2152C17.4534 27.4381 18.3436 27.4798 19.132 28.2429C13.7157 29.1318 8.49157 29.1702 3.3161 29.9697C0.753698 30.3802 0.034956 31.0918 0.30282 33.7373C0.458744 35.4038 0.956844 37.0237 1.06523 38.7179C1.4548 44.8072 1.81982 50.898 2.45492 56.9715C2.68822 59.0768 2.87085 61.1607 2.63764 63.2959C2.46338 64.8109 2.59003 66.4053 3.80589 67.6835C4.49495 67.6641 5.18716 67.6937 5.87465 67.6497C14.0629 66.9287 22.2496 66.183 30.441 65.511C37.3818 64.9437 44.2942 63.9344 51.2664 63.8582C53.0405 63.8433 53.8078 62.7341 53.4507 61.0065C53.3101 60.3499 53.217 59.6655 53.173 58.978C52.3785 48.8715 51.6086 38.7633 50.8402 28.6797C50.7418 27.5273 50.4779 26.4841 49.4637 25.6614C47.2089 25.4852 44.9323 26.1239 42.6008 25.9032C45.4755 24.9797 48.275 24.0363 50.7003 22.254C53.2682 20.3886 55.7017 16.806 55.3509 15.1767C54.0996 14.8869 53.3528 16.3153 52.0175 16.2528ZM11.6369 24.3833C7.95683 23.5094 5.88772 21.2256 5.11192 17.5772C4.8291 16.2393 4.49717 14.9046 4.50899 13.5479C4.51889 9.84917 7.52565 7.90638 10.9472 9.36395C12.899 10.2006 14.3484 11.661 15.6814 13.2276C18.052 15.9851 19.7571 19.1303 20.5553 22.3582C18.7115 20.8983 16.6895 19.3512 14.715 17.7764C13.7808 17.0472 12.8926 16.2658 11.7563 15.8455C11.0745 15.5932 10.41 15.6111 9.85527 16.189C9.3251 16.7653 9.31841 17.4314 9.58337 18.1047C10.0579 19.3564 11.0903 20.0792 12.2329 20.5978C15.3582 22.0497 17.9842 24.1745 20.6395 26.3714C20.1814 26.9184 19.7681 26.6244 19.3919 26.5252C16.7803 25.7801 14.2161 25.0073 11.6369 24.3833ZM13.7059 19.3448C12.6036 19.0702 11.5916 18.6665 11.1693 17.4609C12.3161 17.6587 13.0585 18.4741 13.7059 19.3448ZM2.22055 33.2695C2.73658 32.4722 3.31172 32.2135 3.95011 32.1727C9.69403 31.7805 15.4656 31.4359 21.2848 31.0637C21.5204 34.7467 21.767 38.6015 22.0231 42.6037C15.6883 43.009 9.57453 43.4002 3.23975 43.8054C2.791 40.2593 2.14425 36.7012 2.22055 33.2695ZM12.1273 44.7654C13.054 44.6075 14.0069 44.4726 15.2748 44.638C14.2255 45.9625 13.0235 46.8283 12.3362 48.031C10.9612 48.119 9.88084 48.1881 8.35853 48.2855C9.8023 46.9604 10.941 45.8767 12.1273 44.7654ZM7.11573 48.5129C6.1059 48.5282 5.41428 48.8929 4.40701 48.5629C5.48247 47.2614 6.48899 46.0383 7.45112 44.892C8.4254 44.7064 9.26022 44.653 10.2643 44.9339C9.34248 46.3242 7.75808 46.9926 7.11573 48.5129ZM18.5467 44.5273C17.9148 45.8251 16.7572 46.6141 16.1158 47.7645C15.4148 47.982 14.7534 48.0489 13.6803 47.8464C15.4235 46.5761 16.4429 44.7851 18.5467 44.5273ZM21.3395 44.25C21.4471 44.391 21.5793 44.5305 21.6854 44.647C20.8335 45.589 19.877 46.4391 19.231 47.5159C18.7049 47.7715 18.1956 47.9027 17.4783 47.4801C18.8134 46.3839 20.0764 45.3169 21.3395 44.25ZM3.34756 45.1052C4.18494 44.7065 4.95552 44.8051 6.17906 45.0473C5.27959 46.0171 4.58698 46.7517 3.75646 47.643C3.24853 46.6401 3.29804 45.8726 3.34756 45.1052ZM23.5088 63.5138C23.1902 63.9287 22.5162 63.7992 21.9285 63.8614C17.3971 64.3239 12.8887 64.7603 8.35578 65.1982C6.4192 65.3714 5.37481 64.8465 5.07628 63.2631C4.23194 58.9288 4.22085 54.5164 3.80277 49.9082C10.1532 49.7485 16.2608 49.2591 22.5993 49.2974C22.904 54.0608 23.2009 58.7013 23.5088 63.5138ZM20.3252 17.2203C18.4842 13.492 15.6669 10.6892 12.3147 8.38892C14.5554 5.26244 16.4617 5.38702 17.9062 8.69685C18.8333 10.8564 19.5195 13.1053 20.304 15.3479C20.512 15.9016 20.6741 16.5076 20.3252 17.2203ZM40.6445 9.58425C43.7227 10.2995 44.5176 12.3196 42.8568 15.261C41.5855 13.8878 40.1881 14.3963 38.8216 15.0015C33.0456 17.5898 28.1814 21.3279 24.4181 26.4748C24.2818 26.6561 24.1209 26.839 23.9846 27.0203C23.8294 26.9069 23.6513 26.8197 23.6481 26.7706C24.7145 20.317 26.5473 14.2828 32.7285 10.707C35.2249 9.26532 37.8657 8.9238 40.6445 9.58425ZM29.4239 23.0235C32.6452 19.8096 36.168 17.0696 40.7076 15.9656C37.4602 19.1564 32.9206 20.2605 29.4239 23.0235ZM39.5369 19.2455C37.5953 21.268 34.9875 22.1252 32.5579 23.0695C34.6886 21.3061 37.0581 20.193 39.5369 19.2455ZM22.4605 18.6122C22.4774 12.3244 24.6812 7.08002 29.9659 3.36434C30.5792 2.93064 31.2217 2.56904 31.975 2.39757C33.4341 2.08234 34.5657 2.42906 35.0361 4.00147C35.3784 5.11365 35.7208 6.22582 36.0971 7.48375C28.4095 9.47946 25.0784 15.215 23.0843 22.1964C22.5147 21.0001 22.4377 19.797 22.4605 18.6122ZM22.9 33.5736C24.2184 32.6017 24.8372 30.7131 26.8286 30.2406C26.1226 32.3073 24.358 33.6283 23.4739 35.6078C22.8422 34.9826 22.852 34.3656 22.9 33.5736ZM27.3447 44.0877C26.7634 45.4069 26.365 46.8869 24.3616 47.5575C25.1664 45.8788 26.2425 44.9718 27.3447 44.0877ZM23.7982 42.219C23.265 39.6644 25.7997 39.2064 26.7225 37.4463C27.3098 38.1483 27.2201 38.6718 27.1104 39.2705C25.9038 40.0627 24.7018 40.9285 23.7982 42.219ZM25.6737 42.2469C25.8674 41.421 26.4671 41.1607 27.1619 40.8451C27.4618 41.2943 27.4347 41.6412 27.2832 41.9714C26.7682 42.3988 26.2431 42.2845 25.6737 42.2469ZM23.6963 38.7C23.2693 37.4207 24.514 35.2948 26.8102 33.4221C27.1322 34.2151 27.0335 34.9856 27.0608 35.7975C25.9404 36.7814 24.8184 37.7407 23.6963 38.7ZM24.3763 51.2546C25.4602 50.4703 26.2917 49.2091 27.7539 48.943C27.8647 49.1331 27.9755 49.3233 28.1092 49.4873C26.9998 50.643 25.8673 51.8249 24.7349 53.0068C24.1816 52.4505 24.3435 51.8977 24.3763 51.2546ZM24.6863 56.4861C24.6351 56.0702 24.6313 55.6267 24.5999 55.1356C25.6263 53.8373 26.6788 52.5619 28.0306 51.3413C28.7397 52.4054 28.5157 53.5292 28.7828 54.6215C27.5626 55.5871 26.3669 56.5511 25.0073 57.6489C24.8468 57.0675 24.7313 56.8037 24.6863 56.4861ZM25.1663 59.3645C26.2219 58.1383 27.5158 57.1679 29.0767 56.1312C29.2084 57.035 29.3031 57.7439 29.4223 58.4512C28.13 59.4461 26.9312 60.361 25.5913 61.3836C25.1022 60.6753 25.2119 60.0766 25.1663 59.3645ZM29.8848 62.9826C28.5516 63.3391 27.2994 63.4192 25.5665 63.3082C26.9952 62.132 28.1433 61.1957 29.4785 60.0995C29.873 61.2576 29.9019 62.094 29.8848 62.9826ZM34.0383 43.5115C34.6594 43.2006 35.3255 43.2073 36.2956 43.3425C35.3968 44.7066 34.1211 45.5771 33.4631 46.8519C32.7176 47.1462 32.0808 47.2116 31.3896 46.812C32.4103 45.8099 33.3818 44.8109 34.3795 43.8348C34.2489 43.7199 34.1444 43.628 34.0383 43.5115ZM42.5818 46.4165C41.5631 46.6789 40.6348 46.8122 39.3162 46.6254C40.6309 45.21 41.9185 44.1415 42.8435 42.8003C43.6564 42.4031 44.4541 42.1548 45.653 42.3986C44.2829 43.719 43.3041 44.9897 42.5818 46.4165ZM47.4851 42.1335C48.1663 41.9913 48.6971 41.8094 49.3408 42.2367C48.4142 43.5533 47.0174 44.4562 46.3577 45.7065C45.594 46.1005 44.9771 46.0907 44.1851 46.0427C45.0714 44.4821 46.4635 43.5055 47.4851 42.1335ZM37.8477 46.7933C37.0375 46.8452 36.1781 46.9001 35.3433 46.9535C35.2863 46.8339 35.2294 46.7143 35.1478 46.5962C36.3064 45.4373 37.4665 44.303 38.6481 43.118C39.2786 42.9544 39.9321 42.7646 40.72 43.1334C39.7641 44.3779 38.8297 45.5718 37.8477 46.7933ZM29.489 46.3912C28.9706 45.6108 29.1675 44.8339 29.0942 44.0744C30.0251 43.5957 30.8322 43.4947 31.712 43.759C30.9567 44.6702 30.2688 45.4784 29.489 46.3912ZM50.8462 58.831C50.885 60.2092 50.1058 61.5164 48.4132 61.6493C43.3369 62.0727 38.2361 62.4976 33.1582 62.8965C32.8636 62.9153 32.5627 62.836 32.116 62.7906C31.3051 58.2075 30.4957 53.649 29.6382 48.7238C36.6141 49.0911 43.1923 48.2511 50.1857 46.9655C50.4052 51.1672 50.773 54.9897 50.8462 58.831ZM48.7365 28.9376C48.8464 30.6563 48.9642 32.4978 49.0821 34.3393C49.1999 36.1808 49.3193 38.0469 49.4402 39.9375C42.5706 40.8454 35.8571 41.4968 28.8886 42.0166C28.4299 37.9287 28.0082 34.0357 27.5882 30.1673C31.526 28.9046 47.0912 27.8841 48.7365 28.9376ZM29.075 26.8179C29.4802 25.8304 30.3166 25.8016 30.9424 25.5643C33.4013 24.6921 35.7693 23.5544 38.1143 22.4429C38.7369 22.1565 39.4348 21.89 39.8992 21.4411C42.9747 18.2613 47.5008 17.3307 50.8188 14.086C51.1122 16.36 48.7301 17.2767 48.7393 19.347C50.4397 19.3369 51.3219 18.097 53.0819 17.8612C46.5523 25.6258 37.643 25.4808 29.075 26.8179Z" fill="white"/>
</svg>
