<svg width="31" height="25" viewBox="0 0 31 25" fill="none" xmlns="http://www.w3.org/2000/svg">
<path d="M0.147614 12.3744C0.147614 11.6809 0.663015 11.1077 1.33171 11.017L1.51761 11.0044L28.9176 11.0044C29.6742 11.0044 30.2876 11.6178 30.2876 12.3744C30.2876 13.068 29.7722 13.6412 29.1035 13.7319L28.9176 13.7444L1.51761 13.7444C0.760983 13.7444 0.147614 13.1311 0.147614 12.3744Z" fill="white"/>
<path d="M16.9018 2.34081C16.3656 1.80695 16.3637 0.939512 16.8976 0.403343C17.3829 -0.0840839 18.1439 -0.129938 18.6811 0.266853L18.8351 0.39917L29.8864 11.403C30.3753 11.8898 30.4198 12.6535 30.0198 13.1907L29.8865 13.3446L18.8352 24.3502C18.299 24.8841 17.4316 24.8823 16.8977 24.3462C16.4123 23.8588 16.3697 23.0976 16.7687 22.5621L16.9017 22.4088L26.9777 12.3733L16.9018 2.34081Z" fill="white"/>
</svg>
