<svg width="63" height="66" viewBox="0 0 63 66" fill="none" xmlns="http://www.w3.org/2000/svg">
<path d="M36.5999 20.9179C34.2999 19.0179 31 18.7179 28.2 19.4179C26.7 19.8179 25 20.3179 23.6 21.1179C22.9 21.6179 22.3 22.2179 21.6 22.8179C20.9 23.3179 20.2 23.7179 19.6 24.2179C18.4 25.2179 17 26.4179 16 27.8179C15 29.1179 14.5 30.9179 14 32.5179C13.2 35.6179 13.3 39.1179 15.1 41.9179C17 44.7179 20.1 47.1179 23.1 48.7179C26.3 50.4179 29.8 51.2179 33.4 50.6179C36.8 50.0179 40.1 48.7179 42.7 46.4179C45.4 44.0179 47.0999 40.5179 48 37.1179C48.5999 34.9179 48.5 32.8179 47.9 30.7179C47.4 28.9179 46.7 26.9179 45.5 25.4179C44.4 23.9179 43.1 22.4179 41.5 21.4179C39.7 20.3179 37.6999 19.8179 35.5999 19.7179C33.6999 19.6179 33.6999 22.6179 35.5999 22.7179C37.0999 22.7179 38.5 23.1179 39.7999 23.9179C41 24.6179 41.8 25.8179 42.7 26.8179C43.6 27.9179 44.1 29.1179 44.5 30.4179C45 31.9179 45.5 33.5179 45.2999 35.2179C45 38.0179 43.5 41.1179 41.7 43.2179C39.9 45.3179 37.5 46.6179 34.7999 47.4179C31.9 48.2179 29.2 48.2179 26.4 47.1179C23.7 46.1179 21.3 44.3179 19.3 42.3179C17.3 40.3179 16.2 38.1179 16.5 35.2179C16.6 34.0179 17 32.7179 17.5 31.5179C18 30.1179 18.8 29.2179 19.9 28.2179C21.1 27.2179 22.2 26.3179 23.4 25.3179C24 24.8179 24.5 24.2179 25.2 23.8179C25.8 23.4179 26.6 23.2179 27.3 23.0179C29.5 22.3179 32.5 21.5179 34.5 23.2179C36 24.2179 38.0999 22.1179 36.5999 20.9179Z" fill="#8AC926"/>
<path d="M27.3 3.41788L27.4 3.51788C27.6 3.61788 27.4 3.51788 27.3 3.41788C27.4 3.51788 27.5 3.61788 27.5 3.61788C27.7 3.91788 27.5 3.41788 27.5 3.61788C27.5 3.71788 27.6 3.91788 27.6 4.01788C27.6 4.11788 27.6 4.21788 27.6 4.21788C27.7 4.41788 27.6 3.91788 27.6 4.11788C27.6 4.81788 27.7 5.41788 27.6 6.11788C27.5 7.91788 27.6 9.71788 27.6 11.4179C27.6 12.2179 28.3 12.9179 29.1 12.9179C29.9 12.9179 30.6 12.2179 30.6 11.4179C30.6 9.51788 30.6 7.61788 30.6 5.71788C30.6 4.11788 30.6 2.21788 29.3 1.11788C28.7 0.617878 27.7 0.517878 27.2 1.11788C26.8 1.81788 26.7 2.81788 27.3 3.41788Z" fill="#8AC926"/>
<path d="M45.8 7.61785C44.7 8.71785 43.7 10.0179 42.9 11.3179C42.8 11.4179 42.7 11.6179 42.7 11.8179C42.6 12.0179 42.6 12.1179 42.5 12.3179C42.4 12.5179 42.4 12.4179 42.5 12.3179C42.4 12.4179 42.3 12.6179 42.3 12.7179C42.2 12.8179 42.1 13.0179 42 13.1179C41.5 13.7179 41.1 14.4179 41 15.1179C40.9 15.9179 41.2 16.8179 42 16.9179C42.7 17.1179 43.7 16.7179 43.8 15.9179C43.8 15.8179 43.8 15.8179 43.8 15.7179C43.8 15.7179 43.9 15.4179 43.8 15.6179C43.7 15.8179 43.8 15.6179 43.8 15.5179C43.8 15.4179 43.9 15.4179 43.9 15.3179C44.1 15.0179 44.3 14.8179 44.4 14.5179C44.6 14.2179 44.8 14.0179 44.9 13.7179C45 13.6179 45 13.4179 45.1 13.2179C45.1 13.2179 45.2 12.9179 45.1 13.1179C45 13.3179 45.1 13.1179 45.1 13.0179C45.1 12.9179 45.2 12.8179 45.2 12.7179C45.5 12.1179 45.9 11.5179 46.3 11.0179C46.2 11.1179 46.2 11.1179 46.3 11.0179C46.4 10.9179 46.4 10.9179 46.5 10.8179C46.6 10.7179 46.7 10.5179 46.9 10.4179C47.1 10.1179 47.4 9.91785 47.6 9.61785C48.2 9.01785 48.2 8.01785 47.6 7.51785C47.3 7.11785 46.3 7.11785 45.8 7.61785Z" fill="#8AC926"/>
<path d="M57.6 19.6179C57.1 19.7179 56.7 19.8179 56.2 20.0179C55.9 20.2179 55.5 20.4179 55.2 20.7179C55.1 20.8179 55 20.9179 54.9 21.0179C54.8 21.1179 54.8 21.1179 54.7 21.2179C54.8 21.1179 55 21.0179 54.8 21.1179C54.5 21.3179 54.2 21.4179 54 21.6179C52.8 22.3179 51.6 23.1179 50.6 24.1179C50 24.6179 50 25.7179 50.6 26.2179C51.2 26.8179 52.1 26.8179 52.7 26.2179C52.9 26.0179 53.2 25.7179 53.4 25.5179C53.5 25.4179 53.6 25.3179 53.7 25.2179C53.8 25.2179 53.8 25.1179 53.9 25.1179C53.8 25.2179 53.7 25.3179 53.8 25.1179C54.3 24.7179 54.8 24.4179 55.3 24.2179C55.6 24.1179 55.8 23.9179 56.1 23.8179C56.4 23.6179 56.7 23.4179 57 23.1179C57.1 23.0179 57.2 22.9179 57.3 22.8179C57.2 22.9179 57 23.0179 57.2 22.9179C57.3 22.9179 57.3 22.8179 57.4 22.8179C57.5 22.7179 57.6 22.7179 57.7 22.6179C57.9 22.5179 57.4 22.7179 57.6 22.6179C57.7 22.6179 58 22.5179 57.5 22.6179C57.9 22.5179 58.3 22.5179 58.6 22.2179C58.9 21.9179 59.1 21.5179 59 21.1179C59 20.7179 58.9 20.3179 58.6 20.0179C58.4 19.8179 58 19.6179 57.6 19.6179Z" fill="#8AC926"/>
<path d="M53 39.5179C53.6 40.0179 54.3 40.5179 55 40.9179C55.6 41.2179 56.2 41.6179 56.8 41.9179C57.4 42.2179 58.1 42.4179 58.7 42.6179C58.8 42.6179 59 42.7179 59.1 42.7179C58.7 42.6179 59.1 42.7179 59.2 42.8179C59.3 42.8179 59.3 42.9179 59.4 42.9179C59.6 43.0179 59.5 43.0179 59.3 42.8179C59.4 42.9179 59.5 43.0179 59.6 43.1179C60 42.2179 60.3 41.4179 60.7 40.5179C60.6 40.5179 60.5 40.5179 60.5 40.5179C59.7 40.4179 59 41.2179 59 42.0179C59 42.9179 59.7 43.4179 60.5 43.5179C60.6 43.5179 60.7 43.5179 60.7 43.5179C61.3 43.6179 61.9 43.1179 62.1 42.6179C62.3 42.0179 62.2 41.4179 61.8 41.0179C60.9 40.0179 59.5 39.6179 58.3 39.2179C58.1 39.1179 58.6 39.3179 58.4 39.3179C58.3 39.3179 58.3 39.2179 58.2 39.2179C58 39.1179 57.9 39.0179 57.7 39.0179C57.4 38.8179 57.1 38.7179 56.7 38.5179C56.4 38.3179 56.1 38.1179 55.8 37.9179C55.6 37.8179 55.5 37.7179 55.3 37.6179L55.1 37.5179C55.2 37.6179 55.3 37.6179 55.2 37.6179L55.1 37.5179C54.5 37.0179 53.6 36.9179 53 37.5179C52.5 37.9179 52.3 38.9179 53 39.5179Z" fill="#8AC926"/>
<path d="M47.8 51.9179C48.1 52.2179 48.5 52.4179 48.8 52.7179C48.9 52.8179 49.1 52.9179 49.2 53.0179C49.1 53.0179 49.1 52.9179 49 52.9179L49.1 53.0179C49.2 53.0179 49.2 53.1179 49.3 53.1179C49.8 53.6179 50.2 54.2179 50.6 54.7179C50.9 55.1179 51.3 55.4179 51.6 55.8179C51.7 55.9179 51.8 56.0179 51.9 56.1179L52 56.2179C52.1 56.3179 51.8 55.9179 51.9 56.1179C52 56.2179 52 56.3179 52.1 56.4179C52.1 56.4179 52.1 56.5179 52.2 56.6179C52.2 56.6179 52 56.2179 52.1 56.4179C52.3 57.1179 53.2 57.7179 53.9 57.4179C54.7 57.2179 55.2 56.4179 54.9 55.6179C54.5 54.4179 53.5 53.5179 52.6 52.6179C52.1 52.1179 51.8 51.5179 51.3 51.0179C51 50.7179 50.6 50.4179 50.3 50.2179C50.2 50.1179 50 50.0179 49.9 49.9179C50 50.0179 50.1 50.1179 50 49.9179C50 49.9179 50 49.8179 49.9 49.8179C49.3 49.3179 48.4 49.2179 47.8 49.8179C47.2 50.3179 47.1 51.3179 47.8 51.9179Z" fill="#8AC926"/>
<path d="M31.3 56.8179C31.3 59.2179 31.3 61.6179 31.3 64.0179C31.3 64.8179 32 65.5179 32.8 65.5179C33.6 65.5179 34.3 64.8179 34.3 64.0179C34.3 61.6179 34.3 59.2179 34.3 56.8179C34.3 56.0179 33.6 55.3179 32.8 55.3179C32 55.4179 31.3 56.0179 31.3 56.8179Z" fill="#8AC926"/>
<path d="M18.8 16.4179C17.3 14.4179 15.7 12.4179 14.2 10.5179C14 10.2179 13.5 10.1179 13.1 10.1179C12.7 10.1179 12.3 10.3179 12 10.5179C11.7 10.8179 11.5 11.2179 11.6 11.6179C11.6 12.0179 11.8 12.3179 12 12.7179C12.7 13.6179 13.5 14.5179 14.2 15.4179C14.6 15.9179 14.9 16.3179 15.3 16.8179C15.1 16.5179 15.4 16.9179 15.4 16.9179C15.5 17.0179 15.6 17.1179 15.7 17.2179C15.9 17.4179 16.1 17.7179 16.2 17.9179C16.4 18.2179 16.7 18.5179 17.1 18.6179C17.5 18.7179 17.9 18.7179 18.3 18.4179C18.6 18.2179 18.9 17.9179 19 17.5179C19.1 17.2179 19.1 16.7179 18.8 16.4179Z" fill="#8AC926"/>
<path d="M9.89995 25.5179C9.19995 25.1179 8.39995 24.7179 7.69995 24.3179C7.29995 24.1179 6.89995 23.9179 6.49995 23.7179C6.29995 23.6179 6.19995 23.5179 5.99995 23.5179C5.89995 23.5179 5.89995 23.4179 5.79995 23.4179C5.79995 23.4179 5.59995 23.2179 5.79995 23.4179C5.99995 23.6179 5.79995 23.4179 5.79995 23.4179C5.69995 23.4179 5.69995 23.3179 5.59995 23.3179C5.49995 23.2179 5.39995 23.1179 5.29995 23.0179C4.99995 22.8179 4.69995 22.5179 4.39995 22.3179C3.59995 21.8179 2.79995 21.7179 1.89995 21.8179C1.09995 21.9179 0.599951 22.9179 0.899951 23.6179C1.19995 24.4179 1.89995 24.8179 2.69995 24.6179C2.59995 24.6179 2.39995 24.6179 2.59995 24.6179C2.59995 24.6179 2.89995 24.6179 2.69995 24.6179C2.39995 24.6179 2.79995 24.7179 2.89995 24.7179C2.79995 24.7179 2.59995 24.5179 2.79995 24.7179L2.89995 24.8179C2.99995 24.9179 3.09995 24.9179 3.19995 25.0179C3.39995 25.1179 2.89995 24.8179 3.09995 25.0179L3.19995 25.1179C3.29995 25.2179 3.39995 25.3179 3.49995 25.4179C3.79995 25.6179 3.99995 25.9179 4.29995 26.0179C4.89995 26.4179 5.59995 26.7179 6.19995 27.0179C6.89995 27.4179 7.59995 27.7179 8.29995 28.1179C8.99995 28.5179 9.99995 28.3179 10.4 27.6179C10.7999 26.8179 10.5999 25.9179 9.89995 25.5179Z" fill="#8AC926"/>
<path d="M9.89998 39.8179C9.09998 39.6179 8.39998 39.9179 7.69998 40.1179C6.79998 40.4179 5.99998 40.6179 5.19998 41.0179C4.79998 41.2179 4.49998 41.4179 4.09998 41.5179C3.99998 41.5179 3.89998 41.6179 3.79998 41.6179C3.79998 41.6179 3.49998 41.8179 3.69998 41.6179C3.49998 41.8179 3.29998 41.9179 2.99998 42.0179C2.79998 42.1179 2.69998 42.2179 2.49998 42.2179C2.39998 42.2179 2.39998 42.3179 2.29998 42.3179C2.19998 42.4179 2.09998 42.4179 2.29998 42.3179C2.19998 42.4179 1.99998 42.4179 1.79998 42.5179H1.69998C1.59998 42.5179 1.59998 42.5179 1.69998 42.5179C1.99998 42.6179 1.29998 42.4179 1.89998 42.5179C1.09998 42.4179 0.199978 42.7179 0.099978 43.5179C-0.100022 44.2179 0.299978 45.2179 1.09998 45.3179C2.09998 45.5179 2.99998 45.2179 3.89998 44.8179C3.99998 44.8179 4.19998 44.8179 4.39998 44.7179C4.49998 44.6179 4.89998 44.5179 4.49998 44.6179C4.99998 44.4179 5.39998 44.2179 5.89998 44.0179C6.09998 43.9179 6.19998 43.8179 6.39998 43.7179C6.39998 43.7179 6.79998 43.5179 6.59998 43.6179C6.49998 43.6179 6.79998 43.5179 6.79998 43.5179C7.19998 43.3179 7.59998 43.2179 7.99998 43.1179C8.29998 43.0179 8.59998 42.9179 8.89998 42.8179C8.99998 42.8179 9.19998 42.7179 9.29998 42.7179C9.39998 42.7179 9.59998 42.6179 9.39998 42.7179C9.29998 42.7179 9.29998 42.7179 9.29998 42.7179C9.39998 42.7179 9.39998 42.7179 9.09998 42.7179C9.89998 42.9179 10.8 42.5179 10.9 41.7179C11.1 40.9179 10.7 39.9179 9.89998 39.8179Z" fill="#8AC926"/>
<path d="M16.9 53.0179C15.9 54.0179 15 55.2179 13.9 56.1179C13.6 56.3179 13.3 56.5179 13.1 56.8179C12.8 57.1179 12.5 57.4179 12.3 57.7179C12.1 58.0179 11.9 58.2179 11.8 58.5179L11.7 58.7179C11.7 58.7179 11.9 58.4179 11.7 58.7179C11.6 58.8179 11.5 59.0179 11.3 59.1179C10.7 59.6179 10.7 60.7179 11.3 61.2179C11.9 61.8179 12.8 61.7179 13.4 61.2179C14 60.7179 14.3 60.1179 14.8 59.5179C14.8 59.4179 14.9 59.4179 14.9 59.3179C15 59.1179 14.7 59.6179 14.9 59.3179C15 59.2179 15.1 59.0179 15.3 58.9179C15.6 58.7179 15.9 58.5179 16.1 58.2179C17.2 57.3179 18 56.1179 19.1 55.1179C19.7 54.6179 19.7 53.5179 19.1 53.0179C18.4 52.4179 17.5 52.4179 16.9 53.0179Z" fill="#8AC926"/>
</svg>
