<svg width="23" height="20" viewBox="0 0 23 20" fill="none" xmlns="http://www.w3.org/2000/svg">
<path d="M22.8945 2.80288C22.0437 3.1761 21.1371 3.42348 20.1919 3.54359C21.1643 2.96303 21.9064 2.05072 22.2553 0.951082C21.3487 1.49161 20.3478 1.8734 19.281 2.08647C18.4202 1.16987 17.1933 0.602173 15.8548 0.602173C13.258 0.602173 11.1674 2.70993 11.1674 5.29386C11.1674 5.66565 11.1989 6.02314 11.2761 6.36347C7.37662 6.17329 3.92613 4.30433 1.60817 1.45729C1.20349 2.1594 0.966119 2.96303 0.966119 3.82816C0.966119 5.45259 1.80264 6.89255 3.04957 7.72622C2.29598 7.71192 1.55669 7.49314 0.93037 7.14852C0.93037 7.16282 0.93037 7.18141 0.93037 7.2C0.93037 9.47935 2.55623 11.3726 4.6883 11.8087C4.3065 11.9131 3.89038 11.9632 3.45853 11.9632C3.15824 11.9632 2.85509 11.946 2.57053 11.8831C3.17826 13.7406 4.90279 15.1062 6.95335 15.1506C5.35752 16.3989 3.33127 17.1511 1.13771 17.1511C0.753056 17.1511 0.384127 17.1339 0.0151978 17.0867C2.09293 18.4266 4.55531 19.1916 7.21074 19.1916C15.842 19.1916 20.5608 12.0418 20.5608 5.8444C20.5608 5.63705 20.5537 5.43686 20.5437 5.23809C21.4746 4.57745 22.2568 3.75237 22.8945 2.80288Z" fill="white"/>
</svg>
