<svg width="131" height="263" viewBox="0 0 131 263" fill="none" xmlns="http://www.w3.org/2000/svg">
<path opacity="0.12" d="M192.669 258.172C188.608 255.138 184.038 251.597 180.738 248.562C176.677 245.022 170.838 239.711 170.838 239.205C170.838 238.952 171.092 238.699 172.108 238.194C179.469 233.389 189.877 218.721 192.923 209.111C194.7 203.547 194.954 195.96 193.685 194.696C192.923 193.937 190.131 194.443 187.085 195.96C186.069 196.466 185.562 196.719 185.562 196.719C185.562 196.719 185.308 196.972 185.054 196.972C184.292 197.224 182.008 199.248 180.231 201.018C174.9 206.329 170.585 215.18 169.315 223.273C168.554 227.825 168.3 233.389 168.808 235.918C168.808 236.423 169.062 236.929 168.808 236.929C168.554 236.929 161.446 229.848 160.177 228.331C159.669 227.825 158.146 226.055 156.877 224.79C155.608 223.273 154.085 221.755 153.831 221.502C153.577 220.997 152.562 219.985 151.546 218.974C150.531 217.962 149.515 216.95 149.262 216.445C149.008 215.939 147.992 214.927 147.485 214.421C144.946 211.387 136.823 201.777 136.062 200.765C135.808 200.259 134.538 198.995 134.031 198.236C133.269 197.224 131.492 194.948 131.492 194.696C131.492 194.696 132 194.443 132.762 194.19C134.031 193.684 135.3 193.178 136.315 192.167C136.569 191.914 137.077 191.661 137.077 191.661C137.077 191.661 137.838 191.155 138.6 190.649C139.362 190.143 139.869 189.638 139.869 189.638C140.123 189.638 145.962 183.568 147.231 182.304C151.292 177.499 154.592 172.694 157.131 167.636C157.892 166.118 157.892 165.865 159.162 163.084C159.669 161.313 160.685 158.279 160.938 156.255C161.7 151.956 161.446 146.645 160.431 146.14C158.908 145.381 154.085 146.645 150.023 149.174C146.977 150.945 142.154 155.244 140.123 157.773C139.615 158.531 138.854 159.29 138.6 159.796C132.762 167.383 127.938 182.304 128.7 190.902C128.7 192.167 128.7 192.167 128.446 191.661C128.192 191.408 127.685 190.649 127.177 189.891C125.908 188.12 123.115 184.074 121.592 181.798C120.831 180.533 120.069 179.522 119.815 179.269C119.562 179.016 118.8 177.752 118.038 176.74C117.277 175.475 116.515 174.464 116.262 174.211C114.485 171.682 107.885 160.807 104.077 154.232C101.538 149.933 96.9692 141.84 96.9692 141.84C96.9692 141.84 97.2231 141.587 97.7308 141.335C98.2385 141.082 98.7461 140.576 99 140.323C99.2538 140.07 100.523 139.311 101.538 138.3C102.554 137.541 103.823 136.529 104.331 136.024C104.838 135.518 105.346 135.265 105.6 135.012C107.631 133.748 114.485 126.919 116.769 123.885C119.562 120.091 121.592 116.551 122.354 114.022C122.354 113.769 122.862 112.251 123.369 110.734C124.385 107.952 125.908 102.389 125.654 102.136C125.654 102.136 125.654 101.883 125.654 101.63L125.908 101.377C125.908 101.377 125.908 100.618 125.908 99.6067C126.162 97.0778 125.908 93.7901 125.146 92.5256C124.892 92.0198 124.892 92.0198 124.131 92.0198C122.608 92.2727 119.815 93.5372 118.292 94.5488C118.038 94.5488 118.038 94.8017 118.038 94.8017C118.038 94.8017 117.531 95.0546 116.515 95.8133C114.485 97.3307 113.977 97.5835 111.438 100.112C108.9 102.389 108.392 103.147 105.854 106.435C105.092 107.194 104.838 107.952 103.823 109.47C103.315 110.228 102.808 111.24 102.808 111.24C102.554 111.493 101.031 114.528 100.777 115.033C99.7615 117.815 98.2385 121.862 97.9846 123.379C97.7308 123.885 97.4769 124.896 97.4769 125.402C97.2231 126.161 97.2231 126.667 97.2231 126.919C97.2231 127.172 97.2231 127.425 97.2231 127.425C96.9692 127.678 96.2077 131.472 96.2077 133.242C96.2077 134.001 95.9538 135.771 96.2077 137.035C96.2077 138.3 96.2077 139.058 95.9538 138.806C95.9538 138.553 94.1769 135.771 92.4 132.483C90.6231 129.196 88.5923 125.908 88.3385 125.149C88.0846 124.39 87.0692 123.126 86.5615 122.114C86.0538 121.103 85.0385 119.585 84.5308 118.574C81.2308 112.757 70.8231 96.0662 70.0615 94.8017C70.0615 94.5488 69.3 93.7901 68.7923 92.7785C68.0308 91.7669 67.2692 90.5025 67.0154 89.9967C66.2538 88.9851 66.2538 89.238 68.7923 86.9619C70.5692 85.4445 74.1231 81.904 75.3923 80.3866C76.1538 79.375 76.6615 78.8693 78.9462 75.5816C79.9615 74.0642 81.4846 71.2824 82.5 69.0063C84.0231 65.9716 85.8 61.1666 85.5462 60.9137C85.5462 60.9137 85.5462 60.6608 85.8 60.4079C86.0538 60.155 86.0538 59.9021 86.0538 59.6492C86.0538 59.3963 86.0538 59.1434 86.0538 59.1434C86.3077 58.8905 87.0692 55.0971 87.5769 53.0739C88.3385 48.5218 87.3231 37.3943 86.0538 36.8886C85.2923 36.6357 85.0385 36.8886 83.0077 38.6588C79.9615 41.1878 75.3923 47.2573 73.3615 50.5449C73.3615 50.7978 73.1077 51.0507 72.8538 51.3036C71.0769 53.8326 67.5231 61.9252 67.0154 63.9484C67.0154 64.2013 66.7615 64.96 66.5077 65.4658C66.2538 66.2245 66 67.236 65.7461 67.9947C65.4923 68.7534 65.2385 70.0179 64.9846 71.0295C64.7308 72.0411 64.4769 72.7998 64.7308 73.0527C64.7308 73.0527 64.7308 73.3055 64.7308 73.8113C64.7308 74.0642 64.4769 74.8229 64.4769 75.0758C64.4769 75.5816 64.4769 76.5932 64.2231 77.3519C63.9692 79.1222 63.9692 81.6511 64.2231 84.433C64.2231 85.4445 64.2231 86.2032 64.2231 85.9503C63.4615 84.6859 57.8769 76.5932 51.7846 68.2476C50.2615 66.2245 48.9923 64.2013 48.7385 64.2013C48.7385 63.9484 48.4846 63.9484 48.4846 63.6955V63.4426C48.7385 63.1897 47.9769 60.4079 45.9462 53.5797C45.4385 52.3152 45.1846 50.7978 45.1846 50.5449C44.4231 48.016 41.6308 40.4291 40.1077 37.1414C33.5077 22.4735 22.8462 9.82871 12.1846 3.25342C7.86923 0.724457 3.04615 -0.540021 1.01538 0.218666C0 0.471562 0 0.724457 0 1.48314C0 2.24183 2.28462 11.599 2.28462 11.8519C2.28462 11.8519 2.53846 12.8635 2.79231 13.875C4.31538 19.6916 6.6 25.7611 9.39231 31.5777C10.9154 34.6125 14.9769 40.682 17.2615 43.7167C20.3077 47.0044 21.0692 47.7631 22.8462 49.5333C25.1308 51.5565 27.1615 53.5797 29.1923 54.8442C31.7308 56.8673 37.0615 59.9021 39.3462 60.6608C39.8538 60.9137 40.1077 60.9137 40.3615 61.1666C40.8692 61.4194 44.1692 62.431 45.6923 62.6839L47.2154 62.9368L52.2923 69.765C55.0846 73.5584 58.8923 79.375 61.1769 82.4098C63.2077 85.6974 65.2385 88.4793 65.4923 88.9851C65.7461 89.4909 67.0154 91.2611 68.0308 93.0314C69.0462 94.8017 70.0615 96.3191 70.3154 96.572C70.3154 96.8249 70.5692 97.0778 70.8231 97.3307C71.0769 97.5835 72.3462 99.6067 73.6154 101.883C79.4538 111.493 80.7231 113.769 80.4692 113.769C80.2154 113.769 79.4538 113.01 78.4385 112.504C76.4077 111.493 76.1538 111.24 73.6154 109.975C71.3308 108.458 66 106.688 60.4154 104.918C58.8923 104.412 54.5769 103.4 53.8154 103.4C53.5615 103.4 52.8 103.4 52.2923 103.147C50.5154 102.894 46.4538 103.147 44.1692 103.4C42.9 103.653 41.6308 103.906 41.3769 103.906C41.1231 103.906 40.6154 104.159 40.6154 104.159C40.6154 104.159 39.8538 104.412 38.8385 104.665C36.0462 105.423 32.7462 106.941 31.2231 107.952C29.7 108.964 30.2077 109.723 34.0154 112.252C36.3 114.022 37.0615 114.275 39.3462 115.539C43.1538 117.562 45.1846 118.321 49.7538 119.585C54.8308 121.103 61.4308 121.103 67.5231 119.585C70.5692 118.827 79.2 116.298 80.4692 115.539C80.9769 115.286 81.2308 115.286 81.4846 115.539C82.5 116.804 89.3538 128.943 92.1461 134.253C92.9077 135.771 93.6692 137.035 95.1923 139.817C95.9538 140.829 96.4615 141.84 96.4615 142.093C96.4615 142.599 105.092 157.014 107.631 161.566C109.154 164.095 110.169 165.865 110.169 166.118C110.169 166.118 109.662 166.118 109.408 165.865C99 162.072 88.0846 160.555 76.4077 161.566C71.0769 161.819 64.2231 164.601 59.4 167.889C59.1462 168.141 58.6385 168.394 58.1308 168.647C57.8769 168.9 57.3692 169.406 57.1154 169.659C56.8615 170.165 56.8615 170.165 57.8769 171.176C60.1615 173.452 64.2231 175.981 68.0308 177.246C69.8077 177.752 73.6154 179.016 73.8692 178.763C73.8692 178.763 74.6308 178.763 75.1385 179.016C80.2154 180.028 86.8154 180.028 91.6385 179.016C97.9846 177.752 101.792 175.475 107.123 170.165C108.9 168.394 110.423 167.13 110.423 167.13C110.423 167.13 110.677 167.383 110.931 167.889C111.185 168.394 111.438 168.9 111.692 169.153C111.946 169.406 112.2 169.912 112.454 170.418C114.992 174.97 124.638 188.879 129.715 195.454C131.238 197.477 132.762 199.501 133.523 200.512C134.031 201.271 134.792 202.282 135.046 202.535C135.808 203.547 143.677 213.157 144.946 214.421C148.246 218.215 148.246 217.962 145.708 217.203C141.646 215.939 139.615 215.433 135.3 214.927C133.269 214.674 127.431 214.674 125.908 214.674C125.4 214.674 124.892 214.927 124.638 214.927C123.877 214.927 121.846 215.18 121.592 215.433C121.592 215.433 121.085 215.686 120.577 215.686C118.8 215.939 114.485 217.456 112.962 218.468C112.708 218.468 112.2 218.974 111.692 219.226C108.646 220.997 105.6 223.02 103.569 225.296C101.285 227.572 101.285 227.825 103.315 229.089C108.9 231.871 120.069 233.136 127.177 232.124C127.685 232.124 128.446 231.871 128.446 231.871C129.462 232.124 135.554 230.101 137.331 229.089C137.838 228.836 138.6 228.331 138.6 228.331C138.854 228.331 139.362 227.825 141.392 226.307C141.9 226.055 142.915 225.043 143.677 224.284C144.692 223.526 145.962 222.261 146.723 221.755C147.485 220.997 148.246 220.491 148.5 219.985L149.008 219.479L150.023 220.491C150.531 220.997 151.038 221.755 151.292 222.008C154.338 225.802 174.9 246.286 179.723 250.333C182.008 252.103 184.546 254.379 184.8 254.632C185.054 254.885 186.069 255.643 186.831 256.149C188.608 257.414 193.177 260.954 195.208 262.219H198C196.223 260.701 193.431 258.931 192.669 258.172ZM34.2692 56.8673C28.6846 53.8326 21.8308 47.5102 17.7692 42.1994C14.4692 37.6472 12.9462 35.1183 10.6615 30.8191C8.63077 27.0256 4.56923 16.1511 3.80769 12.8635C3.80769 12.6106 3.55385 11.8519 3.55385 11.599C3.04615 10.3345 2.79231 9.82871 2.03077 6.28816C1.52308 4.265 1.26923 2.49473 1.26923 2.49473C1.26923 2.49473 2.03077 3.50631 3.04615 4.51789C5.07692 7.04685 5.58462 7.55264 6.09231 8.31133C6.34615 8.56423 6.85385 9.32291 7.10769 9.57581C8.37692 11.3461 10.6615 14.1279 11.1692 15.1395C11.4231 15.8982 12.1846 16.9098 12.6923 17.4156C13.2 18.1743 13.7077 18.6801 13.7077 18.933C14.9769 20.7032 15.2308 21.209 16.5 23.2322C19.0385 27.2785 21.3231 30.8191 21.8308 31.3248C22.0846 31.5777 22.3385 32.0835 22.5923 32.5893C22.8462 32.8422 23.1 33.6009 23.6077 33.8538C24.1154 34.1067 24.6231 35.3712 25.1308 36.1299C25.6385 36.8886 26.4 37.9001 26.6538 38.153C26.9077 38.4059 27.6692 39.4175 28.1769 40.4291C28.6846 41.1878 29.7 42.4523 29.9538 43.211C30.4615 43.7167 30.9692 44.7283 31.4769 45.2341C33.5077 48.016 36.5538 51.8094 38.0769 53.8326C38.5846 54.5913 39.3462 55.3499 39.6 55.6028C39.8538 55.8557 41.1231 57.3731 42.6461 58.8905C44.1692 60.4079 45.1846 61.6723 44.9308 61.6723C44.4231 61.9252 38.3308 59.1434 34.2692 56.8673ZM43.6615 58.3847C41.8846 56.6144 40.3615 54.8442 40.1077 54.5913C39.3462 53.8326 36.0462 49.2804 35.5385 49.0276C35.2846 48.7747 35.0308 48.2689 34.5231 47.7631C33.5077 46.7515 25.3846 35.1183 24.3692 33.6009C24.1154 33.348 23.8615 32.5893 23.6077 32.3364C23.3538 31.8306 22.5923 30.8191 22.0846 29.8075C21.5769 28.7959 20.8154 27.7843 20.5615 27.7843C20.3077 27.5314 20.0538 27.0256 19.8 26.5198C19.5462 25.7611 19.2923 25.2553 19.0385 24.7496C18.7846 24.4967 17.7692 22.9793 16.5 21.209C15.4846 19.4387 14.4692 17.9214 14.2154 17.6685C13.9615 17.4156 13.7077 17.1627 13.7077 16.9098C13.2 15.8982 10.6615 12.6106 9.64615 11.0932C8.63077 9.82871 8.37692 9.57581 7.61538 8.56423C7.36154 8.31133 6.85385 7.55264 6.34615 7.04685C6.09231 6.54106 5.58462 5.78237 5.58462 5.78237C5.33077 5.52948 4.56923 4.77079 3.04615 2.49473C2.79231 2.24183 2.28462 1.98894 2.28462 1.73604C1.77692 1.23025 2.53846 0.977353 4.31538 1.48314C8.37692 2.24183 12.1846 4.265 17.0077 8.31133C17.5154 8.81712 18.2769 9.32291 18.5308 9.57581C19.2923 10.0816 25.6385 16.404 26.1462 17.1627C26.4 17.4156 26.9077 18.1743 27.4154 18.933C28.4308 20.1974 31.4769 24.4967 33.2538 27.0256C34.5231 28.7959 37.0615 33.348 37.5692 34.6125C41.3769 42.7052 43.4077 48.5218 45.4385 56.8673C45.6923 57.8789 45.9462 58.8905 45.9462 58.8905C45.9462 58.8905 46.2 59.6492 46.2 60.155L46.4538 61.4194L43.6615 58.3847ZM65.4923 85.6974C65.4923 85.9503 65.2385 85.9503 65.2385 85.1917C64.9846 84.1801 64.9846 77.099 65.2385 75.5816C65.2385 75.0758 65.4923 74.3171 65.4923 74.3171C65.4923 74.0642 65.7462 73.0527 66 72.0411C66.2538 71.0295 66.2538 70.0179 66.2538 70.0179V69.765C66.2538 69.765 66.5077 69.2592 66.5077 68.5005C67.2692 64.7071 69.8077 57.8789 71.8385 54.0855C72.3461 53.0739 72.8538 52.0623 72.8538 52.0623C73.1077 51.5565 73.1077 51.8094 74.1231 50.0391C74.6308 49.2804 75.1385 48.2689 75.3923 48.016C75.6462 47.5102 77.9308 44.4754 79.4538 42.4523C79.9615 41.9465 80.4692 41.1878 80.4692 41.1878C80.4692 40.9349 84.5308 36.8886 84.5308 36.8886C84.5308 36.8886 81.2308 46.7515 79.4538 51.0507C79.2 51.3036 78.9462 52.5681 78.4385 53.5797C77.9308 54.5913 77.4231 56.1086 76.9154 57.1202C76.4077 58.1318 75.9 59.6492 75.3923 60.4079C74.6308 62.1781 74.6308 62.431 74.1231 63.4426C73.8692 63.6955 73.3615 65.4658 72.6 67.2361C71.8385 69.0063 71.0769 71.0295 70.8231 71.7882C70.5692 72.5469 70.3154 73.0527 70.3154 73.0527C70.3154 73.0527 70.0615 73.5584 69.8077 74.0642C69.3 75.3287 69.3 75.3287 68.0308 78.6164C67.5231 80.1337 66.7615 81.6511 66.7615 81.904C66.7615 82.1569 66.5077 82.9156 66.2538 83.4214C65.7462 84.9388 65.4923 85.4445 65.4923 85.6974ZM66.2538 86.2032C66.5077 85.9503 66.7615 84.9388 67.0154 84.1801C67.2692 83.4214 67.7769 82.1569 68.0308 81.3982C68.2846 80.6395 68.7923 79.375 69.0462 78.6164C69.3 77.8577 69.5538 77.099 69.8077 77.099C69.8077 77.099 70.0615 76.8461 70.0615 76.5932C70.0615 76.3403 70.3154 75.5816 70.8231 74.8229C71.0769 74.0642 71.5846 73.0527 71.5846 72.7998C71.5846 72.5469 72.3462 71.0295 72.8538 69.765C73.3615 68.5005 74.3769 66.2245 74.8846 64.96C75.3923 63.6955 75.9 62.431 75.9 62.431C75.9 62.431 76.1538 61.9252 76.4077 61.1666C76.6615 60.4079 76.9154 59.9021 77.1692 59.6492C77.4231 59.3963 77.6769 58.3847 78.1846 57.3731C79.2 55.0971 79.2 54.8442 79.4538 54.5913C79.4538 54.5913 79.7077 53.8326 79.9615 53.0739C80.4692 51.5565 80.9769 50.292 81.2308 50.0391C81.2308 50.0391 81.4846 49.2804 81.7385 48.2689C81.9923 47.5102 82.7538 45.487 83.2615 43.9696C83.7692 42.4523 84.5308 40.682 84.7846 39.9233C85.2923 38.153 85.2923 38.153 85.5462 39.6704C85.8 40.4291 85.8 41.4407 85.8 42.1994C85.8 42.7052 86.0538 44.2225 86.0538 45.487C86.3077 48.5218 86.0538 51.8094 85.0385 55.6028C84.2769 58.8905 83.0077 62.9368 82.7538 63.4426V63.6955V63.9484C82.7538 63.9484 82.2462 64.4542 82.2462 65.2129C81.7385 66.7303 79.2 71.7882 78.4385 72.7998C74.6308 78.6164 73.6154 80.1337 69.5538 83.9272C66.7615 86.4561 65.7462 87.2148 66.2538 86.2032ZM33 108.458C33.5077 108.205 34.5231 107.699 35.0308 107.446C37.8231 106.182 43.9154 104.665 47.2154 104.412C49.2462 104.159 52.5462 104.412 53.3077 104.665C53.5615 104.665 53.8154 104.665 53.8154 104.665C54.3231 104.665 59.4 105.676 60.6692 106.182C61.4308 106.435 62.4462 106.688 62.7 106.941C63.2077 107.194 67.5231 108.711 69.8077 109.47C71.5846 110.228 75.6461 112.504 77.4231 113.769L77.9308 114.275H76.9154C76.4077 114.275 75.6461 114.275 75.1385 114.022C74.3769 114.022 68.2846 113.516 67.0154 113.516C66.7615 113.516 66.2538 113.516 65.7461 113.263C64.7308 113.01 63.7154 113.01 62.4462 113.01C61.9385 113.01 59.9077 112.757 57.6231 112.504C55.3385 112.252 52.5462 111.999 51.5308 111.746C50.5154 111.493 48.9923 111.493 48.4846 111.493C47.9769 111.493 46.2 111.24 44.6769 110.987C40.6154 110.481 35.0308 109.723 34.5231 109.723C34.2692 109.723 33.5077 109.47 32.7462 109.47L31.4769 109.217L33 108.458ZM75.3923 116.551C73.1077 117.309 70.8231 117.815 70.3154 118.068C69.8077 118.068 69.3 118.321 69.3 118.321C69.3 118.321 68.5385 118.574 66.2538 119.08C63.9692 119.585 58.3846 120.091 57.6231 120.091C57.3692 120.091 55.5923 119.838 54.5769 119.838C53.8154 119.838 53.0538 119.585 50.7692 119.08C48.7385 118.574 43.1538 116.551 42.6461 116.298C42.6461 116.298 42.1385 116.045 41.8846 115.792C41.1231 115.539 40.3615 115.033 38.5846 114.022C37.3154 113.263 36.3 112.757 33.5077 110.734C33 110.228 32.7462 110.228 36.5538 110.734C38.3308 110.987 40.6154 111.24 41.8846 111.493C43.1538 111.746 45.4385 111.999 46.7077 112.252C48.2308 112.504 50.2615 112.757 51.2769 112.757C52.2923 112.757 53.8154 113.01 54.0692 113.01C59.1461 113.516 59.6538 113.769 61.4308 113.769C61.9385 113.769 63.2077 114.022 63.7154 114.022C65.2385 114.275 70.8231 114.528 72.8538 114.78C73.6154 114.78 75.1385 114.78 75.6461 115.033C76.4077 115.033 77.1692 115.033 77.1692 115.033C77.4231 115.033 77.9308 115.033 78.4385 115.286L79.4538 115.539L75.3923 116.551ZM125.146 94.2959C125.654 96.572 125.4 101.124 123.877 105.929C121.592 114.275 119.054 119.333 114.738 124.391C112.454 127.172 107.631 131.724 104.585 134.001C104.077 134.506 102.554 135.518 101.285 136.529C100.015 137.541 98.7462 138.3 98.7462 138.553C98.2385 138.806 97.9846 139.058 98.2385 138.553C99 137.035 104.331 128.437 104.838 127.425C105.346 126.919 109.154 120.344 109.408 119.585C109.915 118.574 113.469 112.757 115.246 109.723C118.8 104.159 122.608 97.3307 123.623 95.3075C125.146 93.2843 124.892 93.5372 125.146 94.2959ZM96.9692 138.047C96.9692 137.035 96.9692 134.759 96.9692 134.001C97.2231 130.46 97.7308 128.184 98.7462 124.643C100.015 120.091 101.538 116.045 102.808 113.263C103.062 112.757 103.315 111.999 103.569 111.999C103.569 111.746 103.823 111.493 103.823 111.493C103.823 111.493 104.331 110.734 104.585 110.228C105.346 108.964 107.631 105.676 108.646 104.412C109.408 103.4 115.5 97.5835 116.262 97.0778C117.023 96.572 118.038 95.8133 118.292 95.8133C118.292 95.8133 118.8 95.5604 119.054 95.3075C120.577 94.2959 124.131 92.5256 124.131 93.0314C124.131 93.2843 120.577 99.6067 118.038 103.653C114.485 109.723 112.454 113.01 112.2 113.263C112.2 113.516 110.931 115.286 109.662 117.562C108.392 119.838 106.362 123.126 105.346 124.896C102.3 129.701 97.4769 137.794 96.9692 138.047V138.806V138.047ZM59.9077 169.153C60.4154 168.9 60.9231 168.394 61.1769 168.141C61.9385 167.636 64.4769 166.118 65.7461 165.613C66.7615 165.36 71.3308 163.589 72.0923 163.589C77.4231 162.325 87.8308 162.325 96.4615 163.842C97.7308 164.095 99 164.348 99 164.348C99 164.348 99.5077 164.601 99.7615 164.601C100.269 164.601 100.777 164.854 101.031 164.854C101.285 164.854 102.3 165.36 103.569 165.613C104.585 165.865 106.108 166.371 106.869 166.624L108.138 166.877L107.123 167.13C105.346 167.636 99 168.647 97.2231 168.9C96.9692 168.9 95.9538 169.153 95.1923 169.153C92.6538 169.406 91.1308 169.406 88.8462 169.659C87.8308 169.659 86.0538 169.912 85.2923 169.912C82.2461 170.165 65.7462 170.165 59.9077 169.659H59.1461L59.9077 169.153ZM104.077 172.441C103.823 172.694 103.315 173.199 102.554 173.705C99.5077 176.234 93.6692 178.257 88.3385 178.763C83.7692 179.269 77.1692 178.763 72.6 177.499C71.5846 177.246 70.8231 176.993 70.8231 177.246C70.8231 177.246 70.5692 177.246 70.3154 176.993C70.3154 176.993 69.5538 176.487 68.7923 176.234C65.7462 175.223 62.4462 173.452 59.6538 171.176L58.8923 170.67H60.1615C60.9231 170.67 62.4462 170.67 63.7154 170.923C68.0308 171.176 83.7692 171.176 86.8154 170.923C88.5923 170.67 90.1154 170.67 90.3692 170.67C91.6385 170.67 94.4308 170.418 96.2077 170.165C97.2231 169.912 98.2385 169.912 98.4923 169.912C101.285 169.659 105.854 168.647 107.631 168.141C108.392 167.889 109.154 167.636 109.154 167.889C109.154 167.636 104.585 172.188 104.077 172.441ZM158.908 148.416C159.415 147.151 159.669 146.898 159.923 147.151C160.177 147.404 160.177 150.945 160.177 152.715C159.923 155.75 158.654 161.06 157.131 164.854C155.862 168.141 152.308 173.958 149.769 177.246C149.515 177.499 148.754 178.51 148.246 179.269C146.469 181.545 139.615 188.12 137.077 190.143C134.792 191.914 132.254 193.431 132.254 192.925C132.254 192.672 133.269 191.155 135.808 186.856C136.315 185.844 137.838 183.315 139.108 181.292C141.9 176.993 144.185 172.946 146.469 169.659C150.023 164.348 152.815 159.543 155.862 153.726C156.623 152.209 157.385 150.692 157.892 150.186C158.146 149.933 158.654 148.921 158.908 148.416ZM130.223 192.419C128.446 184.074 133.777 166.624 140.885 158.279C142.662 156.002 146.469 152.462 148.246 151.197C152.054 148.416 155.1 146.898 157.892 146.392C159.162 146.14 159.162 146.14 157.892 147.91C157.385 148.668 156.623 150.186 156.115 150.945C152.308 158.026 148.5 164.601 145.2 169.659C142.662 173.705 140.631 176.74 138.854 179.775C137.585 181.798 136.062 184.074 135.554 185.085C135.046 186.097 133.777 188.12 132.762 189.638C131.746 191.155 130.985 192.419 130.731 192.672C130.223 193.178 130.223 193.178 130.223 192.419ZM104.585 226.56C104.838 226.055 106.615 224.537 108.646 223.02C109.662 222.261 110.677 221.502 111.185 221.25C112.962 220.238 114.231 219.479 114.485 219.479C114.738 219.479 114.992 219.226 115.246 219.226C115.754 218.721 118.038 217.962 120.577 217.203C124.131 216.192 132 215.686 137.077 216.445C138.6 216.697 141.646 217.203 142.154 217.456C142.408 217.456 142.662 217.709 142.915 217.709C143.423 217.709 146.469 218.721 146.469 218.721C146.469 218.721 145.708 218.974 144.438 219.226C143.423 219.479 141.138 219.985 139.615 220.491C138.092 220.997 135.808 221.502 135.046 221.502C134.031 221.755 133.269 221.755 133.269 222.008C133.269 222.008 129.969 222.767 129.462 222.767C129.208 222.767 129.208 222.767 128.954 222.767C128.954 222.767 128.192 223.02 127.685 223.02C126.923 223.02 126.415 223.273 126.415 223.273C126.415 223.273 121.592 224.284 118.8 224.79C117.785 225.043 117.023 225.296 116.769 225.296H116.515C116.515 225.296 116.008 225.296 115.5 225.296C114.738 225.549 108.9 226.307 107.123 226.56C106.869 226.56 106.108 226.813 105.346 226.813C104.585 226.813 104.331 226.813 104.585 226.56ZM146.977 220.238C146.469 220.744 144.946 222.008 143.931 222.767C140.377 225.802 139.362 226.813 137.077 227.825C132.508 230.101 126.669 231.113 118.8 230.86C116.262 230.86 107.631 229.342 107.123 228.836C107.123 228.836 106.615 228.584 105.854 228.331C104.331 227.825 104.077 227.572 105.346 227.572C105.854 227.572 106.362 227.572 106.869 227.319C107.123 227.319 107.631 227.319 107.885 227.319C108.392 227.319 113.215 226.56 114.738 226.307C115.5 226.055 116.262 226.055 116.262 226.055C116.769 226.055 126.923 224.031 126.923 224.031C126.923 224.031 127.431 223.779 128.192 223.779C128.954 223.526 129.462 223.526 129.715 223.526C129.969 223.526 131.238 223.273 132.762 222.767C134.285 222.514 137.077 221.755 138.6 221.25C140.377 220.744 142.408 220.238 143.169 220.238C143.931 219.985 144.946 219.732 145.708 219.732C147.992 219.226 147.992 219.226 146.977 220.238ZM192.415 196.466C192.415 196.466 192.415 196.213 192.669 196.213C192.923 195.96 192.923 195.96 192.923 196.466C193.685 201.777 192.923 207.087 190.638 212.145C190.385 212.651 190.131 213.41 189.877 213.663C189.369 214.674 186.831 219.226 185.562 221.502C180.992 228.584 176.677 233.389 172.362 236.929C171.6 237.435 171.346 237.688 171.6 237.182C171.854 236.676 173.377 233.894 178.2 223.779C180.485 218.974 185.308 209.616 186.577 207.593C186.577 207.34 187.338 206.076 188.1 204.811C188.862 203.547 189.877 201.524 190.638 200.259C191.4 198.995 191.908 197.73 191.908 197.73C191.908 197.477 192.162 197.224 192.162 196.972C192.162 196.719 192.415 196.466 192.415 196.466ZM169.823 237.182C168.554 231.871 169.315 223.779 171.6 217.203C174.392 209.111 179.215 202.282 184.8 198.489C186.831 197.224 188.1 196.466 190.131 195.96L191.654 195.454L191.146 196.466C190.892 196.972 189.877 198.742 189.369 200.006C188.608 201.271 188.1 202.535 187.846 202.535C187.846 202.535 187.592 203.041 187.338 203.294C187.085 204.053 185.562 206.835 184.292 209.363C182.008 213.41 177.185 223.02 175.408 226.813C174.9 227.825 174.138 229.342 173.885 230.101C172.869 232.124 170.585 236.676 170.331 237.435C170.077 237.941 170.077 237.941 169.823 237.182Z" fill="#8AC926"/>
</svg>
