<svg width="104" height="53" viewBox="0 0 104 53" fill="none" xmlns="http://www.w3.org/2000/svg">
<path d="M20.9927 5.44848C20.4375 5.35276 18.9444 5.25705 18.4467 5.25705L13.6993 5.29534L13.6419 8.33904H16.9918C17.7576 8.37732 19.8441 8.22418 20.361 8.09018L20.3227 13.7564C19.6718 13.6607 18.5233 13.565 17.7576 13.565L13.6036 13.6033L13.5461 18.1019C13.5461 19.193 13.6036 20.2076 13.661 20.8201H6.94188C6.99931 20.4181 7.13331 18.7527 7.13331 18.0636L7.22902 3.22791C7.22902 2.11763 7.13331 1.21792 6.92274 0.16507H20.4567L20.9927 5.44848Z" fill="#8AC926"/>
<path d="M28.4201 6.19504C28.535 6.55875 28.9753 8.20503 29.0327 8.5496C30.277 6.80761 31.5021 6.08018 33.1484 6.08018C33.5121 6.08018 33.7418 6.11847 34.0481 6.23333L33.4547 12.6462C33.091 12.359 32.5549 12.2059 32.0572 12.2059C31.215 12.2059 30.3152 12.7036 29.9898 13.3736C29.6261 14.0244 29.4538 13.6416 29.4538 15.4027L29.5495 19.3078V20.9924L23.6918 20.801C23.7876 20.0544 23.8067 19.3844 23.845 17.9296L23.8833 14.0627C23.8833 11.6699 23.5387 9.23874 22.9836 7.55418L28.4201 6.19504Z" fill="#8AC926"/>
<path d="M36.2878 6.78847C37.6278 6.32905 40.3843 5.88876 42.2603 5.88876C45.4189 5.88876 48.2712 6.94162 49.1709 8.4539C49.6686 9.21961 49.8217 10.1576 49.7834 12.1102V15.9196C49.8217 18.1784 49.994 19.1356 50.5492 20.1884L45.2466 21.0307L45.0935 19.7673C43.1409 20.8201 41.5329 21.3178 40.0206 21.3178C37.3789 21.3178 35.3689 19.3079 35.3689 16.647C35.3689 13.4884 37.8766 11.4402 41.6861 11.4402C42.7006 11.4402 43.6769 11.555 44.6915 11.8422C44.634 10.751 43.1026 9.83218 41.4946 9.83218C40.3269 9.83218 38.6232 10.1959 37.0918 10.8276L36.2878 6.78847ZM43.0643 14.503C41.7243 14.503 40.8438 15.2113 40.8438 16.245C40.8438 17.0873 41.4563 17.6424 42.3561 17.6424C43.6003 17.6424 44.366 16.5896 44.4618 14.7902C43.9258 14.5604 43.562 14.503 43.0643 14.503Z" fill="#8AC926"/>
<path d="M53.0377 10.1576C53.0377 9.4493 52.8846 8.39644 52.674 7.59244C56.6366 6.42473 58.6849 6.04188 60.982 6.04188C63.0877 6.04188 64.5426 6.44388 66.1505 7.53502C67.95 6.53959 70.0557 5.98445 71.7785 5.98445C73.9991 5.98445 76.0282 7.22873 76.8322 9.0473C77.0811 9.64072 77.1768 10.5404 77.1768 12.0144L77.1385 18.8867C77.1768 19.729 77.2342 20.6478 77.2916 20.801L71.0894 21.7581C71.1851 21.5475 71.2808 19.863 71.2808 19.0015V12.6844V12.5313C71.2808 11.5741 70.8214 11.1147 69.8834 11.1147C69.3282 11.1147 68.6774 11.3061 68.0265 11.6507V19.1164V19.2313V20.1884C68.0265 20.5521 68.0648 20.6287 68.084 20.801H61.92C62.0157 20.3033 62.0731 19.2504 62.0731 18.0827V12.5696C62.0731 11.5741 61.6137 11.0764 60.6757 11.0764C60.1397 11.0764 59.2591 11.287 58.8571 11.5167V18.5995C58.8571 19.2887 58.9529 20.5138 59.0103 20.801H52.9037C52.9612 20.3607 53.0952 18.4464 53.0952 17.6807L53.0377 10.1576Z" fill="#8AC926"/>
<path d="M85.4656 15.2687C85.7719 16.5322 87.1119 17.3744 88.8156 17.3744C90.0216 17.3744 91.3616 17.0299 92.6633 16.4173L94.0033 19.863C92.3953 20.8584 89.9833 21.471 87.7436 21.471C82.8239 21.471 79.6079 18.3699 79.6079 13.6416C79.6079 8.97076 82.8813 5.62077 87.4756 5.62077C91.9933 5.62077 94.9413 8.81762 94.9413 13.699L94.903 15.2879H85.4656V15.2687ZM87.8585 11.8039H87.9159H88.1265C89.2367 11.8039 89.5239 11.6507 89.5239 11.0956C89.5239 10.0045 88.6625 9.20047 87.4756 9.20047C86.0782 9.20047 85.2168 10.1385 85.2168 11.6125V11.7273L87.8585 11.8039Z" fill="#8AC926"/>
<path d="M27.6927 25.223L21.567 45.2655H17.145L14.1779 36.479L11.1342 45.2655H6.86532L0.337631 25.2805L6.78875 24.285C6.88446 24.821 6.99932 25.2422 7.13332 25.7973L7.66932 27.8456C7.7076 27.9413 7.72675 28.0562 7.72675 28.0945L9.37302 33.7033L12.321 24.5913H16.2453L19.1933 33.1481L21.5861 24.1319L27.6927 25.223Z" fill="#8AC926"/>
<path d="M42.1072 38.1635C42.1072 42.6238 38.8337 45.8781 34.3735 45.8781C29.7601 45.8781 26.3909 42.4707 26.3909 37.8573C26.3909 33.3587 29.7984 30.047 34.4118 30.047C38.9103 30.0661 42.1072 33.4353 42.1072 38.1635ZM31.7318 38.0104C31.7318 39.5992 32.7846 40.767 34.2012 40.767C35.6178 40.767 36.7663 39.5227 36.7663 38.0487C36.7663 36.4981 35.656 35.2347 34.2969 35.2347C32.8421 35.2347 31.7318 36.4407 31.7318 38.0104Z" fill="#8AC926"/>
<path d="M49.0369 30.6404C49.1517 31.0041 49.592 32.6504 49.6494 32.995C50.8937 31.253 52.1188 30.5256 53.7651 30.5256C54.1288 30.5256 54.3586 30.5639 54.6648 30.6787L54.0714 37.0915C53.7077 36.8044 53.1717 36.6513 52.674 36.6513C51.8317 36.6513 50.932 37.149 50.6066 37.819C50.2429 38.4698 50.0706 39.6184 50.0706 41.3795L50.1663 45.0932V45.2464H44.3277C44.4234 44.4998 44.4426 43.8298 44.4809 42.375L44.5192 38.5081C44.5192 36.1153 44.1746 33.6841 43.6194 31.9996L49.0369 30.6404Z" fill="#8AC926"/>
<path d="M64.4851 31.3296H67.3565L67.2991 36.4981L64.1979 36.4598L64.1405 39.0058V39.1015V39.4078C64.1405 40.3458 64.5042 40.767 65.3082 40.767C65.8059 40.767 66.5525 40.5755 67.0502 40.3267L67.9499 44.4807C66.4377 45.3421 65.0402 45.7441 63.5279 45.7441C61.5754 45.7441 59.8717 44.9784 59.1251 43.7341C58.8188 43.1981 58.6657 42.3367 58.6657 40.9775V36.4598L56.8471 36.4215V31.2721H58.7423L58.7997 28.573V28.171C58.7997 27.6733 58.7997 27.6733 58.6848 26.2184H64.5042V31.3296H64.4851Z" fill="#8AC926"/>
<path d="M77.3107 23.4045C77.215 24.017 77.215 24.3042 77.1576 26.4673L77.1959 31.2913C78.4593 30.8319 80.0673 30.5256 81.4456 30.5256C83.2067 30.5256 84.8913 31.2913 85.4656 32.4207C85.7718 33.0142 85.925 33.7607 85.925 34.8327V43.4087C85.925 44.4233 85.9633 45.0167 86.0207 45.2655H79.8184C79.9142 44.8635 80.0099 43.3513 80.029 42.1453L80.0864 37.0341C80.0864 36.5939 80.0482 36.479 79.9716 36.3259C79.7802 35.9239 79.225 35.6367 78.7273 35.6367C78.1722 35.6367 77.5787 35.8473 77.1385 36.2301L77.081 42.6813C77.081 43.2747 77.1959 44.787 77.2916 45.2847H70.8788C70.9936 44.9401 71.1659 42.9684 71.1659 41.5327V26.9459C71.1659 26.1802 71.0702 24.8019 70.9745 24.4765L77.3107 23.4045Z" fill="#8AC926"/>
<path d="M103.326 31.9804C99.1144 43.8107 97.2001 47.1606 91.8018 52.1378L88.203 48.2135C89.9641 46.7204 90.9021 45.7441 92.357 43.7532L90.5001 39.7907C89.2941 37.3404 87.9541 33.7224 87.4373 31.5593L93.2567 30.3533C94.7115 35.4261 95.1135 36.6704 95.707 38.0104L97.9084 30.2384L103.326 31.9804Z" fill="#8AC926"/>
</svg>
